<?xml version="1.0" encoding="UTF-8" standalone="no"?>
<!DOCTYPE svg PUBLIC "-//W3C//DTD SVG 1.1//EN" "http://www.w3.org/Graphics/SVG/1.1/DTD/svg11.dtd">
<svg width="100%" height="100%" viewBox="0 0 823 369" version="1.1" xmlns="http://www.w3.org/2000/svg" xmlns:xlink="http://www.w3.org/1999/xlink" xml:space="preserve" xmlns:serif="http://www.serif.com/" style="fill-rule:evenodd;clip-rule:evenodd;stroke-linejoin:round;stroke-miterlimit:2;">
    <g transform="matrix(1,0,0,1,-0.00016,0.000478)">
        <g transform="matrix(1,0,0,1,-9.73984,-110.836)">
            <path d="M104.174,365.399C107.924,365.816 115.424,365.816 119.591,365.399C135.007,364.566 149.591,360.399 162.924,353.316C166.674,351.233 170.007,349.149 173.341,347.066C147.091,346.649 120.007,352.066 104.174,365.399ZM135.841,333.733C110.424,338.733 92.924,348.733 79.174,359.566C86.674,362.066 94.174,364.149 102.507,364.983C111.257,354.566 124.174,346.233 143.341,341.233C168.341,334.566 187.924,333.733 187.924,333.733C187.924,333.733 167.924,327.899 135.841,333.733ZM152.924,320.399C152.924,320.399 124.174,317.899 94.174,329.566C75.007,337.066 60.424,350.816 60.424,350.816C65.84,354.149 71.674,357.066 77.924,359.149C96.257,337.483 123.341,325.816 152.924,320.399ZM95.649,305.658C94.731,303.117 93.715,300.237 92.642,297.019C99.309,294.519 110.975,291.602 118.892,290.352C119.725,289.935 120.975,290.769 121.392,291.602L123.892,296.185C125.142,295.769 126.392,295.352 127.642,295.352C165.142,285.769 220.559,285.769 245.559,291.185C245.975,294.102 247.642,302.435 248.475,310.352C229.725,304.935 190.975,294.102 136.392,303.269C122.225,305.769 109.725,310.352 99.309,315.769C99.287,315.705 99.331,315.834 99.309,315.769C71.862,329.935 58.907,349.702 58.907,349.702C53.073,345.952 47.24,341.368 42.24,336.785C54.671,326.426 74.932,313.182 95.649,305.658ZM92.24,295.118C60.573,308.868 48.073,325.118 40.99,335.952C36.407,331.368 32.24,326.368 28.49,321.368C41.407,309.702 65.207,294.629 89.374,285.879C89.374,285.462 92.373,288.958 92.24,295.118ZM125.668,316.494C125.668,316.494 136.147,315.981 142.826,316.035C177.441,316.808 205.054,322.1 205.054,322.1L204.032,306.99C177.701,307.219 152.024,310.001 125.668,316.494ZM83.378,264.743C83.272,264.393 83.165,264.041 83.059,263.685L80.975,256.185C85.975,254.519 95.559,251.602 101.809,250.769C103.059,250.769 103.892,251.185 104.309,252.435L105.975,257.435C110.559,256.185 115.559,254.519 120.559,253.269C159.309,243.269 207.225,243.269 233.475,247.852C235.559,254.102 237.642,260.352 239.725,267.019C216.392,256.602 163.059,252.852 121.809,263.269C108.892,266.602 96.809,270.769 86.392,275.352C85.584,275.254 87.807,274.727 86.392,275.352C54.308,289.519 34.323,308.452 27.657,319.702C24.323,314.702 21.407,309.702 18.907,303.868C32.22,291.803 58.827,273.922 83.378,264.743ZM80.975,254.935C43.058,271.185 25.573,290.952 18.073,302.618C15.157,295.952 13.073,288.868 11.407,281.785C25.99,270.535 54.932,252.417 78.265,244.084C78.394,244.084 79.237,243.723 79.5,244.5C80.089,246.237 80.112,250.905 80.975,254.935ZM126.392,283.685C113.059,287.019 101.823,291.368 92.24,295.118C90.573,290.118 88.892,284.102 86.809,277.435C92.642,275.352 103.059,272.019 109.725,271.185C110.559,271.185 111.809,271.602 112.225,272.435L114.309,277.435C117.642,276.602 120.975,275.352 124.725,274.519C163.059,264.935 214.309,264.519 240.142,269.519C241.809,275.769 243.475,282.435 244.725,289.102C221.809,277.852 165.975,273.269 126.392,283.685ZM73.49,224.285C79.274,222.412 75.931,230.836 75.975,234.519C41.392,249.519 19.74,269.285 11.407,280.535C10.573,275.952 10.157,271.368 9.74,266.785L9.74,260.535C24.323,249.702 53.49,231.368 73.49,224.285ZM69.289,204.297C68.614,200.815 68.058,197.852 68.058,197.852L68.058,197.019C73.059,195.352 81.809,192.435 87.642,191.185C88.892,190.769 90.142,191.602 90.559,193.269L90.975,197.435C95.559,196.185 100.559,194.935 105.559,193.685C132.642,187.019 175.559,181.602 199.725,184.102C203.892,189.935 208.059,195.769 211.809,202.019C188.059,194.102 143.892,193.269 107.225,202.435C93.475,205.769 81.392,209.935 71.392,214.519C71.376,214.454 71.359,214.385 71.341,214.312C35.553,229.307 18.901,247.625 9.74,258.035C10.157,249.285 11.407,240.952 13.49,232.618C27.229,224.708 55.112,209.31 69.289,204.297ZM117.642,242.435C103.475,246.185 91.392,250.352 80.975,254.935C79.725,249.519 78.059,243.269 76.392,237.019C80.975,235.352 90.142,232.435 95.559,231.602C96.809,231.602 98.059,232.019 98.059,233.269C98.475,234.519 98.892,236.185 99.309,237.435C104.309,235.769 109.309,234.519 114.309,233.269C153.059,223.269 198.059,222.019 223.892,225.769C226.809,232.019 229.725,238.685 232.225,245.769C209.309,235.352 159.309,231.602 117.642,242.435ZM112.642,222.019C98.892,225.352 86.809,229.935 75.975,234.519C75.142,231.185 74.309,227.852 73.475,224.102C73.059,221.602 72.225,219.102 71.808,216.602C77.642,214.935 84.309,212.852 90.559,211.602C91.809,211.185 93.059,212.019 93.059,213.269L93.892,217.435C98.892,216.185 103.892,214.519 108.892,213.269C143.892,204.519 186.809,202.019 212.642,204.519C215.975,210.352 219.309,216.602 222.225,222.852C199.309,213.269 155.559,211.185 112.642,222.019ZM65.501,184.728C65.058,181.851 64.725,179.519 64.725,179.519C71.392,176.185 79.725,173.269 85.975,172.019C87.642,171.602 88.892,172.852 88.892,174.102L88.892,176.185C92.642,174.935 96.809,174.102 100.559,172.852C132.642,165.352 165.975,164.102 184.725,166.185C189.309,170.769 193.475,176.185 197.642,181.602C175.559,174.935 136.809,174.935 101.809,182.852C88.892,185.769 77.24,190.118 67.24,194.702C67.247,194.648 67.275,194.686 67.24,194.702C40.573,206.785 23.49,222.618 13.907,230.535C16.407,221.785 20.573,213.452 25.157,205.535C37.605,198.896 59.559,186.884 65.501,184.728ZM63,169.5C63.072,169.932 65.428,170.066 65.5,170.5C65.845,172.578 63.964,175.023 64.308,177.435C48.058,186.185 35.573,196.785 27.24,202.202C36.407,188.868 48.833,177.417 63,169.5ZM99.309,164.519C85.975,167.019 74.309,172.019 64.308,177.435C63.892,174.935 63.058,169.519 63.058,169.519C63.058,168.685 62.225,163.685 61.808,162.852C67.642,159.519 78.892,154.519 86.809,152.435C88.475,152.019 90.142,153.269 89.725,154.935L89.725,156.185C90.975,155.769 92.225,155.352 93.475,154.935C113.059,149.102 150.142,145.352 166.809,147.852C172.642,152.852 178.059,157.852 183.475,163.685C164.725,159.519 135.142,157.435 99.309,164.519ZM143.892,132.852C150.975,137.019 157.642,141.602 164.309,147.019C145.142,141.185 111.392,141.602 90.559,147.435C79.725,150.769 69.308,155.769 60.975,160.769C60.142,156.602 59.308,149.102 58.475,144.935C64.308,142.019 79.309,135.352 89.725,134.102C91.392,133.685 93.059,135.352 92.225,137.019C104.725,134.102 127.642,131.185 143.892,132.852ZM94.725,129.935C76.809,132.852 64.725,139.935 58.475,142.852C58.058,139.102 56.808,130.352 56.392,127.019L101.809,116.602L105.142,117.019C117.225,119.935 128.892,124.519 140.559,130.769C124.309,127.019 110.142,127.019 94.725,129.935Z" style="fill:rgb(30,41,59);fill-rule:nonzero;"/>
            <g transform="matrix(4.16667,0,0,4.16667,568.158,159.252)">
                <path d="M-59,17.3L-45.9,17.3L-45.9,22.3L-39.4,22.3L-39.4,17.3L-36.1,17.3L-36.1,11.7L-39.4,11.7L-39.4,-4.2L-45.9,-4.2L-59,11.6L-59,17.3ZM-45.9,3.6L-45.9,11.7L-52.6,11.7L-45.9,3.6ZM-68.4,31L-36.1,31L-36.1,25.4L-68.5,25.4L-68.4,31ZM-68.4,-4.2L-61.9,-4.2L-61.9,22.3L-68.4,22.3L-68.4,-4.2Z" style="fill:rgb(30,41,59);fill-rule:nonzero;"/>
            </g>
            <g transform="matrix(4.16667,0,0,4.16667,942.473,178.022)">
                <path d="M-99.1,-7.5L-103.6,7.8C-103.8,8.5 -104.2,8.7 -105,8.7L-106.1,8.7C-106.9,8.7 -107.3,8.5 -107.5,7.8L-109.9,-0.8C-110.3,-2.4 -110.5,-4.1 -110.5,-4.3L-110.7,-4.3C-110.7,-4.2 -110.9,-2.5 -111.3,-0.8L-113.7,7.8C-113.9,8.5 -114.3,8.7 -115.1,8.7L-116.2,8.7C-117,8.7 -117.4,8.5 -117.6,7.8L-122.3,-7.5C-122.6,-8.5 -122.5,-8.7 -121.5,-8.7L-120.2,-8.7C-119,-8.7 -118.5,-8.5 -118.4,-7.7L-116.5,-0.2C-116.2,1.3 -116,3.7 -115.9,3.9L-115.7,3.9C-115.7,3.7 -115.4,1.4 -115,-0.2L-112.8,-7.5C-112.5,-8.4 -112.3,-8.6 -111.1,-8.6L-110.3,-8.6C-109.1,-8.6 -108.9,-8.4 -108.6,-7.6L-106.4,-0.2C-105.9,1.5 -105.7,3.8 -105.7,3.9L-105.5,3.9C-105.5,3.7 -105.4,1.7 -104.9,-0.2L-103.1,-7.7C-102.9,-8.6 -102.5,-8.7 -101.2,-8.7L-100.1,-8.7C-99,-8.7 -98.8,-8.5 -99.1,-7.5" style="fill:rgb(30,41,59);fill-rule:nonzero;"/>
            </g>
            <g transform="matrix(4.16667,0,0,4.16667,1014.16,190.638)">
                <path d="M-106.8,-12.2C-101.8,-12.2 -99.1,-9.7 -99.1,-5.5L-99.1,-0.5C-99.1,3.7 -101.8,6.2 -106.8,6.2C-111.8,6.2 -114.5,3.6 -114.5,-0.5L-114.5,-5.5C-114.5,-9.7 -111.7,-12.2 -106.8,-12.2M-106.8,-8.7C-109.2,-8.7 -110.6,-7.6 -110.6,-5.5L-110.6,-0.5C-110.6,1.5 -109.2,2.7 -106.8,2.7C-104.3,2.7 -102.9,1.5 -102.9,-0.5L-102.9,-5.5C-102.9,-7.6 -104.3,-8.7 -106.8,-8.7" style="fill:rgb(30,41,59);fill-rule:nonzero;"/>
            </g>
            <g transform="matrix(4.16667,0,0,4.16667,1161.83,186.854)">
                <path d="M-122.6,-11.3C-121.8,-11.3 -121.6,-11.1 -121.6,-10.3L-121.6,-8.8C-121.6,-8 -121.9,-7.8 -122.6,-7.8L-123.8,-7.8C-125.1,-7.8 -126.1,-7.7 -127,-7.4C-127.3,-7.3 -127.3,-7.2 -127.3,-7L-127.3,5.5C-127.3,6.3 -127.5,6.5 -128.3,6.5L-130.1,6.5C-130.9,6.5 -131.1,6.2 -131.1,5.5L-131.1,-8.4C-131.1,-9.5 -130.9,-9.9 -129.8,-10.3C-128.6,-10.8 -126.5,-11.2 -123.6,-11.3L-122.6,-11.3Z" style="fill:rgb(30,41,59);fill-rule:nonzero;"/>
            </g>
            <g transform="matrix(4.16667,0,0,4.16667,1208.54,0.0021)">
                <path d="M-127.6,51.4L-129.4,51.4C-130.2,51.4 -130.4,51.1 -130.4,50.4L-130.4,27.6C-130.4,26.8 -130.2,26.6 -129.4,26.6L-127.6,26.6C-126.8,26.6 -126.6,26.9 -126.6,27.6L-126.6,50.3C-126.6,51.1 -126.8,51.4 -127.6,51.4" style="fill:rgb(30,41,59);fill-rule:nonzero;"/>
            </g>
            <g transform="matrix(4.16667,0,0,4.16667,1295.13,138.375)">
                <path d="M-136.9,0.3C-135.3,0.3 -133.8,0.6 -132.9,0.7L-132.9,-5.6C-132.9,-6.4 -132.7,-6.6 -131.9,-6.6L-130.1,-6.6C-129.3,-6.6 -129.1,-6.3 -129.1,-5.6L-129.1,15.8C-129.1,16.9 -129.4,17.2 -130.4,17.6C-131.7,18.1 -133.6,18.7 -136.7,18.7C-141.7,18.7 -144,16.2 -144,11.9L-144,7.3C-143.9,2.8 -141.5,0.3 -136.9,0.3M-136.1,3.9C-138.8,3.9 -140,5.1 -140,7.5L-140,11.9C-140,14.1 -138.7,15.3 -136.2,15.3C-135,15.3 -134,15.2 -133.1,14.9C-132.9,14.8 -132.8,14.7 -132.8,14.5L-132.8,4.3C-133.7,4.1 -134.8,3.9 -136.1,3.9" style="fill:rgb(30,41,59);fill-rule:nonzero;"/>
            </g>
            <g transform="matrix(4.16667,0,0,4.16667,1431.49,190.638)">
                <path d="M-151.4,-12.2C-147.5,-12.2 -145.3,-10.8 -144.2,-8.6C-143.8,-7.8 -144,-7.4 -144.7,-7.1L-146.2,-6.5C-146.9,-6.2 -147.2,-6.3 -147.6,-7C-148.2,-8 -149.1,-8.7 -151.2,-8.7C-153.4,-8.7 -154.4,-8.1 -154.4,-6.9C-154.4,-5.3 -153.1,-5.1 -150.5,-4.8C-146.5,-4.4 -143.7,-3.5 -143.7,0.6C-143.7,3.9 -146.2,6.2 -150.9,6.2C-154.9,6.2 -157.4,4.8 -158.4,2.1C-158.7,1.4 -158.5,1 -157.7,0.7L-156.2,0.2C-155.5,0 -155.2,0.1 -154.8,0.8C-154.3,2.1 -153.1,2.6 -151,2.6C-148.6,2.6 -147.4,1.9 -147.4,0.6C-147.4,-1 -148.7,-1.3 -151.4,-1.5C-154.7,-1.8 -158.2,-2.5 -158.2,-6.9C-158.3,-10 -156,-12.2 -151.4,-12.2" style="fill:rgb(30,41,59);fill-rule:nonzero;"/>
            </g>
            <g transform="matrix(4.16667,0,0,4.16667,837.489,318.108)">
                <path d="M-87.8,-19.3L-87.8,-18.8C-87.8,-18.5 -87.9,-18.4 -88.1,-18.4L-94.3,-18.4L-94.3,-13.9L-89,-13.9C-88.8,-13.9 -88.7,-13.8 -88.7,-13.6L-88.7,-13.1C-88.7,-12.8 -88.8,-12.8 -89,-12.8L-94.3,-12.8L-94.3,-7.5C-94.3,-7.2 -94.4,-7.1 -94.6,-7.1L-95.2,-7.1C-95.5,-7.1 -95.6,-7.2 -95.6,-7.5L-95.6,-19.2C-95.6,-19.5 -95.5,-19.5 -95.2,-19.5L-88.1,-19.5C-87.9,-19.6 -87.8,-19.5 -87.8,-19.3" style="fill:rgb(30,41,59);fill-rule:nonzero;"/>
            </g>
            <g transform="matrix(4.16667,0,0,4.16667,856.323,318.108)">
                <path d="M-89.9,-19.3L-89.9,-8.4L-84,-8.4C-83.8,-8.4 -83.7,-8.3 -83.7,-8L-83.7,-7.5C-83.7,-7.2 -83.8,-7.1 -84,-7.1L-90.9,-7.1C-91,-7.2 -91.1,-7.3 -91.1,-7.5L-91.1,-19.2C-91.1,-19.5 -91,-19.5 -90.7,-19.5L-90.1,-19.5C-89.9,-19.6 -89.9,-19.5 -89.9,-19.3" style="fill:rgb(30,41,59);fill-rule:nonzero;"/>
            </g>
            <g transform="matrix(4.16667,0,0,4.16667,968.873,318.108)">
                <path d="M-101.9,-19.3L-101.9,-18.8C-101.9,-18.5 -102,-18.4 -102.2,-18.4L-108.4,-18.4L-108.4,-14.1L-103,-14.1C-102.8,-14.1 -102.7,-14 -102.7,-13.7L-102.7,-13.2C-102.7,-12.9 -102.8,-12.9 -103,-12.9L-108.4,-12.9L-108.4,-8.4L-102,-8.4C-101.8,-8.4 -101.7,-8.3 -101.7,-8L-101.7,-7.5C-101.7,-7.2 -101.8,-7.1 -102,-7.1L-109.3,-7.1C-109.6,-7.1 -109.7,-7.2 -109.7,-7.5L-109.7,-19.2C-109.7,-19.5 -109.6,-19.5 -109.3,-19.5L-102.2,-19.5C-102,-19.6 -101.9,-19.5 -101.9,-19.3" style="fill:rgb(30,41,59);fill-rule:nonzero;"/>
            </g>
            <g transform="matrix(4.16667,0,0,4.16667,1056.48,318.108)">
                <path d="M-111.3,-19.3L-111.3,-7.5C-111.3,-7.2 -111.4,-7.1 -111.7,-7.1L-112.3,-7.1C-112.5,-7.1 -112.6,-7.1 -112.7,-7.3L-118.3,-15.3C-118.9,-16.3 -119.4,-17.4 -119.7,-17.8L-119.8,-17.8C-119.8,-17.3 -119.6,-16 -119.6,-14.7L-119.6,-7.5C-119.6,-7.2 -119.7,-7.1 -119.9,-7.1L-120.4,-7.1C-120.7,-7.1 -120.8,-7.2 -120.8,-7.5L-120.8,-19.2C-120.8,-19.5 -120.7,-19.5 -120.4,-19.5L-119.8,-19.5C-119.6,-19.5 -119.5,-19.4 -119.4,-19.3L-113.9,-11.4C-113.2,-10.3 -112.7,-9.2 -112.3,-8.8L-112.2,-8.8C-112.2,-9.4 -112.4,-10.7 -112.4,-12.1L-112.4,-19.2C-112.4,-19.4 -112.3,-19.5 -112,-19.5L-111.5,-19.5C-111.4,-19.6 -111.3,-19.5 -111.3,-19.3" style="fill:rgb(30,41,59);fill-rule:nonzero;"/>
            </g>
            <g transform="matrix(4.16667,0,0,4.16667,1107.66,322.563)">
                <path d="M-116.8,-20.9C-114.4,-20.9 -113.1,-20 -112.2,-18.2C-112.1,-18 -112.1,-17.9 -112.4,-17.7L-112.9,-17.5C-113.1,-17.4 -113.2,-17.4 -113.4,-17.7C-114.1,-19 -115,-19.7 -116.8,-19.7C-118.9,-19.7 -120,-18.9 -120,-17.4C-120,-15.6 -118.2,-15.3 -116.4,-15.1C-114.3,-14.9 -112,-14.5 -112,-11.7C-112,-9.4 -113.6,-8 -116.8,-8C-119.3,-8 -120.7,-9 -121.6,-11C-121.7,-11.3 -121.6,-11.4 -121.4,-11.5L-120.9,-11.7C-120.7,-11.8 -120.6,-11.7 -120.4,-11.5C-119.8,-10 -118.6,-9.2 -116.9,-9.2C-114.6,-9.2 -113.4,-10 -113.4,-11.7C-113.4,-13.5 -115,-13.8 -116.8,-13.9C-119,-14.1 -121.4,-14.5 -121.4,-17.4C-121.3,-19.5 -119.7,-20.9 -116.8,-20.9" style="fill:rgb(30,41,59);fill-rule:nonzero;"/>
            </g>
            <g transform="matrix(4.16667,0,0,4.16667,1224.93,296.732)">
                <path d="M-129.4,-11.3C-129.4,-9.9 -130,-9 -131,-8.5C-129.7,-8.1 -128.9,-7.1 -128.9,-5.4C-128.9,-3.2 -130.3,-2.1 -132.5,-2.1L-137.6,-2.1C-137.9,-2.1 -138,-2.2 -138,-2.5L-138,-14.2C-138,-14.5 -137.9,-14.5 -137.6,-14.5L-132.7,-14.5C-130.6,-14.5 -129.4,-13.4 -129.4,-11.3M-132.9,-13.3L-136.8,-13.3L-136.8,-9L-132.9,-9C-131.5,-9 -130.7,-9.7 -130.7,-11.2C-130.7,-12.6 -131.4,-13.3 -132.9,-13.3M-132.6,-7.8L-136.8,-7.8L-136.8,-3.2L-132.6,-3.2C-131.1,-3.2 -130.3,-4 -130.3,-5.5C-130.3,-7 -131.1,-7.8 -132.6,-7.8" style="fill:rgb(30,41,59);fill-rule:nonzero;"/>
            </g>
            <g transform="matrix(4.16667,0,0,4.16667,1279.15,236.042)">
                <path d="M-135.2,11.6C-132.9,11.6 -131.8,10.3 -131.8,8.3L-131.8,0.4C-131.8,0.1 -131.7,0.1 -131.4,0.1L-130.8,0.1C-130.5,0.1 -130.4,0.2 -130.4,0.4L-130.4,8.3C-130.4,11 -132,12.8 -135.1,12.8C-138.2,12.8 -139.8,11 -139.8,8.3L-139.8,0.4C-139.8,0.1 -139.7,0.1 -139.4,0.1L-138.8,0.1C-138.5,0.1 -138.4,0.2 -138.4,0.4L-138.4,8.3C-138.6,10.3 -137.5,11.6 -135.2,11.6" style="fill:rgb(30,41,59);fill-rule:nonzero;"/>
            </g>
            <g transform="matrix(4.16667,0,0,4.16667,1402.09,293.441)">
                <path d="M-148.3,-10.1C-148.3,-8.2 -149.4,-6.9 -151.1,-6.7C-150.6,-6.5 -150.3,-6.1 -150,-5.5L-148,-1.7C-147.9,-1.5 -147.9,-1.3 -148.2,-1.3L-148.8,-1.3C-149.2,-1.3 -149.4,-1.4 -149.5,-1.6L-151.2,-5C-151.7,-6.1 -152.3,-6.5 -153.7,-6.5L-156.1,-6.5L-156.1,-1.6C-156.1,-1.3 -156.2,-1.2 -156.4,-1.2L-157,-1.2C-157.3,-1.2 -157.4,-1.3 -157.4,-1.6L-157.4,-13.3C-157.4,-13.6 -157.3,-13.6 -157,-13.6L-152,-13.6C-149.7,-13.7 -148.3,-12.4 -148.3,-10.1M-152.1,-12.5L-156,-12.5L-156,-7.7L-152.1,-7.7C-150.5,-7.7 -149.6,-8.6 -149.6,-10.1C-149.7,-11.6 -150.6,-12.5 -152.1,-12.5" style="fill:rgb(30,41,59);fill-rule:nonzero;"/>
            </g>
            <g transform="matrix(4.16667,0,0,4.16667,1489.82,272.977)">
                <path d="M-157.7,-2.4L-157.7,-0.2C-157.7,2.3 -159.4,4 -162.5,4C-165.6,4 -167.3,2.3 -167.3,-0.4L-167.3,-4.5C-167.3,-7.2 -165.6,-8.9 -162.5,-8.9C-159.8,-8.9 -158.5,-7.8 -157.8,-5.9C-157.7,-5.6 -157.8,-5.5 -158,-5.4L-158.5,-5.2C-158.7,-5.1 -158.9,-5.2 -159,-5.4C-159.5,-6.9 -160.4,-7.7 -162.5,-7.7C-164.8,-7.7 -166,-6.5 -166,-4.5L-166,-0.5C-166,1.5 -164.8,2.7 -162.4,2.7C-160.1,2.7 -158.8,1.5 -158.8,-0.3L-158.8,-1.6L-162.2,-1.6C-162.5,-1.6 -162.6,-1.7 -162.6,-2L-162.6,-2.5C-162.6,-2.8 -162.5,-2.8 -162.2,-2.8L-157.9,-2.8C-157.8,-2.8 -157.7,-2.7 -157.7,-2.4" style="fill:rgb(30,41,59);fill-rule:nonzero;"/>
            </g>
            <g transform="matrix(4.16667,0,0,4.16667,575.315,405.714)">
                <path d="M-59.7,-16.6L-59.7,-14.3C-59.7,-11.6 -61.5,-9.8 -64.9,-9.8C-68.3,-9.8 -70.1,-11.6 -70.1,-14.6L-70.1,-19.1C-70.1,-22.1 -68.3,-23.9 -64.9,-23.9C-62,-23.9 -60.5,-22.8 -59.9,-20.7C-59.8,-20.4 -59.9,-20.3 -60.1,-20.2L-60.7,-20C-61,-19.9 -61.1,-20 -61.2,-20.2C-61.7,-21.9 -62.8,-22.6 -64.9,-22.6C-67.4,-22.6 -68.7,-21.3 -68.7,-19.1L-68.7,-14.6C-68.7,-12.4 -67.4,-11.1 -64.9,-11.1C-62.4,-11.1 -61,-12.4 -61,-14.4L-61,-15.8L-64.7,-15.8C-65,-15.8 -65.1,-15.9 -65.1,-16.2L-65.1,-16.7C-65.1,-17 -65,-17.1 -64.7,-17.1L-60.1,-17.1C-59.8,-17 -59.7,-16.9 -59.7,-16.6" style="fill:rgb(30,41,59);fill-rule:nonzero;"/>
            </g>
            <g transform="matrix(4.16667,0,0,4.16667,655.133,454.545)">
                <path d="M-68.5,-34.8L-68.5,-34.3C-68.5,-34 -68.6,-33.9 -68.9,-33.9L-75.6,-33.9L-75.6,-29.2L-69.8,-29.2C-69.5,-29.2 -69.4,-29.1 -69.4,-28.8L-69.4,-28.3C-69.4,-28 -69.5,-27.9 -69.8,-27.9L-75.6,-27.9L-75.6,-23L-68.7,-23C-68.4,-23 -68.3,-22.9 -68.3,-22.6L-68.3,-22.1C-68.3,-21.8 -68.4,-21.7 -68.7,-21.7L-76.6,-21.7C-76.9,-21.7 -77,-21.8 -77,-22.1L-77,-34.8C-77,-35.1 -76.9,-35.2 -76.6,-35.2L-68.9,-35.2C-68.6,-35.2 -68.5,-35.1 -68.5,-34.8" style="fill:rgb(30,41,59);fill-rule:nonzero;"/>
            </g>
            <g transform="matrix(4.16667,0,0,4.16667,745.368,427.849)">
                <path d="M-78.3,-24.9C-78.3,-22.8 -79.5,-21.5 -81.4,-21.2C-80.8,-20.9 -80.5,-20.5 -80.2,-19.9L-78.1,-15.8C-78,-15.6 -78,-15.4 -78.3,-15.4L-78.9,-15.4C-79.4,-15.4 -79.5,-15.5 -79.6,-15.7L-81.4,-19.4C-82,-20.6 -82.6,-21 -84.1,-21L-86.7,-21L-86.7,-15.7C-86.7,-15.4 -86.8,-15.3 -87.1,-15.3L-87.7,-15.3C-88,-15.3 -88.1,-15.4 -88.1,-15.7L-88.1,-28.4C-88.1,-28.7 -88,-28.8 -87.7,-28.8L-82.3,-28.8C-79.8,-28.8 -78.3,-27.4 -78.3,-24.9M-82.4,-27.5L-86.6,-27.5L-86.6,-22.3L-82.4,-22.3C-80.7,-22.3 -79.7,-23.2 -79.7,-24.9C-79.7,-26.6 -80.7,-27.5 -82.4,-27.5" style="fill:rgb(30,41,59);fill-rule:nonzero;"/>
            </g>
            <g transform="matrix(4.16667,0,0,4.16667,855.435,454.545)">
                <path d="M-90.2,-34.8L-90.2,-22.1C-90.2,-21.8 -90.3,-21.7 -90.6,-21.7L-91.1,-21.7C-91.4,-21.7 -91.5,-21.8 -91.5,-22.1L-91.5,-29.8C-91.5,-30.8 -91.4,-31.9 -91.3,-33.2L-91.4,-33.2C-91.9,-32.1 -92.3,-31.2 -92.9,-30.2L-95.8,-25.1C-95.9,-24.9 -96,-24.8 -96.2,-24.8L-96.6,-24.8C-96.8,-24.8 -96.9,-24.8 -97.1,-25.1L-100,-30.2C-100.6,-31.1 -100.9,-32 -101.4,-33.1L-101.5,-33.1C-101.3,-31.8 -101.3,-30.8 -101.3,-29.7L-101.3,-22C-101.3,-21.7 -101.4,-21.6 -101.7,-21.6L-102.2,-21.6C-102.5,-21.6 -102.6,-21.7 -102.6,-22L-102.6,-34.7C-102.6,-35 -102.5,-35.1 -102.2,-35.1L-101.7,-35.1C-101.4,-35.1 -101.3,-35 -101.2,-34.8L-96.5,-26.5L-91.8,-34.8C-91.6,-35.1 -91.6,-35.1 -91.3,-35.1L-90.7,-35.1C-90.3,-35.2 -90.2,-35.1 -90.2,-34.8" style="fill:rgb(30,41,59);fill-rule:nonzero;"/>
            </g>
            <g transform="matrix(4.16667,0,0,4.16667,955.086,355.605)">
                <path d="M-100.8,2L-101.4,2C-101.9,2 -102,1.9 -102.1,1.7L-103.5,-1.9L-109.4,-1.9L-110.8,1.7C-110.9,2 -111,2 -111.5,2L-112,2C-112.3,2 -112.3,1.9 -112.2,1.6L-107.1,-11.2C-107,-11.5 -106.9,-11.5 -106.6,-11.5L-106,-11.5C-105.7,-11.5 -105.6,-11.4 -105.5,-11.2L-100.4,1.7C-100.4,1.9 -100.5,2 -100.8,2M-106.3,-10.2C-106.4,-10.1 -106.4,-9.5 -106.6,-8.9L-108.9,-3.1L-103.7,-3.1L-106,-8.9C-106.3,-9.6 -106.3,-10.2 -106.3,-10.2" style="fill:rgb(30,41,59);fill-rule:nonzero;"/>
            </g>
            <g transform="matrix(4.16667,0,0,4.16667,1047.82,454.545)">
                <path d="M-110.5,-34.8L-110.5,-22.1C-110.5,-21.8 -110.6,-21.7 -110.9,-21.7L-111.5,-21.7C-111.7,-21.7 -111.8,-21.7 -111.9,-21.9L-118,-30.6C-118.7,-31.6 -119.2,-32.9 -119.5,-33.3L-119.6,-33.3C-119.6,-32.8 -119.4,-31.3 -119.4,-29.9L-119.4,-22C-119.4,-21.7 -119.5,-21.6 -119.8,-21.6L-120.4,-21.6C-120.7,-21.6 -120.8,-21.7 -120.8,-22L-120.8,-34.7C-120.8,-35 -120.7,-35.1 -120.4,-35.1L-119.8,-35.1C-119.6,-35.1 -119.5,-35 -119.4,-34.9L-113.5,-26.4C-112.7,-25.3 -112.2,-24 -111.8,-23.5L-111.7,-23.5C-111.7,-24.1 -111.9,-25.5 -111.9,-27L-111.9,-34.7C-111.9,-35 -111.8,-35.1 -111.5,-35.1L-110.9,-35.1C-110.6,-35.2 -110.5,-35.1 -110.5,-34.8" style="fill:rgb(30,41,59);fill-rule:nonzero;"/>
            </g>
            <g transform="matrix(4.16667,0,0,4.16667,1146.22,454.545)">
                <path d="M-120.8,-34.8L-125.8,-27.2L-125.8,-22.1C-125.8,-21.8 -125.9,-21.7 -126.2,-21.7L-126.8,-21.7C-127.1,-21.7 -127.2,-21.8 -127.2,-22.1L-127.2,-27.2L-132.2,-34.8C-132.3,-35 -132.3,-35.2 -132,-35.2L-131.2,-35.2C-130.8,-35.2 -130.6,-35.2 -130.5,-34.9L-126.5,-28.7L-122.5,-34.9C-122.3,-35.2 -122.2,-35.2 -121.8,-35.2L-121.1,-35.2C-120.7,-35.2 -120.6,-35.1 -120.8,-34.8" style="fill:rgb(30,41,59);fill-rule:nonzero;"/>
            </g>
            <g transform="matrix(4.16667,0,0,4.16667,1159.97,418.852)">
                <path d="M-122.4,-18.4L-122.4,-18.3C-122.4,-17.7 -122.6,-17.6 -123.1,-17.6L-123.2,-17.6C-123.8,-17.6 -124,-17.8 -124,-18.3L-124,-18.4C-124,-19 -123.8,-19.2 -123.2,-19.2L-123.1,-19.2C-122.5,-19.2 -122.4,-19 -122.4,-18.4" style="fill:rgb(30,41,59);fill-rule:nonzero;"/>
            </g>
            <g transform="matrix(4.16667,0,0,4.16667,1215.77,457.402)">
                <path d="M-129.2,-36.2C-126.5,-36.2 -124.9,-34.3 -124.9,-32.1C-124.9,-29.2 -126.8,-28.3 -129.9,-27.1C-131.3,-26.6 -132.8,-26 -132.8,-24.5L-132.8,-23.8L-125.4,-23.8C-125.1,-23.8 -125,-23.7 -125,-23.4L-125,-22.9C-125,-22.6 -125.1,-22.5 -125.4,-22.5L-133.8,-22.5C-134.1,-22.5 -134.2,-22.6 -134.2,-22.9L-134.2,-24.3C-134.2,-26.8 -132.2,-27.7 -130.3,-28.5C-128.3,-29.3 -126.4,-29.9 -126.4,-32.2C-126.4,-33.8 -127.6,-35 -129.3,-35C-131.1,-35 -132.2,-34.2 -132.8,-32.7C-132.9,-32.4 -133,-32.4 -133.3,-32.5L-133.9,-32.7C-134.2,-32.8 -134.2,-32.9 -134.1,-33.2C-133.3,-35.1 -131.8,-36.2 -129.2,-36.2" style="fill:rgb(30,41,59);fill-rule:nonzero;"/>
            </g>
            <g transform="matrix(4.16667,0,0,4.16667,1298.23,459.394)">
                <path d="M-138.3,-36.7C-135.2,-36.7 -133.5,-35 -133.5,-32.3L-133.5,-27.1C-133.5,-24.4 -135.3,-22.7 -138.3,-22.7C-141.3,-22.7 -143.1,-24.4 -143.1,-27.1L-143.1,-32.3C-143.1,-35 -141.4,-36.7 -138.3,-36.7M-138.3,-35.4C-140.5,-35.4 -141.8,-34.2 -141.8,-32.3L-141.8,-27.1C-141.8,-25.1 -140.5,-24 -138.3,-24C-136.1,-24 -134.8,-25.2 -134.8,-27.1L-134.8,-32.3C-134.8,-34.2 -136.1,-35.4 -138.3,-35.4" style="fill:rgb(30,41,59);fill-rule:nonzero;"/>
            </g>
            <g transform="matrix(4.16667,0,0,4.16667,1385.28,457.402)">
                <path d="M-147.8,-36.2C-145.1,-36.2 -143.5,-34.3 -143.5,-32.1C-143.5,-29.2 -145.4,-28.3 -148.5,-27.1C-149.9,-26.6 -151.4,-26 -151.4,-24.5L-151.4,-23.8L-144,-23.8C-143.7,-23.8 -143.6,-23.7 -143.6,-23.4L-143.6,-22.9C-143.6,-22.6 -143.7,-22.5 -144,-22.5L-152.4,-22.5C-152.7,-22.5 -152.8,-22.6 -152.8,-22.9L-152.8,-24.3C-152.8,-26.8 -150.8,-27.7 -148.9,-28.5C-146.9,-29.3 -145,-29.9 -145,-32.2C-145,-33.8 -146.2,-35 -147.9,-35C-149.7,-35 -150.8,-34.2 -151.4,-32.7C-151.5,-32.4 -151.6,-32.4 -151.9,-32.5L-152.5,-32.7C-152.8,-32.8 -152.8,-32.9 -152.7,-33.2C-151.9,-35.1 -150.4,-36.2 -147.8,-36.2" style="fill:rgb(30,41,59);fill-rule:nonzero;"/>
            </g>
            <g transform="matrix(4.16667,0,0,4.16667,1430.66,457.402)">
                <path d="M-147.8,-36.2C-145.1,-36.2 -143.5,-34.3 -143.5,-32.1C-143.5,-29.2 -145.4,-28.3 -148.5,-27.1C-149.9,-26.6 -151.4,-26 -151.4,-24.5L-151.4,-23.8L-144,-23.8C-143.7,-23.8 -143.6,-23.7 -143.6,-23.4L-143.6,-22.9C-143.6,-22.6 -143.7,-22.5 -144,-22.5L-152.4,-22.5C-152.7,-22.5 -152.8,-22.6 -152.8,-22.9L-152.8,-24.3C-152.8,-26.8 -150.8,-27.7 -148.9,-28.5C-146.9,-29.3 -145,-29.9 -145,-32.2C-145,-33.8 -146.2,-35 -147.9,-35C-149.7,-35 -150.8,-34.2 -151.4,-32.7C-151.5,-32.4 -151.6,-32.4 -151.9,-32.5L-152.5,-32.7C-152.8,-32.8 -152.8,-32.9 -152.7,-33.2C-151.9,-35.1 -150.4,-36.2 -147.8,-36.2" style="fill:rgb(30,41,59);fill-rule:nonzero;"/>
            </g>
            <path d="M48.4,402.2L48.4,441C48.4,452.5 41.7,459.7 29.4,459.7C18.3,459.7 12.6,453.7 10.7,443.8C10.5,443.1 10.6,442.7 11.3,442.4L12.9,441.8C13.5,441.6 13.9,441.7 14.2,442.4C15.8,451.1 20.2,456 29.4,456C39.4,456 44.7,450.3 44.7,440.8L44.7,402C44.7,401.3 44.9,401 45.7,401L47.5,401C48.2,401.2 48.4,401.5 48.4,402.2Z" style="fill:rgb(30,41,59);fill-rule:nonzero;"/>
            <path d="M92.7,418.1L92.7,452.6C92.7,455 92.1,456 89.7,457C86.6,458.2 82.2,459.6 75.1,459.6C64.2,459.6 59.4,453.8 59.4,444L59.4,418C59.4,417.4 59.6,417.1 60.4,417.1L61.9,417.1C62.6,417.1 62.9,417.3 62.9,418L62.9,443.8C62.9,452 66.7,456.4 75.4,456.4C80.8,456.4 84.8,455.4 87.5,454.3C89,453.6 89.2,452.8 89.2,451.6L89.2,418C89.2,417.4 89.4,417.1 90.2,417.1L91.8,417.1C92.4,417.2 92.7,417.4 92.7,418.1Z" style="fill:rgb(30,41,59);fill-rule:nonzero;"/>
            <path d="M106.8,458.5L105.2,458.5C104.5,458.5 104.3,458.3 104.3,457.5L104.3,399.7C104.3,399 104.5,398.7 105.2,398.7L106.8,398.7C107.5,398.7 107.7,398.9 107.7,399.7L107.7,457.5C107.7,458.3 107.5,458.5 106.8,458.5Z" style="fill:rgb(30,41,59);fill-rule:nonzero;"/>
            <path d="M152.3,418.1L152.3,461.5C152.3,472.1 147.6,478.9 135.5,478.9C126.9,478.9 122.4,475 119.8,469.8C119.3,469.1 119.5,468.6 120.2,468.3L121.2,467.7C122,467.3 122.3,467.5 122.7,468.1C125,472.6 128.4,475.8 135.4,475.8C144.9,475.8 148.8,470.4 148.8,461.7L148.8,456.5C146,457.5 141.6,459.2 134.7,459.2C123.8,459.2 119,453.4 119,443.6L119,418.2C119,417.6 119.2,417.3 120,417.3L121.5,417.3C122.2,417.3 122.5,417.5 122.5,418.2L122.5,443.5C122.5,451.7 126.3,456.1 135,456.1C141.5,456.1 146.1,454.4 148.8,453.4L148.8,418.3C148.8,417.7 149,417.4 149.8,417.4L151.4,417.4C152.1,417.2 152.3,417.4 152.3,418.1Z" style="fill:rgb(30,41,59);fill-rule:nonzero;"/>
            <path d="M202.8,400.1C213.5,400.1 220.6,407.8 220.6,417C220.6,429.4 211.7,433.1 200.2,437.6C192.9,440.3 185.8,443.1 185.8,451.1L185.8,455.1L219.3,455.1C220.1,455.1 220.3,455.3 220.3,456.1L220.3,457.6C220.3,458.4 220.1,458.6 219.3,458.6L183,458.6C182.3,458.6 182,458.3 182,457.6L182,451.8C182,441.1 190.4,437.6 199.2,434.2C208.1,430.8 216.8,428 216.8,417.3C216.8,409.8 211.2,403.7 202.8,403.7C194,403.7 189,407.3 185.8,414.6C185.5,415.2 185.2,415.4 184.5,415.2L182.9,414.6C182.2,414.3 182,414 182.3,413.3C185.9,404.6 192.1,400.1 202.8,400.1Z" style="fill:rgb(30,41,59);fill-rule:nonzero;"/>
            <path d="M266.1,402.3L266.1,403.8C266.1,404.5 265.9,404.8 265.1,404.8L236.8,404.8L234.9,424.7L250,424.7C262.4,424.7 268.2,432.4 268.2,441.8C268.2,451.6 261.2,459.8 249.1,459.8C237.8,459.8 231.4,455.3 228.5,447.2C228.3,446.5 228.4,446.2 229.1,445.9L230.8,445.3C231.4,445 231.8,445.1 232.1,445.9C234.4,452.6 239.7,456.2 249.1,456.2C258.6,456.2 264.4,449.7 264.4,441.7C264.4,434.1 259.6,428.1 249.9,428.1L232.2,428.1C231.2,428.1 230.8,427.7 231,426.7L233.4,403C233.5,401.6 234,401.2 235.3,401.2L265.2,401.2C265.8,401.2 266.1,401.5 266.1,402.3Z" style="fill:rgb(30,41,59);fill-rule:nonzero;"/>
            <path d="M285.1,408.4L285.1,417.2L297.9,417.2C298.6,417.2 298.9,417.4 298.9,418.1L298.9,419.5C298.9,420.1 298.7,420.4 297.9,420.4L285.1,420.4L285.1,443.8C285.1,454.2 288.1,456.4 297.8,456.4C298.5,456.4 298.8,456.6 298.8,457.4L298.8,458.8C298.8,459.5 298.6,459.8 297.8,459.8C285.9,459.9 281.7,456.5 281.7,444L281.7,420.5L273,420.5C272.4,420.5 272.1,420.3 272.1,419.6L272.1,418.2C272.1,417.6 272.3,417.3 273,417.3L281.7,417.3L281.7,408.5C281.7,407.9 281.9,407.6 282.7,407.6L284.2,407.6C284.9,407.5 285.1,407.8 285.1,408.4Z" style="fill:rgb(30,41,59);fill-rule:nonzero;"/>
            <path d="M308.7,399.8L308.7,418.8C312,417.3 316.9,416 322.9,416C333.7,416 338.5,421.8 338.5,431.6L338.5,457.6C338.5,458.3 338.3,458.6 337.6,458.6L336,458.6C335.3,458.6 335,458.4 335,457.6L335,431.8C335,423.7 331.2,419.3 322.5,419.3C316.9,419.3 312.2,420.5 308.7,422.2L308.7,457.6C308.7,458.3 308.5,458.6 307.7,458.6L306.2,458.6C305.5,458.6 305.2,458.4 305.2,457.6L305.2,399.8C305.2,399.1 305.4,398.8 306.2,398.8L307.7,398.8C308.4,398.8 308.7,399 308.7,399.8Z" style="fill:rgb(30,41,59);fill-rule:nonzero;"/>
            <path d="M375.1,408.4L375.1,417.2L387.9,417.2C388.6,417.2 388.9,417.4 388.9,418.1L388.9,419.5C388.9,420.1 388.7,420.4 387.9,420.4L375.1,420.4L375.1,443.8C375.1,454.2 378.1,456.4 387.8,456.4C388.5,456.4 388.8,456.6 388.8,457.4L388.8,458.8C388.8,459.5 388.6,459.8 387.8,459.8C375.9,459.9 371.7,456.5 371.7,444L371.7,420.5L363,420.5C362.4,420.5 362.1,420.3 362.1,419.6L362.1,418.2C362.1,417.6 362.3,417.3 363,417.3L371.7,417.3L371.7,408.5C371.7,407.9 371.9,407.6 372.7,407.6L374.2,407.6C374.8,407.5 375.1,407.8 375.1,408.4Z" style="fill:rgb(30,41,59);fill-rule:nonzero;"/>
            <path d="M411.1,416C421.8,416 428.4,421.4 428.4,430.2L428.4,445.5C428.4,454.3 421.7,459.6 411.1,459.6C400.6,459.6 393.8,454.3 393.8,445.5L393.8,430.2C393.8,421.4 400.6,416 411.1,416ZM411.1,419.1C402.9,419.1 397.3,423.3 397.3,430.1L397.3,445.5C397.3,452.3 402.9,456.5 411.1,456.5C419.5,456.5 425,452.3 425,445.5L425,430.1C425,423.3 419.5,419.1 411.1,419.1Z" style="fill:rgb(30,41,59);fill-rule:nonzero;"/>
            <path d="M499.4,458.5L497.9,458.5C496.7,458.5 496.3,458.3 496.1,457.6L488.9,439.8L462.1,439.8L455,457.6C454.8,458.3 454.4,458.5 453.1,458.5L451.7,458.5C450.9,458.5 450.7,458.1 451,457.5L473.4,401.7C473.7,401 474,400.7 474.8,400.7L476.4,400.7C477.1,400.7 477.5,400.9 477.8,401.7L500.2,457.5C500.4,458.1 500.2,458.5 499.4,458.5ZM475.6,404.5L475.4,404.5C475.4,404.9 475.3,406.4 474.8,408L463.3,436.6L487.9,436.6L476.4,408C475.9,406.4 475.7,404.9 475.6,404.5Z" style="fill:rgb(30,41,59);fill-rule:nonzero;"/>
            <path d="M539.1,418.1L539.1,452.6C539.1,455 538.5,456 536.1,457C533,458.2 528.6,459.6 521.5,459.6C510.6,459.6 505.8,453.8 505.8,444L505.8,418C505.8,417.4 506,417.1 506.8,417.1L508.3,417.1C509,417.1 509.3,417.3 509.3,418L509.3,443.8C509.3,452 513.1,456.4 521.8,456.4C527.2,456.4 531.2,455.4 533.9,454.3C535.4,453.6 535.6,452.8 535.6,451.6L535.6,418C535.6,417.4 535.8,417.1 536.6,417.1L538.2,417.1C538.9,417.2 539.1,417.4 539.1,418.1Z" style="fill:rgb(30,41,59);fill-rule:nonzero;"/>
            <path d="M565.9,416C571.7,416 576.2,417.1 579.1,418.3C581.7,419.4 582.2,420.2 582.2,422.7L582.2,461.4C582.2,472 577.5,478.8 565.5,478.8C556.9,478.8 552.5,474.9 549.8,469.7C549.4,469 549.5,468.5 550.2,468.2L551.3,467.6C552,467.2 552.3,467.4 552.8,468C555.1,472.5 558.4,475.7 565.4,475.7C574.9,475.7 578.7,470.3 578.7,461.6L578.7,456.1C576.6,457 571.2,459 564.3,459C553.6,459 548.8,453.2 548.8,443.5L548.8,432.2C549,421.7 554.4,416 565.9,416ZM566.2,419.2C556.8,419.2 552.5,423.6 552.5,432.4L552.5,443.5C552.5,451.4 556.4,455.9 564.9,455.9C571.8,455.9 576.9,453.7 578.9,452.9L578.9,423.7C578.9,422.1 578.7,421.8 576.9,421C574.5,420.2 570.8,419.2 566.2,419.2Z" style="fill:rgb(30,41,59);fill-rule:nonzero;"/>
            <path d="M626.4,418.1L626.4,452.6C626.4,455 625.8,456 623.4,457C620.3,458.2 615.9,459.6 608.8,459.6C597.9,459.6 593.1,453.8 593.1,444L593.1,418C593.1,417.4 593.3,417.1 594.1,417.1L595.6,417.1C596.3,417.1 596.6,417.3 596.6,418L596.6,443.8C596.6,452 600.4,456.4 609.1,456.4C614.5,456.4 618.5,455.4 621.2,454.3C622.7,453.6 622.9,452.8 622.9,451.6L622.9,418C622.9,417.4 623.1,417.1 623.9,417.1L625.5,417.1C626.1,417.2 626.4,417.4 626.4,418.1Z" style="fill:rgb(30,41,59);fill-rule:nonzero;"/>
            <path d="M651.5,416C660.8,416 665.4,419.5 667.6,424.9C667.9,425.5 667.8,425.9 667.1,426.3L665.9,426.8C665.2,427.1 664.9,427 664.5,426.4C662.7,422 659.4,419.2 651.5,419.2C643.5,419.2 639.4,422.1 639.4,427.6C639.4,435.3 645.4,435.8 653,436.5C661.4,437.3 668.3,438.9 668.3,448C668.3,455.3 663.2,459.8 652.2,459.8C643.6,459.8 637.8,456.9 635,449.6C634.8,449 634.9,448.6 635.6,448.3L637,447.9C637.6,447.7 637.9,447.7 638.2,448.5C640.4,454.5 645.1,456.7 652.2,456.7C661,456.7 665,453.6 665,448.1C665,441.3 659.6,440.3 652.3,439.5C644,438.7 636.1,437.9 636.1,427.6C636.1,420.3 641.2,416 651.5,416Z" style="fill:rgb(30,41,59);fill-rule:nonzero;"/>
            <path d="M685,408.4L685,417.2L697.8,417.2C698.5,417.2 698.8,417.4 698.8,418.1L698.8,419.5C698.8,420.1 698.6,420.4 697.8,420.4L685,420.4L685,443.8C685,454.2 688,456.4 697.7,456.4C698.4,456.4 698.7,456.6 698.7,457.4L698.7,458.8C698.7,459.5 698.5,459.8 697.7,459.8C685.8,459.9 681.6,456.5 681.6,444L681.6,420.5L672.9,420.5C672.3,420.5 672,420.3 672,419.6L672,418.2C672,417.6 672.2,417.3 672.9,417.3L681.6,417.3L681.6,408.5C681.6,407.9 681.8,407.6 682.6,407.6L684.1,407.6C684.8,407.5 685,407.8 685,408.4Z" style="fill:rgb(30,41,59);fill-rule:nonzero;"/>
            <path d="M760.2,402.3L760.2,403.8C760.2,404.5 760,404.8 759.2,404.8L730.9,404.8L729,424.7L744.1,424.7C756.5,424.7 762.3,432.4 762.3,441.8C762.3,451.6 755.3,459.8 743.2,459.8C731.9,459.8 725.5,455.3 722.6,447.2C722.4,446.5 722.5,446.2 723.2,445.9L724.9,445.3C725.5,445 725.9,445.1 726.2,445.9C728.5,452.6 733.8,456.2 743.2,456.2C752.7,456.2 758.5,449.7 758.5,441.7C758.5,434.1 753.7,428.1 744,428.1L726.3,428.1C725.3,428.1 724.9,427.7 725.1,426.7L727.5,403C727.6,401.6 728.1,401.2 729.4,401.2L759.3,401.2C760,401.2 760.2,401.5 760.2,402.3Z" style="fill:rgb(30,41,59);fill-rule:nonzero;"/>
            <path d="M779.3,408.4L779.3,417.2L792.1,417.2C792.8,417.2 793.1,417.4 793.1,418.1L793.1,419.5C793.1,420.1 792.9,420.4 792.1,420.4L779.3,420.4L779.3,443.8C779.3,454.2 782.3,456.4 792,456.4C792.7,456.4 793,456.6 793,457.4L793,458.8C793,459.5 792.8,459.8 792,459.8C780.1,459.9 775.9,456.5 775.9,444L775.9,420.5L767.2,420.5C766.6,420.5 766.3,420.3 766.3,419.6L766.3,418.2C766.3,417.6 766.5,417.3 767.2,417.3L775.9,417.3L775.9,408.5C775.9,407.9 776.1,407.6 776.9,407.6L778.4,407.6C779,407.5 779.3,407.8 779.3,408.4Z" style="fill:rgb(30,41,59);fill-rule:nonzero;"/>
            <g transform="matrix(1,0,0,1,0.13984,0)">
                <path d="M802.8,399.8L802.8,418.8C806.1,417.3 811,416 817,416C827.8,416 832.6,421.8 832.6,431.6L832.6,457.6C832.6,458.3 832.4,458.6 831.7,458.6L830.1,458.6C829.4,458.6 829.1,458.4 829.1,457.6L829.1,431.8C829.1,423.7 825.3,419.3 816.6,419.3C811,419.3 806.3,420.5 802.8,422.2L802.8,457.6C802.8,458.3 802.6,458.6 801.8,458.6L800.3,458.6C799.6,458.6 799.3,458.4 799.3,457.6L799.3,399.8C799.3,399.1 799.5,398.8 800.3,398.8L801.8,398.8C802.6,398.8 802.8,399 802.8,399.8Z" style="fill:rgb(30,41,59);fill-rule:nonzero;"/>
            </g>
        </g>
    </g>
</svg>
