<?xml version="1.0" encoding="UTF-8" standalone="no"?>
<!DOCTYPE svg PUBLIC "-//W3C//DTD SVG 1.1//EN" "http://www.w3.org/Graphics/SVG/1.1/DTD/svg11.dtd">
<svg width="100%" height="100%" viewBox="0 0 840 368" version="1.1" xmlns="http://www.w3.org/2000/svg" xmlns:xlink="http://www.w3.org/1999/xlink" xml:space="preserve" xmlns:serif="http://www.serif.com/" style="fill-rule:evenodd;clip-rule:evenodd;stroke-linejoin:round;stroke-miterlimit:2;">
    <g transform="matrix(1,0,0,1,-1.41134,-114.169)">
        <g>
            <g transform="matrix(1,0,0,1,-79.9674,-53.1483)">
                <g transform="matrix(4.16667,0,0,4.16667,211.374,331.6)">
                    <path d="M-14.1,-4.9C-23.2,-1 -27.3,3.8 -29.1,6.6C-29.8,5 -30.3,3.3 -30.7,1.6C-27.2,-1.1 -20.4,-5.4 -14.8,-7.4C-14.7,-7.4 -14.4,-6.3 -14.1,-4.9M-12.7,0.1C-20.4,3.5 -25.2,8 -26.8,10.7C-27.6,9.5 -28.3,8.3 -28.9,6.9C-25.7,4 -19.3,-0.3 -13.4,-2.5C-13.4,-2.4 -13,-0.8 -12.7,0.1M-11.3,4.8C-18.9,8.1 -21.9,12 -23.6,14.6C-24.7,13.5 -25.7,12.3 -26.6,11.1C-23.5,8.3 -17.8,4.7 -12,2.6C-12,2.5 -11.7,3.6 -11.3,4.8M-15.8,-12.2C-15.6,-11.3 -15.4,-10.5 -15.2,-9.7C-23.5,-6.1 -28.7,-1.4 -30.7,1.3C-30.9,0.2 -31,-0.9 -31.1,-2L-31.1,-3.5C-27.6,-6.1 -20.6,-10.5 -15.8,-12.2M-17.7,-21.7C-17.6,-20.9 -17.4,-20.1 -17.3,-19.3C-23.7,-16.4 -27.8,-12.6 -30.1,-10.7C-29.5,-12.8 -28.5,-14.8 -27.4,-16.7C-24.4,-18.3 -19.1,-21.2 -17.7,-21.7M-16.8,-17C-16.6,-16.2 -16.5,-15.4 -16.3,-14.6C-24.9,-11 -28.9,-6.6 -31.1,-4.1C-31,-6.2 -30.7,-8.2 -30.2,-10.2C-26.9,-12.1 -20.2,-15.8 -16.8,-17M-18.4,-25.3C-18.3,-24.7 -18.2,-24.1 -18.1,-23.4C-22,-21.3 -24.9,-18.8 -26.9,-17.5C-24.7,-20.7 -21.8,-23.4 -18.4,-25.3M-9.6,9.7C-16.2,13.1 -19.3,17.9 -19.3,17.9C-20.7,17 -22.1,15.9 -23.3,14.8C-20.3,12.3 -15.4,9.1 -10.4,7.3C-10.5,7.2 -10,8.8 -9.6,9.7" style="fill:rgb(29,29,27);fill-rule:nonzero;"/>
                </g>
                <g transform="matrix(4.16667,0,0,4.16667,310.808,484.381)">
                    <path d="M-24.7,-22.6C-30.8,-21.4 -35,-19 -38.3,-16.4C-36.5,-15.8 -34.7,-15.3 -32.7,-15.1C-30.6,-17.6 -27.5,-19.6 -22.9,-20.8C-16.9,-22.4 -12.2,-22.6 -12.2,-22.6C-12.2,-22.6 -17,-24 -24.7,-22.6M-32.3,-15C-31.4,-14.9 -29.6,-14.9 -28.6,-15C-24.9,-15.2 -21.4,-16.2 -18.2,-17.9C-17.3,-18.4 -16.5,-18.9 -15.7,-19.4C-22,-19.5 -28.5,-18.2 -32.3,-15M-20.6,-25.8C-20.6,-25.8 -27.5,-26.4 -34.7,-23.6C-39.3,-21.8 -42.8,-18.5 -42.8,-18.5C-41.5,-17.7 -40.1,-17 -38.6,-16.5C-34.2,-21.7 -27.7,-24.5 -20.6,-25.8" style="fill:rgb(29,29,27);fill-rule:nonzero;"/>
                </g>
                <g transform="matrix(4.16667,0,0,4.16667,278.026,196.417)">
                    <path d="M-21.2,24.6C-24.6,25.5 -27.5,26.5 -30,27.6C-30.3,26.3 -30.7,24.8 -31.1,23.3C-30,22.9 -27.8,22.2 -26.5,22C-26.2,22 -25.9,22.1 -25.9,22.4C-25.8,22.7 -25.7,23.1 -25.6,23.4C-24.4,23 -23.2,22.7 -22,22.4C-12.7,20 -1.9,19.7 4.3,20.6C5,22.1 5.7,23.7 6.3,25.4C0.8,22.9 -11.2,22 -21.2,24.6M-20.2,29.6C-23.3,30.4 -26.2,31.4 -28.7,32.5C-28.9,31.6 -29.2,30.7 -29.5,29.7L-30,27.9C-28.8,27.5 -26.5,26.8 -25,26.6C-24.7,26.6 -24.5,26.7 -24.4,27L-24,28.2C-22.9,27.9 -21.7,27.5 -20.5,27.2C-11.2,24.8 0.3,24.8 6.6,25.9C7.1,27.4 7.6,28.9 8.1,30.5C2.5,28 -10.3,27.1 -20.2,29.6M-19.1,34.5C-22.3,35.3 -25,36.3 -27.3,37.2C-27.7,36 -28.1,34.6 -28.6,33C-27.2,32.5 -24.7,31.7 -23.1,31.5C-22.9,31.5 -22.6,31.6 -22.5,31.8L-22,33C-21.2,32.8 -20.4,32.5 -19.5,32.3C-10.3,30 2,29.9 8.2,31.1C8.6,32.6 9,34.2 9.3,35.8C3.8,33.1 -9.6,32 -19.1,34.5M-22.4,19.7C-25.7,20.5 -28.6,21.6 -31.2,22.7C-31.4,21.9 -31.6,21.1 -31.8,20.2C-31.9,19.6 -32.1,19 -32.2,18.4C-30.8,18 -29.2,17.5 -27.7,17.2C-27.4,17.1 -27.1,17.3 -27.1,17.6L-26.9,18.6C-25.7,18.3 -24.5,17.9 -23.3,17.6C-14.9,15.5 -4.6,14.9 1.6,15.5C2.4,16.9 3.2,18.4 3.9,19.9C-1.6,17.6 -12.1,17.1 -22.4,19.7M-25,10.3C-28.1,11 -30.9,12 -33.3,13.1C-33.5,12.3 -33.9,9.5 -33.9,9.5C-32.3,8.7 -30.3,8 -28.8,7.7C-28.4,7.6 -28.1,7.9 -28.1,8.2L-28.1,8.7C-27.2,8.4 -26.2,8.2 -25.3,7.9C-17.6,6.1 -9.6,5.8 -5.1,6.3C-4,7.4 -3,8.7 -2,10C-7.3,8.4 -16.6,8.4 -25,10.3M-23.7,15C-27,15.8 -29.9,16.8 -32.3,17.9C-32.5,17.1 -33.1,13.9 -33.1,13.9L-33.1,13.7C-31.9,13.3 -29.8,12.6 -28.4,12.3C-28.1,12.2 -27.8,12.4 -27.7,12.8L-27.6,13.8C-26.5,13.5 -25.3,13.2 -24.1,12.9C-17.6,11.3 -7.3,10 -1.5,10.6C-0.5,12 0.5,13.4 1.4,14.9C-4.3,13 -14.9,12.8 -23.7,15M-25.6,5.9C-28.8,6.5 -31.6,7.7 -34,9C-34.1,8.4 -34.3,7.1 -34.3,7.1C-34.3,6.9 -34.5,5.7 -34.6,5.5C-33.2,4.7 -30.5,3.5 -28.6,3C-28.2,2.9 -27.8,3.2 -27.9,3.6L-27.9,3.9C-27.6,3.8 -27.3,3.7 -27,3.6C-22.3,2.2 -13.4,1.3 -9.4,1.9C-8,3.1 -6.7,4.3 -5.4,5.7C-9.9,4.7 -17,4.2 -25.6,5.9M-16.7,39.2C-20.1,39.8 -23.1,40.9 -25.6,42.2C-25.9,41.3 -26.5,39.8 -27.2,37.7C-25.6,37.1 -22.8,36.4 -20.9,36.1C-20.7,36 -20.4,36.2 -20.3,36.4L-19.7,37.5C-19.4,37.4 -19.1,37.3 -18.8,37.3C-9.8,35 3.5,35 9.5,36.3C9.6,37 10,39 10.2,40.9C5.7,39.6 -3.6,37 -16.7,39.2M-26.7,-2.4C-31,-1.7 -33.9,0 -35.4,0.7C-35.5,-0.2 -35.8,-2.3 -35.9,-3.1L-25,-5.6L-24.2,-5.5C-21.3,-4.8 -18.5,-3.7 -15.7,-2.2C-19.6,-3.1 -23,-3.1 -26.7,-2.4M-14.9,-1.7C-13.2,-0.7 -11.6,0.4 -10,1.7C-14.6,0.3 -22.7,0.4 -27.7,1.8C-30.3,2.6 -32.8,3.8 -34.8,5C-35,4 -35.2,2.2 -35.4,1.2C-34,0.5 -30.4,-1.1 -27.9,-1.4C-27.5,-1.5 -27.1,-1.1 -27.3,-0.7C-24.3,-1.4 -18.8,-2.1 -14.9,-1.7" style="fill:rgb(29,29,27);fill-rule:nonzero;"/>
                </g>
                <g transform="matrix(-0.293472,4.15632,4.15632,0.293472,364.916,349.979)">
                    <path d="M8.4,-39.7C8.4,-39.7 8.1,-37.2 8,-35.6C7.6,-27.3 8.4,-20.6 8.4,-20.6L4.8,-21.1C5.3,-27.4 6.4,-33.5 8.4,-39.7" style="fill:rgb(29,29,27);fill-rule:nonzero;"/>
                </g>
                <g transform="matrix(4.16667,0,0,4.16667,648.125,212.4)">
                    <path d="M-60.9,18.1L-47.8,18.1L-47.8,23.1L-41.3,23.1L-41.3,18.1L-38,18.1L-38,12.5L-41.3,12.5L-41.3,-3.4L-47.8,-3.4L-60.9,12.4L-60.9,18.1ZM-47.8,4.4L-47.8,12.5L-54.5,12.5L-47.8,4.4ZM-70.3,31.8L-38,31.8L-38,26.2L-70.4,26.2L-70.3,31.8ZM-70.3,-3.4L-63.8,-3.4L-63.8,23.1L-70.3,23.1L-70.3,-3.4Z" style="fill:rgb(29,29,27);fill-rule:nonzero;"/>
                </g>
                <g transform="matrix(4.16667,0,0,4.16667,1022.44,231.17)">
                    <path d="M-101,-6.7L-105.5,8.6C-105.7,9.3 -106.1,9.5 -106.9,9.5L-108,9.5C-108.8,9.5 -109.2,9.3 -109.4,8.6L-111.8,0C-112.2,-1.6 -112.4,-3.3 -112.4,-3.5L-112.6,-3.5C-112.6,-3.4 -112.8,-1.7 -113.2,0L-115.6,8.6C-115.8,9.3 -116.2,9.5 -117,9.5L-118.1,9.5C-118.9,9.5 -119.3,9.3 -119.5,8.6L-124.2,-6.7C-124.5,-7.7 -124.4,-7.9 -123.4,-7.9L-122.1,-7.9C-120.9,-7.9 -120.4,-7.7 -120.3,-6.9L-118.4,0.6C-118.1,2.1 -117.9,4.5 -117.8,4.7L-117.6,4.7C-117.6,4.5 -117.3,2.2 -116.9,0.6L-114.7,-6.7C-114.4,-7.6 -114.2,-7.8 -113,-7.8L-112.2,-7.8C-111,-7.8 -110.8,-7.6 -110.5,-6.8L-108.3,0.6C-107.8,2.3 -107.6,4.6 -107.6,4.7L-107.4,4.7C-107.4,4.5 -107.3,2.5 -106.8,0.6L-105,-6.9C-104.8,-7.8 -104.4,-7.9 -103.1,-7.9L-102,-7.9C-100.9,-7.9 -100.7,-7.7 -101,-6.7" style="fill:rgb(29,29,27);fill-rule:nonzero;"/>
                </g>
                <g transform="matrix(4.16667,0,0,4.16667,1094.13,243.786)">
                    <path d="M-108.7,-11.4C-103.7,-11.4 -101,-8.9 -101,-4.7L-101,0.3C-101,4.5 -103.7,7 -108.7,7C-113.7,7 -116.4,4.4 -116.4,0.3L-116.4,-4.7C-116.4,-8.9 -113.6,-11.4 -108.7,-11.4M-108.7,-7.9C-111.1,-7.9 -112.5,-6.8 -112.5,-4.7L-112.5,0.3C-112.5,2.3 -111.1,3.5 -108.7,3.5C-106.2,3.5 -104.8,2.3 -104.8,0.3L-104.8,-4.7C-104.8,-6.8 -106.2,-7.9 -108.7,-7.9" style="fill:rgb(29,29,27);fill-rule:nonzero;"/>
                </g>
                <g transform="matrix(4.16667,0,0,4.16667,1241.8,240.002)">
                    <path d="M-124.5,-10.5C-123.7,-10.5 -123.5,-10.3 -123.5,-9.5L-123.5,-8C-123.5,-7.2 -123.8,-7 -124.5,-7L-125.7,-7C-127,-7 -128,-6.9 -128.9,-6.6C-129.2,-6.5 -129.2,-6.4 -129.2,-6.2L-129.2,6.3C-129.2,7.1 -129.4,7.3 -130.2,7.3L-132,7.3C-132.8,7.3 -133,7 -133,6.3L-133,-7.6C-133,-8.7 -132.8,-9.1 -131.7,-9.5C-130.5,-10 -128.4,-10.4 -125.5,-10.5L-124.5,-10.5Z" style="fill:rgb(29,29,27);fill-rule:nonzero;"/>
                </g>
                <g transform="matrix(4.16667,0,0,4.16667,1288.51,53.1504)">
                    <path d="M-129.5,52.2L-131.3,52.2C-132.1,52.2 -132.3,51.9 -132.3,51.2L-132.3,28.4C-132.3,27.6 -132.1,27.4 -131.3,27.4L-129.5,27.4C-128.7,27.4 -128.5,27.7 -128.5,28.4L-128.5,51.1C-128.5,51.9 -128.7,52.2 -129.5,52.2" style="fill:rgb(29,29,27);fill-rule:nonzero;"/>
                </g>
                <g transform="matrix(4.16667,0,0,4.16667,1375.1,191.523)">
                    <path d="M-138.8,1.1C-137.2,1.1 -135.7,1.4 -134.8,1.5L-134.8,-4.8C-134.8,-5.6 -134.6,-5.8 -133.8,-5.8L-132,-5.8C-131.2,-5.8 -131,-5.5 -131,-4.8L-131,16.6C-131,17.7 -131.3,18 -132.3,18.4C-133.6,18.9 -135.5,19.5 -138.6,19.5C-143.6,19.5 -145.9,17 -145.9,12.7L-145.9,8.1C-145.8,3.6 -143.4,1.1 -138.8,1.1M-138,4.7C-140.7,4.7 -141.9,5.9 -141.9,8.3L-141.9,12.7C-141.9,14.9 -140.6,16.1 -138.1,16.1C-136.9,16.1 -135.9,16 -135,15.7C-134.8,15.6 -134.7,15.5 -134.7,15.3L-134.7,5.1C-135.6,4.9 -136.7,4.7 -138,4.7" style="fill:rgb(29,29,27);fill-rule:nonzero;"/>
                </g>
                <g transform="matrix(4.16667,0,0,4.16667,1510.18,243.786)">
                    <path d="M-153.3,-11.4C-149.4,-11.4 -147.2,-10 -146.1,-7.8C-145.7,-7 -145.9,-6.6 -146.6,-6.3L-148.1,-5.7C-148.8,-5.4 -149.1,-5.5 -149.5,-6.2C-150.1,-7.2 -151,-7.9 -153.1,-7.9C-155.3,-7.9 -156.3,-7.3 -156.3,-6.1C-156.3,-4.5 -155,-4.3 -152.4,-4C-148.4,-3.6 -145.6,-2.7 -145.6,1.4C-145.6,4.7 -148.1,7 -152.8,7C-156.8,7 -159.3,5.6 -160.3,2.9C-160.6,2.2 -160.4,1.8 -159.6,1.5L-158.1,1C-157.4,0.8 -157.1,0.9 -156.7,1.6C-156.2,2.9 -155,3.4 -152.9,3.4C-150.5,3.4 -149.3,2.7 -149.3,1.4C-149.3,-0.2 -150.6,-0.5 -153.3,-0.7C-156.6,-1 -160.1,-1.7 -160.1,-6.1C-160.2,-9.2 -157.9,-11.4 -153.3,-11.4" style="fill:rgb(29,29,27);fill-rule:nonzero;"/>
                </g>
                <g transform="matrix(4.16667,0,0,4.16667,917.456,371.256)">
                    <path d="M-89.7,-18.5L-89.7,-18C-89.7,-17.7 -89.8,-17.6 -90,-17.6L-96.2,-17.6L-96.2,-13.1L-90.9,-13.1C-90.7,-13.1 -90.6,-13 -90.6,-12.8L-90.6,-12.3C-90.6,-12 -90.7,-12 -90.9,-12L-96.2,-12L-96.2,-6.7C-96.2,-6.4 -96.3,-6.3 -96.5,-6.3L-97.1,-6.3C-97.4,-6.3 -97.5,-6.4 -97.5,-6.7L-97.5,-18.4C-97.5,-18.7 -97.4,-18.7 -97.1,-18.7L-90,-18.7C-89.8,-18.8 -89.7,-18.7 -89.7,-18.5" style="fill:rgb(29,29,27);fill-rule:nonzero;"/>
                </g>
                <g transform="matrix(4.16667,0,0,4.16667,936.29,371.256)">
                    <path d="M-91.8,-18.5L-91.8,-7.6L-85.9,-7.6C-85.7,-7.6 -85.6,-7.5 -85.6,-7.2L-85.6,-6.7C-85.6,-6.4 -85.7,-6.3 -85.9,-6.3L-92.8,-6.3C-92.9,-6.4 -93,-6.5 -93,-6.7L-93,-18.4C-93,-18.7 -92.9,-18.7 -92.6,-18.7L-92,-18.7C-91.8,-18.8 -91.8,-18.7 -91.8,-18.5" style="fill:rgb(29,29,27);fill-rule:nonzero;"/>
                </g>
                <g transform="matrix(4.16667,0,0,4.16667,1048.84,371.256)">
                    <path d="M-103.8,-18.5L-103.8,-18C-103.8,-17.7 -103.9,-17.6 -104.1,-17.6L-110.3,-17.6L-110.3,-13.3L-104.9,-13.3C-104.7,-13.3 -104.6,-13.2 -104.6,-12.9L-104.6,-12.4C-104.6,-12.1 -104.7,-12.1 -104.9,-12.1L-110.3,-12.1L-110.3,-7.6L-103.9,-7.6C-103.7,-7.6 -103.6,-7.5 -103.6,-7.2L-103.6,-6.7C-103.6,-6.4 -103.7,-6.3 -103.9,-6.3L-111.2,-6.3C-111.5,-6.3 -111.6,-6.4 -111.6,-6.7L-111.6,-18.4C-111.6,-18.7 -111.5,-18.7 -111.2,-18.7L-104.1,-18.7C-103.9,-18.8 -103.8,-18.7 -103.8,-18.5" style="fill:rgb(29,29,27);fill-rule:nonzero;"/>
                </g>
                <g transform="matrix(4.16667,0,0,4.16667,1136.45,371.256)">
                    <path d="M-113.2,-18.5L-113.2,-6.7C-113.2,-6.4 -113.3,-6.3 -113.6,-6.3L-114.2,-6.3C-114.4,-6.3 -114.5,-6.3 -114.6,-6.5L-120.2,-14.5C-120.8,-15.5 -121.3,-16.6 -121.6,-17L-121.7,-17C-121.7,-16.5 -121.5,-15.2 -121.5,-13.9L-121.5,-6.7C-121.5,-6.4 -121.6,-6.3 -121.8,-6.3L-122.3,-6.3C-122.6,-6.3 -122.7,-6.4 -122.7,-6.7L-122.7,-18.4C-122.7,-18.7 -122.6,-18.7 -122.3,-18.7L-121.7,-18.7C-121.5,-18.7 -121.4,-18.6 -121.3,-18.5L-115.8,-10.6C-115.1,-9.5 -114.6,-8.4 -114.2,-8L-114.1,-8C-114.1,-8.6 -114.3,-9.9 -114.3,-11.3L-114.3,-18.4C-114.3,-18.6 -114.2,-18.7 -113.9,-18.7L-113.4,-18.7C-113.3,-18.8 -113.2,-18.7 -113.2,-18.5" style="fill:rgb(29,29,27);fill-rule:nonzero;"/>
                </g>
                <g transform="matrix(4.16667,0,0,4.16667,1187.63,375.711)">
                    <path d="M-118.7,-20.1C-116.3,-20.1 -115,-19.2 -114.1,-17.4C-114,-17.2 -114,-17.1 -114.3,-16.9L-114.8,-16.7C-115,-16.6 -115.1,-16.6 -115.3,-16.9C-116,-18.2 -116.9,-18.9 -118.7,-18.9C-120.8,-18.9 -121.9,-18.1 -121.9,-16.6C-121.9,-14.8 -120.1,-14.5 -118.3,-14.3C-116.2,-14.1 -113.9,-13.7 -113.9,-10.9C-113.9,-8.6 -115.5,-7.2 -118.7,-7.2C-121.2,-7.2 -122.6,-8.2 -123.5,-10.2C-123.6,-10.5 -123.5,-10.6 -123.3,-10.7L-122.8,-10.9C-122.6,-11 -122.5,-10.9 -122.3,-10.7C-121.7,-9.2 -120.5,-8.4 -118.8,-8.4C-116.5,-8.4 -115.3,-9.2 -115.3,-10.9C-115.3,-12.7 -116.9,-13 -118.7,-13.1C-120.9,-13.3 -123.3,-13.7 -123.3,-16.6C-123.2,-18.7 -121.6,-20.1 -118.7,-20.1" style="fill:rgb(29,29,27);fill-rule:nonzero;"/>
                </g>
                <g transform="matrix(4.16667,0,0,4.16667,1304.9,349.88)">
                    <path d="M-131.3,-10.5C-131.3,-9.1 -131.9,-8.2 -132.9,-7.7C-131.6,-7.3 -130.8,-6.3 -130.8,-4.6C-130.8,-2.4 -132.2,-1.3 -134.4,-1.3L-139.5,-1.3C-139.8,-1.3 -139.9,-1.4 -139.9,-1.7L-139.9,-13.4C-139.9,-13.7 -139.8,-13.7 -139.5,-13.7L-134.6,-13.7C-132.5,-13.7 -131.3,-12.6 -131.3,-10.5M-134.8,-12.5L-138.7,-12.5L-138.7,-8.2L-134.8,-8.2C-133.4,-8.2 -132.6,-8.9 -132.6,-10.4C-132.6,-11.8 -133.3,-12.5 -134.8,-12.5M-134.5,-7L-138.7,-7L-138.7,-2.4L-134.5,-2.4C-133,-2.4 -132.2,-3.2 -132.2,-4.7C-132.2,-6.2 -133,-7 -134.5,-7" style="fill:rgb(29,29,27);fill-rule:nonzero;"/>
                </g>
                <g transform="matrix(4.16667,0,0,4.16667,1359.12,289.19)">
                    <path d="M-137.1,12.4C-134.8,12.4 -133.7,11.1 -133.7,9.1L-133.7,1.2C-133.7,0.9 -133.6,0.9 -133.3,0.9L-132.7,0.9C-132.4,0.9 -132.3,1 -132.3,1.2L-132.3,9.1C-132.3,11.8 -133.9,13.6 -137,13.6C-140.1,13.6 -141.7,11.8 -141.7,9.1L-141.7,1.2C-141.7,0.9 -141.6,0.9 -141.3,0.9L-140.7,0.9C-140.4,0.9 -140.3,1 -140.3,1.2L-140.3,9.1C-140.5,11.1 -139.4,12.4 -137.1,12.4" style="fill:rgb(29,29,27);fill-rule:nonzero;"/>
                </g>
                <g transform="matrix(4.16667,0,0,4.16667,1482.06,346.589)">
                    <path d="M-150.2,-9.3C-150.2,-7.4 -151.3,-6.1 -153,-5.9C-152.5,-5.7 -152.2,-5.3 -151.9,-4.7L-149.9,-0.9C-149.8,-0.7 -149.8,-0.5 -150.1,-0.5L-150.7,-0.5C-151.1,-0.5 -151.3,-0.6 -151.4,-0.8L-153.1,-4.2C-153.6,-5.3 -154.2,-5.7 -155.6,-5.7L-158,-5.7L-158,-0.8C-158,-0.5 -158.1,-0.4 -158.3,-0.4L-158.9,-0.4C-159.2,-0.4 -159.3,-0.5 -159.3,-0.8L-159.3,-12.5C-159.3,-12.8 -159.2,-12.8 -158.9,-12.8L-153.9,-12.8C-151.6,-12.9 -150.2,-11.6 -150.2,-9.3M-154,-11.7L-157.9,-11.7L-157.9,-6.9L-154,-6.9C-152.4,-6.9 -151.5,-7.8 -151.5,-9.3C-151.6,-10.8 -152.5,-11.7 -154,-11.7" style="fill:rgb(29,29,27);fill-rule:nonzero;"/>
                </g>
                <g transform="matrix(4.16667,0,0,4.16667,1569.02,326.125)">
                    <path d="M-159.6,-1.6L-159.6,0.6C-159.6,3.1 -161.3,4.8 -164.4,4.8C-167.5,4.8 -169.2,3.1 -169.2,0.4L-169.2,-3.7C-169.2,-6.4 -167.5,-8.1 -164.4,-8.1C-161.7,-8.1 -160.4,-7 -159.7,-5.1C-159.6,-4.8 -159.7,-4.7 -159.9,-4.6L-160.4,-4.4C-160.6,-4.3 -160.8,-4.4 -160.9,-4.6C-161.4,-6.1 -162.3,-6.9 -164.4,-6.9C-166.7,-6.9 -167.9,-5.7 -167.9,-3.7L-167.9,0.3C-167.9,2.3 -166.7,3.5 -164.3,3.5C-162,3.5 -160.7,2.3 -160.7,0.5L-160.7,-0.8L-164.1,-0.8C-164.4,-0.8 -164.5,-0.9 -164.5,-1.2L-164.5,-1.7C-164.5,-2 -164.4,-2 -164.1,-2L-159.8,-2C-159.7,-2 -159.6,-1.9 -159.6,-1.6" style="fill:rgb(29,29,27);fill-rule:nonzero;"/>
                </g>
                <g transform="matrix(4.16667,0,0,4.16667,655.282,458.862)">
                    <path d="M-61.6,-15.8L-61.6,-13.5C-61.6,-10.8 -63.4,-9 -66.8,-9C-70.2,-9 -72,-10.8 -72,-13.8L-72,-18.3C-72,-21.3 -70.2,-23.1 -66.8,-23.1C-63.9,-23.1 -62.4,-22 -61.8,-19.9C-61.7,-19.6 -61.8,-19.5 -62,-19.4L-62.6,-19.2C-62.9,-19.1 -63,-19.2 -63.1,-19.4C-63.6,-21.1 -64.7,-21.8 -66.8,-21.8C-69.3,-21.8 -70.6,-20.5 -70.6,-18.3L-70.6,-13.8C-70.6,-11.6 -69.3,-10.3 -66.8,-10.3C-64.3,-10.3 -62.9,-11.6 -62.9,-13.6L-62.9,-15L-66.6,-15C-66.9,-15 -67,-15.1 -67,-15.4L-67,-15.9C-67,-16.2 -66.9,-16.3 -66.6,-16.3L-62,-16.3C-61.7,-16.2 -61.6,-16.1 -61.6,-15.8" style="fill:rgb(29,29,27);fill-rule:nonzero;"/>
                </g>
                <g transform="matrix(4.16667,0,0,4.16667,736.803,507.693)">
                    <path d="M-70.4,-34L-70.4,-33.5C-70.4,-33.2 -70.5,-33.1 -70.8,-33.1L-77.5,-33.1L-77.5,-28.4L-71.7,-28.4C-71.4,-28.4 -71.3,-28.3 -71.3,-28L-71.3,-27.5C-71.3,-27.2 -71.4,-27.1 -71.7,-27.1L-77.5,-27.1L-77.5,-22.2L-70.6,-22.2C-70.3,-22.2 -70.2,-22.1 -70.2,-21.8L-70.2,-21.3C-70.2,-21 -70.3,-20.9 -70.6,-20.9L-78.5,-20.9C-78.8,-20.9 -78.9,-21 -78.9,-21.3L-78.9,-34C-78.9,-34.3 -78.8,-34.4 -78.5,-34.4L-70.8,-34.4C-70.5,-34.4 -70.4,-34.3 -70.4,-34" style="fill:rgb(29,29,27);fill-rule:nonzero;"/>
                </g>
                <g transform="matrix(4.16667,0,0,4.16667,828.464,480.997)">
                    <path d="M-80.2,-24.1C-80.2,-22 -81.4,-20.7 -83.3,-20.4C-82.7,-20.1 -82.4,-19.7 -82.1,-19.1L-80,-15C-79.9,-14.8 -79.9,-14.6 -80.2,-14.6L-80.8,-14.6C-81.3,-14.6 -81.4,-14.7 -81.5,-14.9L-83.3,-18.6C-83.9,-19.8 -84.5,-20.2 -86,-20.2L-88.6,-20.2L-88.6,-14.9C-88.6,-14.6 -88.7,-14.5 -89,-14.5L-89.6,-14.5C-89.9,-14.5 -90,-14.6 -90,-14.9L-90,-27.6C-90,-27.9 -89.9,-28 -89.6,-28L-84.2,-28C-81.7,-28 -80.2,-26.6 -80.2,-24.1M-84.3,-26.7L-88.5,-26.7L-88.5,-21.5L-84.3,-21.5C-82.6,-21.5 -81.6,-22.4 -81.6,-24.1C-81.6,-25.8 -82.6,-26.7 -84.3,-26.7" style="fill:rgb(29,29,27);fill-rule:nonzero;"/>
                </g>
                <g transform="matrix(4.16667,0,0,4.16667,939.255,507.693)">
                    <path d="M-92.1,-34L-92.1,-21.3C-92.1,-21 -92.2,-20.9 -92.5,-20.9L-93,-20.9C-93.3,-20.9 -93.4,-21 -93.4,-21.3L-93.4,-29C-93.4,-30 -93.3,-31.1 -93.2,-32.4L-93.3,-32.4C-93.8,-31.3 -94.2,-30.4 -94.8,-29.4L-97.7,-24.3C-97.8,-24.1 -97.9,-24 -98.1,-24L-98.5,-24C-98.7,-24 -98.8,-24 -99,-24.3L-101.9,-29.4C-102.5,-30.3 -102.8,-31.2 -103.3,-32.3L-103.4,-32.3C-103.2,-31 -103.2,-30 -103.2,-28.9L-103.2,-21.2C-103.2,-20.9 -103.3,-20.8 -103.6,-20.8L-104.1,-20.8C-104.4,-20.8 -104.5,-20.9 -104.5,-21.2L-104.5,-33.9C-104.5,-34.2 -104.4,-34.3 -104.1,-34.3L-103.6,-34.3C-103.3,-34.3 -103.2,-34.2 -103.1,-34L-98.4,-25.7L-93.7,-34C-93.5,-34.3 -93.5,-34.3 -93.2,-34.3L-92.6,-34.3C-92.2,-34.4 -92.1,-34.3 -92.1,-34" style="fill:rgb(29,29,27);fill-rule:nonzero;"/>
                </g>
                <g transform="matrix(4.16667,0,0,4.16667,1038.05,408.753)">
                    <path d="M-102.7,2.8L-103.3,2.8C-103.8,2.8 -103.9,2.7 -104,2.5L-105.4,-1.1L-111.3,-1.1L-112.7,2.5C-112.8,2.8 -112.9,2.8 -113.4,2.8L-113.9,2.8C-114.2,2.8 -114.2,2.7 -114.1,2.4L-109,-10.4C-108.9,-10.7 -108.8,-10.7 -108.5,-10.7L-107.9,-10.7C-107.6,-10.7 -107.5,-10.6 -107.4,-10.4L-102.3,2.5C-102.3,2.7 -102.4,2.8 -102.7,2.8M-108.2,-9.4C-108.3,-9.3 -108.3,-8.7 -108.5,-8.1L-110.8,-2.3L-105.6,-2.3L-107.9,-8.1C-108.2,-8.8 -108.2,-9.4 -108.2,-9.4" style="fill:rgb(29,29,27);fill-rule:nonzero;"/>
                </g>
                <g transform="matrix(4.16667,0,0,4.16667,1129.28,507.693)">
                    <path d="M-112.4,-34L-112.4,-21.3C-112.4,-21 -112.5,-20.9 -112.8,-20.9L-113.4,-20.9C-113.6,-20.9 -113.7,-20.9 -113.8,-21.1L-119.9,-29.8C-120.6,-30.8 -121.1,-32.1 -121.4,-32.5L-121.5,-32.5C-121.5,-32 -121.3,-30.5 -121.3,-29.1L-121.3,-21.2C-121.3,-20.9 -121.4,-20.8 -121.7,-20.8L-122.3,-20.8C-122.6,-20.8 -122.7,-20.9 -122.7,-21.2L-122.7,-33.9C-122.7,-34.2 -122.6,-34.3 -122.3,-34.3L-121.7,-34.3C-121.5,-34.3 -121.4,-34.2 -121.3,-34.1L-115.4,-25.6C-114.6,-24.5 -114.1,-23.2 -113.7,-22.7L-113.6,-22.7C-113.6,-23.3 -113.8,-24.7 -113.8,-26.2L-113.8,-33.9C-113.8,-34.2 -113.7,-34.3 -113.4,-34.3L-112.8,-34.3C-112.5,-34.4 -112.4,-34.3 -112.4,-34" style="fill:rgb(29,29,27);fill-rule:nonzero;"/>
                </g>
                <g transform="matrix(4.16667,0,0,4.16667,1224.8,507.693)">
                    <path d="M-122.7,-34L-127.7,-26.4L-127.7,-21.3C-127.7,-21 -127.8,-20.9 -128.1,-20.9L-128.7,-20.9C-129,-20.9 -129.1,-21 -129.1,-21.3L-129.1,-26.4L-134.1,-34C-134.2,-34.2 -134.2,-34.4 -133.9,-34.4L-133.1,-34.4C-132.7,-34.4 -132.5,-34.4 -132.4,-34.1L-128.4,-27.9L-124.4,-34.1C-124.2,-34.4 -124.1,-34.4 -123.7,-34.4L-123,-34.4C-122.6,-34.4 -122.5,-34.3 -122.7,-34" style="fill:rgb(29,29,27);fill-rule:nonzero;"/>
                </g>
                <g transform="matrix(4.16667,0,0,4.16667,1239.65,472)">
                    <path d="M-124.3,-17.6L-124.3,-17.5C-124.3,-16.9 -124.5,-16.8 -125,-16.8L-125.1,-16.8C-125.7,-16.8 -125.9,-17 -125.9,-17.5L-125.9,-17.6C-125.9,-18.2 -125.7,-18.4 -125.1,-18.4L-125,-18.4C-124.4,-18.4 -124.3,-18.2 -124.3,-17.6" style="fill:rgb(29,29,27);fill-rule:nonzero;"/>
                </g>
                <g transform="matrix(4.16667,0,0,4.16667,1303.61,510.55)">
                    <path d="M-131.1,-35.4C-128.4,-35.4 -126.8,-33.5 -126.8,-31.3C-126.8,-28.4 -128.7,-27.5 -131.8,-26.3C-133.2,-25.8 -134.7,-25.2 -134.7,-23.7L-134.7,-23L-127.3,-23C-127,-23 -126.9,-22.9 -126.9,-22.6L-126.9,-22.1C-126.9,-21.8 -127,-21.7 -127.3,-21.7L-135.7,-21.7C-136,-21.7 -136.1,-21.8 -136.1,-22.1L-136.1,-23.5C-136.1,-26 -134.1,-26.9 -132.2,-27.7C-130.2,-28.5 -128.3,-29.1 -128.3,-31.4C-128.3,-33 -129.5,-34.2 -131.2,-34.2C-133,-34.2 -134.1,-33.4 -134.7,-31.9C-134.8,-31.6 -134.9,-31.6 -135.2,-31.7L-135.8,-31.9C-136.1,-32 -136.1,-32.1 -136,-32.4C-135.2,-34.3 -133.7,-35.4 -131.1,-35.4" style="fill:rgb(29,29,27);fill-rule:nonzero;"/>
                </g>
                <g transform="matrix(4.16667,0,0,4.16667,1388.13,512.542)">
                    <path d="M-140.2,-35.9C-137.1,-35.9 -135.4,-34.2 -135.4,-31.5L-135.4,-26.3C-135.4,-23.6 -137.2,-21.9 -140.2,-21.9C-143.2,-21.9 -145,-23.6 -145,-26.3L-145,-31.5C-145,-34.2 -143.3,-35.9 -140.2,-35.9M-140.2,-34.6C-142.4,-34.6 -143.7,-33.4 -143.7,-31.5L-143.7,-26.3C-143.7,-24.3 -142.4,-23.2 -140.2,-23.2C-138,-23.2 -136.7,-24.4 -136.7,-26.3L-136.7,-31.5C-136.7,-33.4 -138,-34.6 -140.2,-34.6" style="fill:rgb(29,29,27);fill-rule:nonzero;"/>
                </g>
                <g transform="matrix(4.16667,0,0,4.16667,1477.22,510.55)">
                    <path d="M-149.7,-35.4C-147,-35.4 -145.4,-33.5 -145.4,-31.3C-145.4,-28.4 -147.3,-27.5 -150.4,-26.3C-151.8,-25.8 -153.3,-25.2 -153.3,-23.7L-153.3,-23L-145.9,-23C-145.6,-23 -145.5,-22.9 -145.5,-22.6L-145.5,-22.1C-145.5,-21.8 -145.6,-21.7 -145.9,-21.7L-154.3,-21.7C-154.6,-21.7 -154.7,-21.8 -154.7,-22.1L-154.7,-23.5C-154.7,-26 -152.7,-26.9 -150.8,-27.7C-148.8,-28.5 -146.9,-29.1 -146.9,-31.4C-146.9,-33 -148.1,-34.2 -149.8,-34.2C-151.6,-34.2 -152.7,-33.4 -153.3,-31.9C-153.4,-31.6 -153.5,-31.6 -153.8,-31.7L-154.4,-31.9C-154.7,-32 -154.7,-32.1 -154.6,-32.4C-153.8,-34.3 -152.3,-35.4 -149.7,-35.4" style="fill:rgb(29,29,27);fill-rule:nonzero;"/>
                </g>
                <g transform="matrix(4.16667,0,0,4.16667,1567.88,507.693)">
                    <path d="M-159.4,-34L-159.4,-21.3C-159.4,-21 -159.5,-20.9 -159.8,-20.9L-160.4,-20.9C-160.7,-20.9 -160.8,-21 -160.8,-21.3L-160.8,-32.7L-164.8,-30.5C-165.1,-30.3 -165.2,-30.4 -165.3,-30.6L-165.6,-31.1C-165.7,-31.3 -165.7,-31.5 -165.4,-31.6L-160.8,-34.2C-160.6,-34.3 -160.5,-34.4 -160.3,-34.4L-159.8,-34.4C-159.5,-34.4 -159.4,-34.3 -159.4,-34" style="fill:rgb(29,29,27);fill-rule:nonzero;"/>
                </g>
            </g>
            <g>
                <path d="M808.3,397.1L806.7,397.1C805.9,397.1 805.7,397.4 805.7,398.1L805.7,458.7C805.7,459.5 806,459.7 806.7,459.7L808.3,459.7C809.1,459.7 809.3,459.4 809.3,458.7L809.3,421.6C812.9,419.8 817.9,418.6 823.8,418.6C832.9,418.6 836.9,423.3 836.9,431.7L836.9,458.8C836.9,459.6 837.2,459.8 837.9,459.8L839.6,459.8C840.3,459.8 840.5,459.5 840.5,458.8L840.5,431.6C840.5,421.4 835.5,415.3 824.2,415.3C817.9,415.3 812.8,416.7 809.3,418.3L809.3,398.3C809.3,397.4 809.1,397.1 808.3,397.1M783.6,406.3L782,406.3C781.2,406.3 781,406.6 781,407.2L781,416.4L771.9,416.4C771.2,416.4 771,416.7 771,417.3L771,418.7C771,419.4 771.3,419.6 771.9,419.6L781,419.6L781,444.2C781,457.3 785.4,460.9 797.9,460.8C798.7,460.8 798.9,460.5 798.9,459.8L798.9,458.4C798.9,457.6 798.6,457.4 797.9,457.4C787.8,457.4 784.6,455.1 784.6,444.2L784.6,419.7L798.1,419.7C798.9,419.7 799.1,419.4 799.1,418.8L799.1,417.4C799.1,416.7 798.8,416.5 798.1,416.5L784.6,416.5L784.6,407.3C784.6,406.5 784.4,406.3 783.6,406.3M725.8,412.2C725.5,413 725.7,413.2 726.5,413.6L728.2,414.2C728.9,414.5 729.2,414.3 729.6,413.6C733,406 738.2,402.2 747.4,402.2C756.2,402.2 762.1,408.5 762.1,416.4C762.1,427.7 753,430.6 743.7,434.2C734.5,437.8 725.7,441.4 725.7,452.6L725.7,458.7C725.7,459.5 726,459.8 726.8,459.8L764.9,459.8C765.7,459.8 766,459.5 766,458.7L766,457.2C766,456.4 765.7,456.2 764.9,456.2L729.8,456.2L729.8,452C729.8,443.6 737.2,440.7 744.9,437.9C757,433.2 766.3,429.4 766.3,416.3C766.3,406.7 758.9,398.6 747.6,398.6C736.2,398.5 729.7,403.2 725.8,412.2M712.2,399.7L710.8,399.7C710,399.7 709.8,399.8 709.3,400.1L686.5,412.8C685.9,413.1 685.7,413.6 686.1,414.2L686.9,415.6C687.3,416.4 687.7,416.4 688.4,416L709.3,404.4L709.3,458.6C709.3,459.4 709.6,459.7 710.4,459.7L712.2,459.7C713,459.7 713.2,459.4 713.2,458.6L713.2,400.7C713.2,399.9 713,399.7 712.2,399.7M646.8,406.3L645.2,406.3C644.4,406.3 644.2,406.6 644.2,407.2L644.2,416.4L635,416.4C634.3,416.4 634.1,416.7 634.1,417.3L634.1,418.7C634.1,419.4 634.4,419.6 635,419.6L644.1,419.6L644.1,444.2C644.1,457.3 648.5,460.9 661,460.8C661.8,460.8 662,460.5 662,459.8L662,458.4C662,457.6 661.7,457.4 661,457.4C650.8,457.4 647.7,455.1 647.7,444.2L647.7,419.7L661.2,419.7C662,419.7 662.2,419.4 662.2,418.8L662.2,417.4C662.2,416.7 661.9,416.5 661.2,416.5L647.7,416.5L647.7,407.3C647.8,406.5 647.5,406.3 646.8,406.3M596.4,427.3C596.4,438 604.7,438.9 613.4,439.7C621,440.5 626.7,441.6 626.7,448.7C626.7,454.4 622.6,457.7 613.3,457.7C605.9,457.7 601,455.3 598.7,449.1C598.4,448.3 598.1,448.3 597.4,448.5L596,448.9C595.3,449.2 595.2,449.6 595.4,450.3C598.4,457.9 604.5,461 613.4,461C624.9,461 630.2,456.3 630.2,448.6C630.2,439.1 622.9,437.4 614.1,436.6C606.1,435.8 599.9,435.3 599.9,427.3C599.9,421.5 604.2,418.5 612.6,418.5C620.9,418.5 624.4,421.5 626.2,426C626.6,426.6 626.9,426.8 627.6,426.4L628.9,425.9C629.6,425.6 629.7,425.1 629.4,424.5C627,418.8 622.2,415.2 612.5,415.2C601.8,415.2 596.4,419.7 596.4,427.3M585.3,416.4L583.6,416.4C582.8,416.4 582.6,416.7 582.6,417.3L582.6,452.5C582.6,453.8 582.4,454.6 580.8,455.4C578,456.5 573.8,457.6 568.1,457.6C559,457.6 555,453 555,444.4L555,417.3C555,416.6 554.7,416.4 554,416.4L552.4,416.4C551.6,416.4 551.4,416.7 551.4,417.3L551.4,444.5C551.4,454.7 556.4,460.8 567.8,460.8C575.2,460.8 579.9,459.4 583.1,458.1C585.6,457 586.2,456 586.2,453.4L586.2,417.2C586.3,416.7 586,416.4 585.3,416.4M534.3,420.5C536.2,421.3 536.4,421.6 536.4,423.3L536.4,453.9C534.4,454.7 529,457 521.8,457C512.8,457 508.8,452.3 508.8,444L508.8,432.3C508.8,423.2 513.4,418.5 523.2,418.5C528,418.5 531.9,419.6 534.3,420.5M505.2,432.3L505.2,444.1C505.2,454.3 510.2,460.3 521.4,460.3C528.6,460.3 534.3,458.2 536.5,457.3L536.5,463.1C536.5,472.2 532.5,477.9 522.5,477.9C515.2,477.9 511.7,474.6 509.3,469.9C508.9,469.2 508.5,469.1 507.8,469.5L506.6,470.1C505.8,470.4 505.8,470.9 506.2,471.7C509,477.2 513.6,481.3 522.6,481.3C535.2,481.3 540.1,474.1 540.1,463L540.1,422.4C540.1,419.7 539.5,418.9 536.8,417.7C533.8,416.4 529,415.2 522.9,415.2C510.8,415.2 505.2,421.2 505.2,432.3M493.9,416.4L492.2,416.4C491.4,416.4 491.2,416.7 491.2,417.3L491.2,452.5C491.2,453.8 491,454.6 489.4,455.4C486.6,456.5 482.4,457.6 476.7,457.6C467.6,457.6 463.6,453 463.6,444.4L463.6,417.3C463.6,416.6 463.3,416.4 462.6,416.4L461,416.4C460.2,416.4 460,416.7 460,417.3L460,444.5C460,454.7 465,460.8 476.4,460.8C483.8,460.8 488.5,459.4 491.7,458.1C494.2,457 494.8,456 494.8,453.4L494.8,417.2C494.8,416.7 494.6,416.4 493.9,416.4M429.1,406.8L441.1,436.8L415.3,436.8L427.3,406.8C427.9,405.1 428,403.6 428,403.2L428.3,403.2C428.4,403.6 428.5,405.1 429.1,406.8M454,458.7L430.6,400.2C430.3,399.4 429.9,399.2 429.2,399.2L427.5,399.2C426.7,399.2 426.4,399.5 426.1,400.2L402.7,458.7C402.4,459.3 402.6,459.7 403.5,459.7L404.9,459.7C406.2,459.7 406.6,459.5 406.8,458.8L414.2,440.1L442.3,440.1L449.8,458.8C450,459.6 450.4,459.7 451.7,459.7L453.2,459.7C454.1,459.7 454.2,459.3 454,458.7M380.3,435.6L357.2,435.6C356.4,435.6 356.1,435.9 356.1,436.6L356.1,438C356.1,438.8 356.4,439 357.2,439L380.3,439C381.1,439 381.3,438.7 381.3,438L381.3,436.6C381.3,435.8 381.1,435.6 380.3,435.6M319.1,406.3L317.5,406.3C316.7,406.3 316.5,406.6 316.5,407.2L316.5,416.4L307.4,416.4C306.7,416.4 306.5,416.7 306.5,417.3L306.5,418.7C306.5,419.4 306.8,419.6 307.4,419.6L316.5,419.6L316.5,444.2C316.5,457.3 320.9,460.9 333.4,460.8C334.2,460.8 334.4,460.5 334.4,459.8L334.4,458.4C334.4,457.6 334.1,457.4 333.4,457.4C323.2,457.4 320.1,455.1 320.1,444.2L320.1,419.7L333.5,419.7C334.3,419.7 334.5,419.4 334.5,418.8L334.5,417.4C334.5,416.7 334.2,416.5 333.5,416.5L320.1,416.5L320.1,407.3C320.1,406.5 319.8,406.3 319.1,406.3M268.7,427.3C268.7,438 277,438.9 285.7,439.7C293.3,440.5 299,441.6 299,448.7C299,454.4 294.9,457.7 285.6,457.7C278.2,457.7 273.3,455.3 271,449.1C270.7,448.3 270.4,448.3 269.7,448.5L268.3,448.9C267.6,449.2 267.5,449.6 267.7,450.3C270.7,457.9 276.8,461 285.7,461C297.2,461 302.5,456.3 302.5,448.6C302.5,439.1 295.2,437.4 286.4,436.6C278.4,435.8 272.2,435.3 272.2,427.3C272.2,421.5 276.5,418.5 284.9,418.5C293.2,418.5 296.7,421.5 298.5,426C298.9,426.6 299.2,426.8 299.9,426.4L301.2,425.9C301.9,425.6 302,425.1 301.7,424.5C299.3,418.8 294.5,415.2 284.8,415.2C274.1,415.2 268.7,419.7 268.7,427.3M255.5,399.7L254.1,399.7C253.3,399.7 253.1,399.8 252.6,400.1L229.8,412.8C229.2,413.1 229,413.6 229.4,414.2L230.2,415.6C230.6,416.4 231,416.4 231.7,416L252.6,404.4L252.6,458.6C252.6,459.4 252.9,459.7 253.7,459.7L255.5,459.7C256.3,459.7 256.5,459.4 256.5,458.6L256.5,400.7C256.6,399.9 256.3,399.7 255.5,399.7M220.7,415.2C220.7,404.7 214.6,398.5 202.6,398.5C189.9,398.5 184.3,403.6 181.5,413.1C181.2,413.9 181.4,414.3 182.2,414.5L183.8,415C184.6,415.3 184.9,415.2 185.2,414.4C187.7,405.9 192,402.1 202.5,402.1C212.1,402.1 216.9,406.8 216.9,415.4C216.9,421.6 213.4,427.2 205.6,427.2L191.9,427.2C191.1,427.2 190.9,427.5 190.9,428.3L190.9,429.7C190.9,430.5 191.2,430.7 191.9,430.7L206,430.7C214.2,430.7 218.5,435.7 218.5,443.4C218.5,452 213.7,457.3 202.5,457.3C191.3,457.3 187.2,453 184.7,444.6C184.4,443.8 184.1,443.7 183.3,443.9L181.7,444.5C180.9,444.8 180.8,445.1 181,445.9C183.8,455.5 189.4,461 202.5,461C216.3,461 222.5,454.1 222.5,443.5C222.5,436.3 219.3,430.8 212.6,428.8C218.3,426.5 220.7,421 220.7,415.2M149.1,416.4L147.4,416.4C146.6,416.4 146.4,416.7 146.4,417.3L146.4,454.1C143.6,455.2 138.8,457 131.9,457C122.8,457 118.8,452.4 118.8,443.8L118.8,417.3C118.8,416.6 118.5,416.4 117.8,416.4L116.2,416.4C115.4,416.4 115.2,416.7 115.2,417.3L115.2,444C115.2,454.2 120.2,460.3 131.6,460.3C138.9,460.3 143.4,458.6 146.4,457.5L146.4,463C146.4,472.1 142.3,477.8 132.4,477.8C125.1,477.8 121.5,474.5 119.1,469.8C118.7,469.1 118.3,469 117.5,469.4L116.4,470C115.6,470.3 115.5,470.8 116,471.6C118.8,477.1 123.5,481.2 132.5,481.2C145.2,481.2 150.1,474 150.1,462.9L150.1,417.4C150.1,416.7 149.8,416.4 149.1,416.4M103.3,458.7L103.3,398.1C103.3,397.3 103.1,397.1 102.4,397.1L100.7,397.1C99.9,397.1 99.8,397.4 99.8,398.1L99.8,458.7C99.8,459.5 100,459.7 100.7,459.7L102.4,459.7C103.1,459.7 103.3,459.5 103.3,458.7M86.6,416.4L84.9,416.4C84.1,416.4 83.9,416.7 83.9,417.3L83.9,452.5C83.9,453.8 83.7,454.6 82.1,455.4C79.3,456.5 75.1,457.6 69.4,457.6C60.3,457.6 56.3,453 56.3,444.4L56.3,417.3C56.3,416.6 56,416.4 55.3,416.4L53.7,416.4C52.9,416.4 52.7,416.7 52.7,417.3L52.7,444.5C52.7,454.7 57.7,460.8 69.1,460.8C76.5,460.8 81.2,459.4 84.4,458.1C86.9,457 87.5,456 87.5,453.4L87.5,417.2C87.5,416.7 87.3,416.4 86.6,416.4M40.2,399.7L38.3,399.7C37.5,399.7 37.3,400 37.3,400.7L37.3,441.4C37.3,451.3 31.7,457.3 21.2,457.3C11.6,457.3 7,452.1 5.3,443C5,442.2 4.6,442.1 3.9,442.3L2.2,442.9C1.4,443.2 1.3,443.6 1.5,444.3C3.5,454.7 9.5,461 21.1,461C34,461 41.1,453.4 41.1,441.4L41.1,400.7C41.2,399.9 40.9,399.7 40.2,399.7" style="fill:rgb(29,29,27);fill-rule:nonzero;"/>
            </g>
        </g>
    </g>
</svg>
