<?xml version="1.0" encoding="UTF-8" standalone="no"?>
<!DOCTYPE svg PUBLIC "-//W3C//DTD SVG 1.1//EN" "http://www.w3.org/Graphics/SVG/1.1/DTD/svg11.dtd">
<svg width="100%" height="100%" viewBox="0 0 550 284" version="1.1" xmlns="http://www.w3.org/2000/svg" xmlns:xlink="http://www.w3.org/1999/xlink" xml:space="preserve" xmlns:serif="http://www.serif.com/" style="fill-rule:evenodd;clip-rule:evenodd;stroke-linejoin:round;stroke-miterlimit:2;">
    <g transform="matrix(1,0,0,1,-273.413,2.84217e-14)">
        <g transform="matrix(1,0,0,1,-81.3787,-167.317)">
            <g transform="matrix(4.16667,0,0,4.16667,648.125,212.4)">
                <path d="M-60.9,18.1L-47.8,18.1L-47.8,23.1L-41.3,23.1L-41.3,18.1L-38,18.1L-38,12.5L-41.3,12.5L-41.3,-3.4L-47.8,-3.4L-60.9,12.4L-60.9,18.1ZM-47.8,4.4L-47.8,12.5L-54.5,12.5L-47.8,4.4ZM-70.3,31.8L-38,31.8L-38,26.2L-70.4,26.2L-70.3,31.8ZM-70.3,-3.4L-63.8,-3.4L-63.8,23.1L-70.3,23.1L-70.3,-3.4Z" style="fill:rgb(30,41,59);fill-rule:nonzero;"/>
            </g>
            <g transform="matrix(4.16667,0,0,4.16667,1022.44,231.17)">
                <path d="M-101,-6.7L-105.5,8.6C-105.7,9.3 -106.1,9.5 -106.9,9.5L-108,9.5C-108.8,9.5 -109.2,9.3 -109.4,8.6L-111.8,0C-112.2,-1.6 -112.4,-3.3 -112.4,-3.5L-112.6,-3.5C-112.6,-3.4 -112.8,-1.7 -113.2,0L-115.6,8.6C-115.8,9.3 -116.2,9.5 -117,9.5L-118.1,9.5C-118.9,9.5 -119.3,9.3 -119.5,8.6L-124.2,-6.7C-124.5,-7.7 -124.4,-7.9 -123.4,-7.9L-122.1,-7.9C-120.9,-7.9 -120.4,-7.7 -120.3,-6.9L-118.4,0.6C-118.1,2.1 -117.9,4.5 -117.8,4.7L-117.6,4.7C-117.6,4.5 -117.3,2.2 -116.9,0.6L-114.7,-6.7C-114.4,-7.6 -114.2,-7.8 -113,-7.8L-112.2,-7.8C-111,-7.8 -110.8,-7.6 -110.5,-6.8L-108.3,0.6C-107.8,2.3 -107.6,4.6 -107.6,4.7L-107.4,4.7C-107.4,4.5 -107.3,2.5 -106.8,0.6L-105,-6.9C-104.8,-7.8 -104.4,-7.9 -103.1,-7.9L-102,-7.9C-100.9,-7.9 -100.7,-7.7 -101,-6.7" style="fill:rgb(30,41,59);fill-rule:nonzero;"/>
            </g>
            <g transform="matrix(4.16667,0,0,4.16667,1094.13,243.786)">
                <path d="M-108.7,-11.4C-103.7,-11.4 -101,-8.9 -101,-4.7L-101,0.3C-101,4.5 -103.7,7 -108.7,7C-113.7,7 -116.4,4.4 -116.4,0.3L-116.4,-4.7C-116.4,-8.9 -113.6,-11.4 -108.7,-11.4M-108.7,-7.9C-111.1,-7.9 -112.5,-6.8 -112.5,-4.7L-112.5,0.3C-112.5,2.3 -111.1,3.5 -108.7,3.5C-106.2,3.5 -104.8,2.3 -104.8,0.3L-104.8,-4.7C-104.8,-6.8 -106.2,-7.9 -108.7,-7.9" style="fill:rgb(30,41,59);fill-rule:nonzero;"/>
            </g>
            <g transform="matrix(4.16667,0,0,4.16667,1241.8,240.002)">
                <path d="M-124.5,-10.5C-123.7,-10.5 -123.5,-10.3 -123.5,-9.5L-123.5,-8C-123.5,-7.2 -123.8,-7 -124.5,-7L-125.7,-7C-127,-7 -128,-6.9 -128.9,-6.6C-129.2,-6.5 -129.2,-6.4 -129.2,-6.2L-129.2,6.3C-129.2,7.1 -129.4,7.3 -130.2,7.3L-132,7.3C-132.8,7.3 -133,7 -133,6.3L-133,-7.6C-133,-8.7 -132.8,-9.1 -131.7,-9.5C-130.5,-10 -128.4,-10.4 -125.5,-10.5L-124.5,-10.5Z" style="fill:rgb(30,41,59);fill-rule:nonzero;"/>
            </g>
            <g transform="matrix(4.16667,0,0,4.16667,1288.51,53.1504)">
                <path d="M-129.5,52.2L-131.3,52.2C-132.1,52.2 -132.3,51.9 -132.3,51.2L-132.3,28.4C-132.3,27.6 -132.1,27.4 -131.3,27.4L-129.5,27.4C-128.7,27.4 -128.5,27.7 -128.5,28.4L-128.5,51.1C-128.5,51.9 -128.7,52.2 -129.5,52.2" style="fill:rgb(30,41,59);fill-rule:nonzero;"/>
            </g>
            <g transform="matrix(4.16667,0,0,4.16667,1375.1,191.523)">
                <path d="M-138.8,1.1C-137.2,1.1 -135.7,1.4 -134.8,1.5L-134.8,-4.8C-134.8,-5.6 -134.6,-5.8 -133.8,-5.8L-132,-5.8C-131.2,-5.8 -131,-5.5 -131,-4.8L-131,16.6C-131,17.7 -131.3,18 -132.3,18.4C-133.6,18.9 -135.5,19.5 -138.6,19.5C-143.6,19.5 -145.9,17 -145.9,12.7L-145.9,8.1C-145.8,3.6 -143.4,1.1 -138.8,1.1M-138,4.7C-140.7,4.7 -141.9,5.9 -141.9,8.3L-141.9,12.7C-141.9,14.9 -140.6,16.1 -138.1,16.1C-136.9,16.1 -135.9,16 -135,15.7C-134.8,15.6 -134.7,15.5 -134.7,15.3L-134.7,5.1C-135.6,4.9 -136.7,4.7 -138,4.7" style="fill:rgb(30,41,59);fill-rule:nonzero;"/>
            </g>
            <g transform="matrix(4.16667,0,0,4.16667,1510.18,243.786)">
                <path d="M-153.3,-11.4C-149.4,-11.4 -147.2,-10 -146.1,-7.8C-145.7,-7 -145.9,-6.6 -146.6,-6.3L-148.1,-5.7C-148.8,-5.4 -149.1,-5.5 -149.5,-6.2C-150.1,-7.2 -151,-7.9 -153.1,-7.9C-155.3,-7.9 -156.3,-7.3 -156.3,-6.1C-156.3,-4.5 -155,-4.3 -152.4,-4C-148.4,-3.6 -145.6,-2.7 -145.6,1.4C-145.6,4.7 -148.1,7 -152.8,7C-156.8,7 -159.3,5.6 -160.3,2.9C-160.6,2.2 -160.4,1.8 -159.6,1.5L-158.1,1C-157.4,0.8 -157.1,0.9 -156.7,1.6C-156.2,2.9 -155,3.4 -152.9,3.4C-150.5,3.4 -149.3,2.7 -149.3,1.4C-149.3,-0.2 -150.6,-0.5 -153.3,-0.7C-156.6,-1 -160.1,-1.7 -160.1,-6.1C-160.2,-9.2 -157.9,-11.4 -153.3,-11.4" style="fill:rgb(30,41,59);fill-rule:nonzero;"/>
            </g>
            <g transform="matrix(4.16667,0,0,4.16667,917.456,371.256)">
                <path d="M-89.7,-18.5L-89.7,-18C-89.7,-17.7 -89.8,-17.6 -90,-17.6L-96.2,-17.6L-96.2,-13.1L-90.9,-13.1C-90.7,-13.1 -90.6,-13 -90.6,-12.8L-90.6,-12.3C-90.6,-12 -90.7,-12 -90.9,-12L-96.2,-12L-96.2,-6.7C-96.2,-6.4 -96.3,-6.3 -96.5,-6.3L-97.1,-6.3C-97.4,-6.3 -97.5,-6.4 -97.5,-6.7L-97.5,-18.4C-97.5,-18.7 -97.4,-18.7 -97.1,-18.7L-90,-18.7C-89.8,-18.8 -89.7,-18.7 -89.7,-18.5" style="fill:rgb(30,41,59);fill-rule:nonzero;"/>
            </g>
            <g transform="matrix(4.16667,0,0,4.16667,936.29,371.256)">
                <path d="M-91.8,-18.5L-91.8,-7.6L-85.9,-7.6C-85.7,-7.6 -85.6,-7.5 -85.6,-7.2L-85.6,-6.7C-85.6,-6.4 -85.7,-6.3 -85.9,-6.3L-92.8,-6.3C-92.9,-6.4 -93,-6.5 -93,-6.7L-93,-18.4C-93,-18.7 -92.9,-18.7 -92.6,-18.7L-92,-18.7C-91.8,-18.8 -91.8,-18.7 -91.8,-18.5" style="fill:rgb(30,41,59);fill-rule:nonzero;"/>
            </g>
            <g transform="matrix(4.16667,0,0,4.16667,1048.84,371.256)">
                <path d="M-103.8,-18.5L-103.8,-18C-103.8,-17.7 -103.9,-17.6 -104.1,-17.6L-110.3,-17.6L-110.3,-13.3L-104.9,-13.3C-104.7,-13.3 -104.6,-13.2 -104.6,-12.9L-104.6,-12.4C-104.6,-12.1 -104.7,-12.1 -104.9,-12.1L-110.3,-12.1L-110.3,-7.6L-103.9,-7.6C-103.7,-7.6 -103.6,-7.5 -103.6,-7.2L-103.6,-6.7C-103.6,-6.4 -103.7,-6.3 -103.9,-6.3L-111.2,-6.3C-111.5,-6.3 -111.6,-6.4 -111.6,-6.7L-111.6,-18.4C-111.6,-18.7 -111.5,-18.7 -111.2,-18.7L-104.1,-18.7C-103.9,-18.8 -103.8,-18.7 -103.8,-18.5" style="fill:rgb(30,41,59);fill-rule:nonzero;"/>
            </g>
            <g transform="matrix(4.16667,0,0,4.16667,1136.45,371.256)">
                <path d="M-113.2,-18.5L-113.2,-6.7C-113.2,-6.4 -113.3,-6.3 -113.6,-6.3L-114.2,-6.3C-114.4,-6.3 -114.5,-6.3 -114.6,-6.5L-120.2,-14.5C-120.8,-15.5 -121.3,-16.6 -121.6,-17L-121.7,-17C-121.7,-16.5 -121.5,-15.2 -121.5,-13.9L-121.5,-6.7C-121.5,-6.4 -121.6,-6.3 -121.8,-6.3L-122.3,-6.3C-122.6,-6.3 -122.7,-6.4 -122.7,-6.7L-122.7,-18.4C-122.7,-18.7 -122.6,-18.7 -122.3,-18.7L-121.7,-18.7C-121.5,-18.7 -121.4,-18.6 -121.3,-18.5L-115.8,-10.6C-115.1,-9.5 -114.6,-8.4 -114.2,-8L-114.1,-8C-114.1,-8.6 -114.3,-9.9 -114.3,-11.3L-114.3,-18.4C-114.3,-18.6 -114.2,-18.7 -113.9,-18.7L-113.4,-18.7C-113.3,-18.8 -113.2,-18.7 -113.2,-18.5" style="fill:rgb(30,41,59);fill-rule:nonzero;"/>
            </g>
            <g transform="matrix(4.16667,0,0,4.16667,1187.63,375.711)">
                <path d="M-118.7,-20.1C-116.3,-20.1 -115,-19.2 -114.1,-17.4C-114,-17.2 -114,-17.1 -114.3,-16.9L-114.8,-16.7C-115,-16.6 -115.1,-16.6 -115.3,-16.9C-116,-18.2 -116.9,-18.9 -118.7,-18.9C-120.8,-18.9 -121.9,-18.1 -121.9,-16.6C-121.9,-14.8 -120.1,-14.5 -118.3,-14.3C-116.2,-14.1 -113.9,-13.7 -113.9,-10.9C-113.9,-8.6 -115.5,-7.2 -118.7,-7.2C-121.2,-7.2 -122.6,-8.2 -123.5,-10.2C-123.6,-10.5 -123.5,-10.6 -123.3,-10.7L-122.8,-10.9C-122.6,-11 -122.5,-10.9 -122.3,-10.7C-121.7,-9.2 -120.5,-8.4 -118.8,-8.4C-116.5,-8.4 -115.3,-9.2 -115.3,-10.9C-115.3,-12.7 -116.9,-13 -118.7,-13.1C-120.9,-13.3 -123.3,-13.7 -123.3,-16.6C-123.2,-18.7 -121.6,-20.1 -118.7,-20.1" style="fill:rgb(30,41,59);fill-rule:nonzero;"/>
            </g>
            <g transform="matrix(4.16667,0,0,4.16667,1304.9,349.88)">
                <path d="M-131.3,-10.5C-131.3,-9.1 -131.9,-8.2 -132.9,-7.7C-131.6,-7.3 -130.8,-6.3 -130.8,-4.6C-130.8,-2.4 -132.2,-1.3 -134.4,-1.3L-139.5,-1.3C-139.8,-1.3 -139.9,-1.4 -139.9,-1.7L-139.9,-13.4C-139.9,-13.7 -139.8,-13.7 -139.5,-13.7L-134.6,-13.7C-132.5,-13.7 -131.3,-12.6 -131.3,-10.5M-134.8,-12.5L-138.7,-12.5L-138.7,-8.2L-134.8,-8.2C-133.4,-8.2 -132.6,-8.9 -132.6,-10.4C-132.6,-11.8 -133.3,-12.5 -134.8,-12.5M-134.5,-7L-138.7,-7L-138.7,-2.4L-134.5,-2.4C-133,-2.4 -132.2,-3.2 -132.2,-4.7C-132.2,-6.2 -133,-7 -134.5,-7" style="fill:rgb(30,41,59);fill-rule:nonzero;"/>
            </g>
            <g transform="matrix(4.16667,0,0,4.16667,1359.12,289.19)">
                <path d="M-137.1,12.4C-134.8,12.4 -133.7,11.1 -133.7,9.1L-133.7,1.2C-133.7,0.9 -133.6,0.9 -133.3,0.9L-132.7,0.9C-132.4,0.9 -132.3,1 -132.3,1.2L-132.3,9.1C-132.3,11.8 -133.9,13.6 -137,13.6C-140.1,13.6 -141.7,11.8 -141.7,9.1L-141.7,1.2C-141.7,0.9 -141.6,0.9 -141.3,0.9L-140.7,0.9C-140.4,0.9 -140.3,1 -140.3,1.2L-140.3,9.1C-140.5,11.1 -139.4,12.4 -137.1,12.4" style="fill:rgb(30,41,59);fill-rule:nonzero;"/>
            </g>
            <g transform="matrix(4.16667,0,0,4.16667,1482.06,346.589)">
                <path d="M-150.2,-9.3C-150.2,-7.4 -151.3,-6.1 -153,-5.9C-152.5,-5.7 -152.2,-5.3 -151.9,-4.7L-149.9,-0.9C-149.8,-0.7 -149.8,-0.5 -150.1,-0.5L-150.7,-0.5C-151.1,-0.5 -151.3,-0.6 -151.4,-0.8L-153.1,-4.2C-153.6,-5.3 -154.2,-5.7 -155.6,-5.7L-158,-5.7L-158,-0.8C-158,-0.5 -158.1,-0.4 -158.3,-0.4L-158.9,-0.4C-159.2,-0.4 -159.3,-0.5 -159.3,-0.8L-159.3,-12.5C-159.3,-12.8 -159.2,-12.8 -158.9,-12.8L-153.9,-12.8C-151.6,-12.9 -150.2,-11.6 -150.2,-9.3M-154,-11.7L-157.9,-11.7L-157.9,-6.9L-154,-6.9C-152.4,-6.9 -151.5,-7.8 -151.5,-9.3C-151.6,-10.8 -152.5,-11.7 -154,-11.7" style="fill:rgb(30,41,59);fill-rule:nonzero;"/>
            </g>
            <g transform="matrix(4.16667,0,0,4.16667,1569.02,326.125)">
                <path d="M-159.6,-1.6L-159.6,0.6C-159.6,3.1 -161.3,4.8 -164.4,4.8C-167.5,4.8 -169.2,3.1 -169.2,0.4L-169.2,-3.7C-169.2,-6.4 -167.5,-8.1 -164.4,-8.1C-161.7,-8.1 -160.4,-7 -159.7,-5.1C-159.6,-4.8 -159.7,-4.7 -159.9,-4.6L-160.4,-4.4C-160.6,-4.3 -160.8,-4.4 -160.9,-4.6C-161.4,-6.1 -162.3,-6.9 -164.4,-6.9C-166.7,-6.9 -167.9,-5.7 -167.9,-3.7L-167.9,0.3C-167.9,2.3 -166.7,3.5 -164.3,3.5C-162,3.5 -160.7,2.3 -160.7,0.5L-160.7,-0.8L-164.1,-0.8C-164.4,-0.8 -164.5,-0.9 -164.5,-1.2L-164.5,-1.7C-164.5,-2 -164.4,-2 -164.1,-2L-159.8,-2C-159.7,-2 -159.6,-1.9 -159.6,-1.6" style="fill:rgb(30,41,59);fill-rule:nonzero;"/>
            </g>
            <g transform="matrix(4.16667,0,0,4.16667,655.282,458.862)">
                <path d="M-61.6,-15.8L-61.6,-13.5C-61.6,-10.8 -63.4,-9 -66.8,-9C-70.2,-9 -72,-10.8 -72,-13.8L-72,-18.3C-72,-21.3 -70.2,-23.1 -66.8,-23.1C-63.9,-23.1 -62.4,-22 -61.8,-19.9C-61.7,-19.6 -61.8,-19.5 -62,-19.4L-62.6,-19.2C-62.9,-19.1 -63,-19.2 -63.1,-19.4C-63.6,-21.1 -64.7,-21.8 -66.8,-21.8C-69.3,-21.8 -70.6,-20.5 -70.6,-18.3L-70.6,-13.8C-70.6,-11.6 -69.3,-10.3 -66.8,-10.3C-64.3,-10.3 -62.9,-11.6 -62.9,-13.6L-62.9,-15L-66.6,-15C-66.9,-15 -67,-15.1 -67,-15.4L-67,-15.9C-67,-16.2 -66.9,-16.3 -66.6,-16.3L-62,-16.3C-61.7,-16.2 -61.6,-16.1 -61.6,-15.8" style="fill:rgb(30,41,59);fill-rule:nonzero;"/>
            </g>
            <g transform="matrix(4.16667,0,0,4.16667,733.925,508.445)">
                <path d="M-70.4,-34L-70.4,-33.5C-70.4,-33.2 -70.5,-33.1 -70.8,-33.1L-77.5,-33.1L-77.5,-28.4L-71.7,-28.4C-71.4,-28.4 -71.3,-28.3 -71.3,-28L-71.3,-27.5C-71.3,-27.2 -71.4,-27.1 -71.7,-27.1L-77.5,-27.1L-77.5,-22.2L-70.6,-22.2C-70.3,-22.2 -70.2,-22.1 -70.2,-21.8L-70.2,-21.3C-70.2,-21 -70.3,-20.9 -70.6,-20.9L-78.5,-20.9C-78.8,-20.9 -78.9,-21 -78.9,-21.3L-78.9,-34C-78.9,-34.3 -78.8,-34.4 -78.5,-34.4L-70.8,-34.4C-70.5,-34.4 -70.4,-34.3 -70.4,-34" style="fill:rgb(30,41,59);fill-rule:nonzero;"/>
            </g>
            <g transform="matrix(4.16667,0,0,4.16667,822.985,481.779)">
                <path d="M-80.2,-24.1C-80.2,-22 -81.4,-20.7 -83.3,-20.4C-82.7,-20.1 -82.4,-19.7 -82.1,-19.1L-80,-15C-79.9,-14.8 -79.9,-14.6 -80.2,-14.6L-80.8,-14.6C-81.3,-14.6 -81.4,-14.7 -81.5,-14.9L-83.3,-18.6C-83.9,-19.8 -84.5,-20.2 -86,-20.2L-88.6,-20.2L-88.6,-14.9C-88.6,-14.6 -88.7,-14.5 -89,-14.5L-89.6,-14.5C-89.9,-14.5 -90,-14.6 -90,-14.9L-90,-27.6C-90,-27.9 -89.9,-28 -89.6,-28L-84.2,-28C-81.7,-28 -80.2,-26.6 -80.2,-24.1M-84.3,-26.7L-88.5,-26.7L-88.5,-21.5L-84.3,-21.5C-82.6,-21.5 -81.6,-22.4 -81.6,-24.1C-81.6,-25.8 -82.6,-26.7 -84.3,-26.7" style="fill:rgb(30,41,59);fill-rule:nonzero;"/>
            </g>
            <g transform="matrix(4.16667,0,0,4.16667,931.877,508.029)">
                <path d="M-92.1,-34L-92.1,-21.3C-92.1,-21 -92.2,-20.9 -92.5,-20.9L-93,-20.9C-93.3,-20.9 -93.4,-21 -93.4,-21.3L-93.4,-29C-93.4,-30 -93.3,-31.1 -93.2,-32.4L-93.3,-32.4C-93.8,-31.3 -94.2,-30.4 -94.8,-29.4L-97.7,-24.3C-97.8,-24.1 -97.9,-24 -98.1,-24L-98.5,-24C-98.7,-24 -98.8,-24 -99,-24.3L-101.9,-29.4C-102.5,-30.3 -102.8,-31.2 -103.3,-32.3L-103.4,-32.3C-103.2,-31 -103.2,-30 -103.2,-28.9L-103.2,-21.2C-103.2,-20.9 -103.3,-20.8 -103.6,-20.8L-104.1,-20.8C-104.4,-20.8 -104.5,-20.9 -104.5,-21.2L-104.5,-33.9C-104.5,-34.2 -104.4,-34.3 -104.1,-34.3L-103.6,-34.3C-103.3,-34.3 -103.2,-34.2 -103.1,-34L-98.4,-25.7L-93.7,-34C-93.5,-34.3 -93.5,-34.3 -93.2,-34.3L-92.6,-34.3C-92.2,-34.4 -92.1,-34.3 -92.1,-34" style="fill:rgb(30,41,59);fill-rule:nonzero;"/>
            </g>
            <g transform="matrix(4.16667,0,0,4.16667,1030.35,409.695)">
                <path d="M-102.7,2.8L-103.3,2.8C-103.8,2.8 -103.9,2.7 -104,2.5L-105.4,-1.1L-111.3,-1.1L-112.7,2.5C-112.8,2.8 -112.9,2.8 -113.4,2.8L-113.9,2.8C-114.2,2.8 -114.2,2.7 -114.1,2.4L-109,-10.4C-108.9,-10.7 -108.8,-10.7 -108.5,-10.7L-107.9,-10.7C-107.6,-10.7 -107.5,-10.6 -107.4,-10.4L-102.3,2.5C-102.3,2.7 -102.4,2.8 -102.7,2.8M-108.2,-9.4C-108.3,-9.3 -108.3,-8.7 -108.5,-8.1L-110.8,-2.3L-105.6,-2.3L-107.9,-8.1C-108.2,-8.8 -108.2,-9.4 -108.2,-9.4" style="fill:rgb(30,41,59);fill-rule:nonzero;"/>
            </g>
            <g transform="matrix(4.16667,0,0,4.16667,1121.91,508.029)">
                <path d="M-112.4,-34L-112.4,-21.3C-112.4,-21 -112.5,-20.9 -112.8,-20.9L-113.4,-20.9C-113.6,-20.9 -113.7,-20.9 -113.8,-21.1L-119.9,-29.8C-120.6,-30.8 -121.1,-32.1 -121.4,-32.5L-121.5,-32.5C-121.5,-32 -121.3,-30.5 -121.3,-29.1L-121.3,-21.2C-121.3,-20.9 -121.4,-20.8 -121.7,-20.8L-122.3,-20.8C-122.6,-20.8 -122.7,-20.9 -122.7,-21.2L-122.7,-33.9C-122.7,-34.2 -122.6,-34.3 -122.3,-34.3L-121.7,-34.3C-121.5,-34.3 -121.4,-34.2 -121.3,-34.1L-115.4,-25.6C-114.6,-24.5 -114.1,-23.2 -113.7,-22.7L-113.6,-22.7C-113.6,-23.3 -113.8,-24.7 -113.8,-26.2L-113.8,-33.9C-113.8,-34.2 -113.7,-34.3 -113.4,-34.3L-112.8,-34.3C-112.5,-34.4 -112.4,-34.3 -112.4,-34" style="fill:rgb(30,41,59);fill-rule:nonzero;"/>
            </g>
            <g transform="matrix(4.16667,0,0,4.16667,1219.14,508.445)">
                <path d="M-122.7,-34L-127.7,-26.4L-127.7,-21.3C-127.7,-21 -127.8,-20.9 -128.1,-20.9L-128.7,-20.9C-129,-20.9 -129.1,-21 -129.1,-21.3L-129.1,-26.4L-134.1,-34C-134.2,-34.2 -134.2,-34.4 -133.9,-34.4L-133.1,-34.4C-132.7,-34.4 -132.5,-34.4 -132.4,-34.1L-128.4,-27.9L-124.4,-34.1C-124.2,-34.4 -124.1,-34.4 -123.7,-34.4L-123,-34.4C-122.6,-34.4 -122.5,-34.3 -122.7,-34" style="fill:rgb(30,41,59);fill-rule:nonzero;"/>
            </g>
            <g transform="matrix(4.16667,0,0,4.16667,1239.45,472)">
                <path d="M-124.3,-17.6L-124.3,-17.5C-124.3,-16.9 -124.5,-16.8 -125,-16.8L-125.1,-16.8C-125.7,-16.8 -125.9,-17 -125.9,-17.5L-125.9,-17.6C-125.9,-18.2 -125.7,-18.4 -125.1,-18.4L-125,-18.4C-124.4,-18.4 -124.3,-18.2 -124.3,-17.6" style="fill:rgb(30,41,59);fill-rule:nonzero;"/>
            </g>
            <g transform="matrix(4.16667,0,0,4.16667,1295.17,511.779)">
                <path d="M-131.1,-35.4C-128.4,-35.4 -126.8,-33.5 -126.8,-31.3C-126.8,-28.4 -128.7,-27.5 -131.8,-26.3C-133.2,-25.8 -134.7,-25.2 -134.7,-23.7L-134.7,-23L-127.3,-23C-127,-23 -126.9,-22.9 -126.9,-22.6L-126.9,-22.1C-126.9,-21.8 -127,-21.7 -127.3,-21.7L-135.7,-21.7C-136,-21.7 -136.1,-21.8 -136.1,-22.1L-136.1,-23.5C-136.1,-26 -134.1,-26.9 -132.2,-27.7C-130.2,-28.5 -128.3,-29.1 -128.3,-31.4C-128.3,-33 -129.5,-34.2 -131.2,-34.2C-133,-34.2 -134.1,-33.4 -134.7,-31.9C-134.8,-31.6 -134.9,-31.6 -135.2,-31.7L-135.8,-31.9C-136.1,-32 -136.1,-32.1 -136,-32.4C-135.2,-34.3 -133.7,-35.4 -131.1,-35.4" style="fill:rgb(30,41,59);fill-rule:nonzero;"/>
            </g>
            <g transform="matrix(4.16667,0,0,4.16667,1377.57,512.612)">
                <path d="M-140.2,-35.9C-137.1,-35.9 -135.4,-34.2 -135.4,-31.5L-135.4,-26.3C-135.4,-23.6 -137.2,-21.9 -140.2,-21.9C-143.2,-21.9 -145,-23.6 -145,-26.3L-145,-31.5C-145,-34.2 -143.3,-35.9 -140.2,-35.9M-140.2,-34.6C-142.4,-34.6 -143.7,-33.4 -143.7,-31.5L-143.7,-26.3C-143.7,-24.3 -142.4,-23.2 -140.2,-23.2C-138,-23.2 -136.7,-24.4 -136.7,-26.3L-136.7,-31.5C-136.7,-33.4 -138,-34.6 -140.2,-34.6" style="fill:rgb(30,41,59);fill-rule:nonzero;"/>
            </g>
            <g transform="matrix(4.16667,0,0,4.16667,1464.54,511.779)">
                <path d="M-149.7,-35.4C-147,-35.4 -145.4,-33.5 -145.4,-31.3C-145.4,-28.4 -147.3,-27.5 -150.4,-26.3C-151.8,-25.8 -153.3,-25.2 -153.3,-23.7L-153.3,-23L-145.9,-23C-145.6,-23 -145.5,-22.9 -145.5,-22.6L-145.5,-22.1C-145.5,-21.8 -145.6,-21.7 -145.9,-21.7L-154.3,-21.7C-154.6,-21.7 -154.7,-21.8 -154.7,-22.1L-154.7,-23.5C-154.7,-26 -152.7,-26.9 -150.8,-27.7C-148.8,-28.5 -146.9,-29.1 -146.9,-31.4C-146.9,-33 -148.1,-34.2 -149.8,-34.2C-151.6,-34.2 -152.7,-33.4 -153.3,-31.9C-153.4,-31.6 -153.5,-31.6 -153.8,-31.7L-154.4,-31.9C-154.7,-32 -154.7,-32.1 -154.6,-32.4C-153.8,-34.3 -152.3,-35.4 -149.7,-35.4" style="fill:rgb(30,41,59);fill-rule:nonzero;"/>
            </g>
            <g transform="matrix(4.16667,0,0,4.16667,1509.85,511.779)">
                <path d="M-149.7,-35.4C-147,-35.4 -145.4,-33.5 -145.4,-31.3C-145.4,-28.4 -147.3,-27.5 -150.4,-26.3C-151.8,-25.8 -153.3,-25.2 -153.3,-23.7L-153.3,-23L-145.9,-23C-145.6,-23 -145.5,-22.9 -145.5,-22.6L-145.5,-22.1C-145.5,-21.8 -145.6,-21.7 -145.9,-21.7L-154.3,-21.7C-154.6,-21.7 -154.7,-21.8 -154.7,-22.1L-154.7,-23.5C-154.7,-26 -152.7,-26.9 -150.8,-27.7C-148.8,-28.5 -146.9,-29.1 -146.9,-31.4C-146.9,-33 -148.1,-34.2 -149.8,-34.2C-151.6,-34.2 -152.7,-33.4 -153.3,-31.9C-153.4,-31.6 -153.5,-31.6 -153.8,-31.7L-154.4,-31.9C-154.7,-32 -154.7,-32.1 -154.6,-32.4C-153.8,-34.3 -152.3,-35.4 -149.7,-35.4" style="fill:rgb(30,41,59);fill-rule:nonzero;"/>
            </g>
            <g transform="matrix(1,0,0,0.669782,85.3796,430.236)">
                <rect x="540" y="-13.249" width="80" height="43.298" style="fill:none;"/>
            </g>
        </g>
    </g>
</svg>
