<?xml version="1.0" encoding="utf-8"?>
<!-- Generator: Adobe Illustrator 25.1.0, SVG Export Plug-In . SVG Version: 6.00 Build 0)  -->
<svg version="1.1" id="Ebene_1" xmlns:serif="http://www.serif.com/"
	 xmlns="http://www.w3.org/2000/svg" xmlns:xlink="http://www.w3.org/1999/xlink" x="0px" y="0px" viewBox="0 0 841.9 595.3"
	 style="enable-background:new 0 0 841.9 595.3;" xml:space="preserve">
<style type="text/css">
	.st0{fill:#FFFFFF;}
</style>
<g>
	<g transform="matrix(1,0,0,1,-79.9674,-53.1483)">
		<g transform="matrix(4.16667,0,0,4.16667,211.374,331.6)">
			<path class="st0" d="M-14.1-4.9c-9.1,3.9-13.2,8.7-15,11.5c-0.7-1.6-1.2-3.3-1.6-5c3.5-2.7,10.3-7,15.9-9
				C-14.7-7.4-14.4-6.3-14.1-4.9 M-12.7,0.1C-20.4,3.5-25.2,8-26.8,10.7c-0.8-1.2-1.5-2.4-2.1-3.8c3.2-2.9,9.6-7.2,15.5-9.4
				C-13.4-2.4-13-0.8-12.7,0.1 M-11.3,4.8c-7.6,3.3-10.6,7.2-12.3,9.8c-1.1-1.1-2.1-2.3-3-3.5c3.1-2.8,8.8-6.4,14.6-8.5
				C-12,2.5-11.7,3.6-11.3,4.8 M-15.8-12.2c0.2,0.9,0.4,1.7,0.6,2.5c-8.3,3.6-13.5,8.3-15.5,11C-30.9,0.2-31-0.9-31.1-2
				c0-0.5,0-1,0-1.5C-27.6-6.1-20.6-10.5-15.8-12.2 M-17.7-21.7c0.1,0.8,0.3,1.6,0.4,2.4c-6.4,2.9-10.5,6.7-12.8,8.6
				c0.6-2.1,1.6-4.1,2.7-6C-24.4-18.3-19.1-21.2-17.7-21.7 M-16.8-17c0.2,0.8,0.3,1.6,0.5,2.4c-8.6,3.6-12.6,8-14.8,10.5
				c0.1-2.1,0.4-4.1,0.9-6.1C-26.9-12.1-20.2-15.8-16.8-17 M-18.4-25.3c0.1,0.6,0.2,1.2,0.3,1.9c-3.9,2.1-6.8,4.6-8.8,5.9
				C-24.7-20.7-21.8-23.4-18.4-25.3 M-9.6,9.7c-6.6,3.4-9.7,8.2-9.7,8.2c-1.4-0.9-2.8-2-4-3.1c3-2.5,7.9-5.7,12.9-7.5
				C-10.5,7.2-10,8.8-9.6,9.7"/>
		</g>
		<g transform="matrix(4.16667,0,0,4.16667,310.808,484.381)">
			<path class="st0" d="M-24.7-22.6c-6.1,1.2-10.3,3.6-13.6,6.2c1.8,0.6,3.6,1.1,5.6,1.3c2.1-2.5,5.2-4.5,9.8-5.7
				c6-1.6,10.7-1.8,10.7-1.8S-17-24-24.7-22.6 M-32.3-15c0.9,0.1,2.7,0.1,3.7,0c3.7-0.2,7.2-1.2,10.4-2.9c0.9-0.5,1.7-1,2.5-1.5
				C-22-19.5-28.5-18.2-32.3-15 M-20.6-25.8c0,0-6.9-0.6-14.1,2.2c-4.6,1.8-8.1,5.1-8.1,5.1c1.3,0.8,2.7,1.5,4.2,2
				C-34.2-21.7-27.7-24.5-20.6-25.8"/>
		</g>
		<g transform="matrix(4.16667,0,0,4.16667,278.026,196.417)">
			<path class="st0" d="M-21.2,24.6c-3.4,0.9-6.3,1.9-8.8,3c-0.3-1.3-0.7-2.8-1.1-4.3c1.1-0.4,3.3-1.1,4.6-1.3
				c0.3,0,0.6,0.1,0.6,0.4c0.1,0.3,0.2,0.7,0.3,1c1.2-0.4,2.4-0.7,3.6-1c9.3-2.4,20.1-2.7,26.3-1.8c0.7,1.5,1.4,3.1,2,4.8
				C0.8,22.9-11.2,22-21.2,24.6 M-20.2,29.6c-3.1,0.8-6,1.8-8.5,2.9c-0.2-0.9-0.5-1.8-0.8-2.8l-0.5-1.8c1.2-0.4,3.5-1.1,5-1.3
				c0.3,0,0.5,0.1,0.6,0.4l0.4,1.2c1.1-0.3,2.3-0.7,3.5-1c9.3-2.4,20.8-2.4,27.1-1.3c0.5,1.5,1,3,1.5,4.6
				C2.5,28-10.3,27.1-20.2,29.6 M-19.1,34.5c-3.2,0.8-5.9,1.8-8.2,2.7c-0.4-1.2-0.8-2.6-1.3-4.2c1.4-0.5,3.9-1.3,5.5-1.5
				c0.2,0,0.5,0.1,0.6,0.3L-22,33c0.8-0.2,1.6-0.5,2.5-0.7C-10.3,30,2,29.9,8.2,31.1c0.4,1.5,0.8,3.1,1.1,4.7
				C3.8,33.1-9.6,32-19.1,34.5 M-22.4,19.7c-3.3,0.8-6.2,1.9-8.8,3c-0.2-0.8-0.4-1.6-0.6-2.5c-0.1-0.6-0.3-1.2-0.4-1.8
				c1.4-0.4,3-0.9,4.5-1.2c0.3-0.1,0.6,0.1,0.6,0.4l0.2,1c1.2-0.3,2.4-0.7,3.6-1c8.4-2.1,18.7-2.7,24.9-2.1c0.8,1.4,1.6,2.9,2.3,4.4
				C-1.6,17.6-12.1,17.1-22.4,19.7 M-25,10.3c-3.1,0.7-5.9,1.7-8.3,2.8c-0.2-0.8-0.6-3.6-0.6-3.6c1.6-0.8,3.6-1.5,5.1-1.8
				c0.4-0.1,0.7,0.2,0.7,0.5v0.5c0.9-0.3,1.9-0.5,2.8-0.8c7.7-1.8,15.7-2.1,20.2-1.6C-4,7.4-3,8.7-2,10C-7.3,8.4-16.6,8.4-25,10.3
				 M-23.7,15c-3.3,0.8-6.2,1.8-8.6,2.9c-0.2-0.8-0.8-4-0.8-4c0-0.1,0-0.1,0-0.2c1.2-0.4,3.3-1.1,4.7-1.4c0.3-0.1,0.6,0.1,0.7,0.5
				l0.1,1c1.1-0.3,2.3-0.6,3.5-0.9c6.5-1.6,16.8-2.9,22.6-2.3c1,1.4,2,2.8,2.9,4.3C-4.3,13-14.9,12.8-23.7,15 M-25.6,5.9
				c-3.2,0.6-6,1.8-8.4,3.1c-0.1-0.6-0.3-1.9-0.3-1.9c0-0.2-0.2-1.4-0.3-1.6c1.4-0.8,4.1-2,6-2.5c0.4-0.1,0.8,0.2,0.7,0.6v0.3
				c0.3-0.1,0.6-0.2,0.9-0.3c4.7-1.4,13.6-2.3,17.6-1.7c1.4,1.2,2.7,2.4,4,3.8C-9.9,4.7-17,4.2-25.6,5.9 M-16.7,39.2
				c-3.4,0.6-6.4,1.7-8.9,3c-0.3-0.9-0.9-2.4-1.6-4.5c1.6-0.6,4.4-1.3,6.3-1.6c0.2-0.1,0.5,0.1,0.6,0.3l0.6,1.1
				c0.3-0.1,0.6-0.2,0.9-0.2c9-2.3,22.3-2.3,28.3-1C9.6,37,10,39,10.2,40.9C5.7,39.6-3.6,37-16.7,39.2 M-26.7-2.4
				C-31-1.7-33.9,0-35.4,0.7c-0.1-0.9-0.4-3-0.5-3.8L-25-5.6l0.8,0.1c2.9,0.7,5.7,1.8,8.5,3.3C-19.6-3.1-23-3.1-26.7-2.4 M-14.9-1.7
				c1.7,1,3.3,2.1,4.9,3.4c-4.6-1.4-12.7-1.3-17.7,0.1c-2.6,0.8-5.1,2-7.1,3.2c-0.2-1-0.4-2.8-0.6-3.8c1.4-0.7,5-2.3,7.5-2.6
				c0.4-0.1,0.8,0.3,0.6,0.7C-24.3-1.4-18.8-2.1-14.9-1.7"/>
		</g>
		<g transform="matrix(-0.293472,4.15632,4.15632,0.293472,364.916,349.979)">
			<path class="st0" d="M8.4-39.7c0,0-0.3,2.5-0.4,4.1c-0.4,8.3,0.4,15,0.4,15l-3.6-0.5C5.3-27.4,6.4-33.5,8.4-39.7"/>
		</g>
		<g transform="matrix(4.16667,0,0,4.16667,648.125,212.4)">
			<path class="st0" d="M-60.9,18.1h13.1v5h6.5v-5h3.3v-5.6h-3.3V-3.4h-6.5l0,0l0,0l-13.1,15.8l0,0V18.1z M-47.8,4.4v8.1h-6.7
				L-47.8,4.4z M-70.3,31.8H-38v-5.6h-32.4L-70.3,31.8L-70.3,31.8z M-70.3-3.4h6.5v26.5h-6.5V-3.4z"/>
		</g>
		<g transform="matrix(4.16667,0,0,4.16667,1022.44,231.17)">
			<path class="st0" d="M-101-6.7l-4.5,15.3c-0.2,0.7-0.6,0.9-1.4,0.9h-1.1c-0.8,0-1.2-0.2-1.4-0.9l-2.4-8.6
				c-0.4-1.6-0.6-3.3-0.6-3.5h-0.2c0,0.1-0.2,1.8-0.6,3.5l-2.4,8.6c-0.2,0.7-0.6,0.9-1.4,0.9h-1.1c-0.8,0-1.2-0.2-1.4-0.9l-4.7-15.3
				c-0.3-1-0.2-1.2,0.8-1.2h1.3c1.2,0,1.7,0.2,1.8,1l1.9,7.5c0.3,1.5,0.5,3.9,0.6,4.1h0.2c0-0.2,0.3-2.5,0.7-4.1l2.2-7.3
				c0.3-0.9,0.5-1.1,1.7-1.1h0.8c1.2,0,1.4,0.2,1.7,1l2.2,7.4c0.5,1.7,0.7,4,0.7,4.1h0.2c0-0.2,0.1-2.2,0.6-4.1l1.8-7.5
				c0.2-0.9,0.6-1,1.9-1h1.1C-100.9-7.9-100.7-7.7-101-6.7"/>
		</g>
		<g transform="matrix(4.16667,0,0,4.16667,1094.13,243.786)">
			<path class="st0" d="M-108.7-11.4c5,0,7.7,2.5,7.7,6.7v5c0,4.2-2.7,6.7-7.7,6.7s-7.7-2.6-7.7-6.7v-5
				C-116.4-8.9-113.6-11.4-108.7-11.4 M-108.7-7.9c-2.4,0-3.8,1.1-3.8,3.2v5c0,2,1.4,3.2,3.8,3.2c2.5,0,3.9-1.2,3.9-3.2v-5
				C-104.8-6.8-106.2-7.9-108.7-7.9"/>
		</g>
		<g transform="matrix(4.16667,0,0,4.16667,1241.8,240.002)">
			<path class="st0" d="M-124.5-10.5c0.8,0,1,0.2,1,1V-8c0,0.8-0.3,1-1,1h-1.2c-1.3,0-2.3,0.1-3.2,0.4c-0.3,0.1-0.3,0.2-0.3,0.4V6.3
				c0,0.8-0.2,1-1,1h-1.8c-0.8,0-1-0.3-1-1V-7.6c0-1.1,0.2-1.5,1.3-1.9c1.2-0.5,3.3-0.9,6.2-1C-125.5-10.5-124.5-10.5-124.5-10.5z"
				/>
		</g>
		<g transform="matrix(4.16667,0,0,4.16667,1288.51,53.1504)">
			<path class="st0" d="M-129.5,52.2h-1.8c-0.8,0-1-0.3-1-1V28.4c0-0.8,0.2-1,1-1h1.8c0.8,0,1,0.3,1,1v22.7
				C-128.5,51.9-128.7,52.2-129.5,52.2"/>
		</g>
		<g transform="matrix(4.16667,0,0,4.16667,1375.1,191.523)">
			<path class="st0" d="M-138.8,1.1c1.6,0,3.1,0.3,4,0.4v-6.3c0-0.8,0.2-1,1-1h1.8c0.8,0,1,0.3,1,1v21.4c0,1.1-0.3,1.4-1.3,1.8
				c-1.3,0.5-3.2,1.1-6.3,1.1c-5,0-7.3-2.5-7.3-6.8V8.1C-145.8,3.6-143.4,1.1-138.8,1.1 M-138,4.7c-2.7,0-3.9,1.2-3.9,3.6v4.4
				c0,2.2,1.3,3.4,3.8,3.4c1.2,0,2.2-0.1,3.1-0.4c0.2-0.1,0.3-0.2,0.3-0.4V5.1C-135.6,4.9-136.7,4.7-138,4.7"/>
		</g>
		<g transform="matrix(4.16667,0,0,4.16667,1510.18,243.786)">
			<path class="st0" d="M-153.3-11.4c3.9,0,6.1,1.4,7.2,3.6c0.4,0.8,0.2,1.2-0.5,1.5l-1.5,0.6c-0.7,0.3-1,0.2-1.4-0.5
				c-0.6-1-1.5-1.7-3.6-1.7c-2.2,0-3.2,0.6-3.2,1.8c0,1.6,1.3,1.8,3.9,2.1c4,0.4,6.8,1.3,6.8,5.4c0,3.3-2.5,5.6-7.2,5.6
				c-4,0-6.5-1.4-7.5-4.1c-0.3-0.7-0.1-1.1,0.7-1.4l1.5-0.5c0.7-0.2,1-0.1,1.4,0.6c0.5,1.3,1.7,1.8,3.8,1.8c2.4,0,3.6-0.7,3.6-2
				c0-1.6-1.3-1.9-4-2.1c-3.3-0.3-6.8-1-6.8-5.4C-160.2-9.2-157.9-11.4-153.3-11.4"/>
		</g>
		<g transform="matrix(4.16667,0,0,4.16667,917.456,371.256)">
			<path class="st0" d="M-89.7-18.5v0.5c0,0.3-0.1,0.4-0.3,0.4h-6.2v4.5h5.3c0.2,0,0.3,0.1,0.3,0.3v0.5c0,0.3-0.1,0.3-0.3,0.3h-5.3
				v5.3c0,0.3-0.1,0.4-0.3,0.4h-0.6c-0.3,0-0.4-0.1-0.4-0.4v-11.7c0-0.3,0.1-0.3,0.4-0.3h7.1C-89.8-18.8-89.7-18.7-89.7-18.5"/>
		</g>
		<g transform="matrix(4.16667,0,0,4.16667,936.29,371.256)">
			<path class="st0" d="M-91.8-18.5v10.9h5.9c0.2,0,0.3,0.1,0.3,0.4v0.5c0,0.3-0.1,0.4-0.3,0.4h-6.9C-92.9-6.4-93-6.5-93-6.7v-11.7
				c0-0.3,0.1-0.3,0.4-0.3h0.6C-91.8-18.8-91.8-18.7-91.8-18.5"/>
		</g>
		<g transform="matrix(4.16667,0,0,4.16667,1048.84,371.256)">
			<path class="st0" d="M-103.8-18.5v0.5c0,0.3-0.1,0.4-0.3,0.4h-6.2v4.3h5.4c0.2,0,0.3,0.1,0.3,0.4v0.5c0,0.3-0.1,0.3-0.3,0.3h-5.4
				v4.5h6.4c0.2,0,0.3,0.1,0.3,0.4v0.5c0,0.3-0.1,0.4-0.3,0.4h-7.3c-0.3,0-0.4-0.1-0.4-0.4v-11.7c0-0.3,0.1-0.3,0.4-0.3h7.1
				C-103.9-18.8-103.8-18.7-103.8-18.5"/>
		</g>
		<g transform="matrix(4.16667,0,0,4.16667,1136.45,371.256)">
			<path class="st0" d="M-113.2-18.5v11.8c0,0.3-0.1,0.4-0.4,0.4h-0.6c-0.2,0-0.3,0-0.4-0.2l-5.6-8c-0.6-1-1.1-2.1-1.4-2.5h-0.1
				c0,0.5,0.2,1.8,0.2,3.1v7.2c0,0.3-0.1,0.4-0.3,0.4h-0.5c-0.3,0-0.4-0.1-0.4-0.4v-11.7c0-0.3,0.1-0.3,0.4-0.3h0.6
				c0.2,0,0.3,0.1,0.4,0.2l5.5,7.9c0.7,1.1,1.2,2.2,1.6,2.6h0.1c0-0.6-0.2-1.9-0.2-3.3v-7.1c0-0.2,0.1-0.3,0.4-0.3h0.5
				C-113.3-18.8-113.2-18.7-113.2-18.5"/>
		</g>
		<g transform="matrix(4.16667,0,0,4.16667,1187.63,375.711)">
			<path class="st0" d="M-118.7-20.1c2.4,0,3.7,0.9,4.6,2.7c0.1,0.2,0.1,0.3-0.2,0.5l-0.5,0.2c-0.2,0.1-0.3,0.1-0.5-0.2
				c-0.7-1.3-1.6-2-3.4-2c-2.1,0-3.2,0.8-3.2,2.3c0,1.8,1.8,2.1,3.6,2.3c2.1,0.2,4.4,0.6,4.4,3.4c0,2.3-1.6,3.7-4.8,3.7
				c-2.5,0-3.9-1-4.8-3c-0.1-0.3,0-0.4,0.2-0.5l0.5-0.2c0.2-0.1,0.3,0,0.5,0.2c0.6,1.5,1.8,2.3,3.5,2.3c2.3,0,3.5-0.8,3.5-2.5
				c0-1.8-1.6-2.1-3.4-2.2c-2.2-0.2-4.6-0.6-4.6-3.5C-123.2-18.7-121.6-20.1-118.7-20.1"/>
		</g>
		<g transform="matrix(4.16667,0,0,4.16667,1304.9,349.88)">
			<path class="st0" d="M-131.3-10.5c0,1.4-0.6,2.3-1.6,2.8l0,0c1.3,0.4,2.1,1.4,2.1,3.1c0,2.2-1.4,3.3-3.6,3.3h-5.1
				c-0.3,0-0.4-0.1-0.4-0.4v-11.7c0-0.3,0.1-0.3,0.4-0.3h4.9C-132.5-13.7-131.3-12.6-131.3-10.5 M-134.8-12.5h-3.9v4.3h3.9
				c1.4,0,2.2-0.7,2.2-2.2C-132.6-11.8-133.3-12.5-134.8-12.5 M-134.5-7h-4.2v4.6h4.2c1.5,0,2.3-0.8,2.3-2.3S-133-7-134.5-7"/>
		</g>
		<g transform="matrix(4.16667,0,0,4.16667,1359.12,289.19)">
			<path class="st0" d="M-137.1,12.4c2.3,0,3.4-1.3,3.4-3.3V1.2c0-0.3,0.1-0.3,0.4-0.3h0.6c0.3,0,0.4,0.1,0.4,0.3v7.9
				c0,2.7-1.6,4.5-4.7,4.5c-3.1,0-4.7-1.8-4.7-4.5V1.2c0-0.3,0.1-0.3,0.4-0.3h0.6c0.3,0,0.4,0.1,0.4,0.3v7.9
				C-140.5,11.1-139.4,12.4-137.1,12.4"/>
		</g>
		<g transform="matrix(4.16667,0,0,4.16667,1482.06,346.589)">
			<path class="st0" d="M-150.2-9.3c0,1.9-1.1,3.2-2.8,3.4c0.5,0.2,0.8,0.6,1.1,1.2l2,3.8c0.1,0.2,0.1,0.4-0.2,0.4h-0.6
				c-0.4,0-0.6-0.1-0.7-0.3l-1.7-3.4c-0.5-1.1-1.1-1.5-2.5-1.5h-2.4v4.9c0,0.3-0.1,0.4-0.3,0.4h-0.6c-0.3,0-0.4-0.1-0.4-0.4v-11.7
				c0-0.3,0.1-0.3,0.4-0.3h5C-151.6-12.9-150.2-11.6-150.2-9.3 M-154-11.7h-3.9v4.8h3.9c1.6,0,2.5-0.9,2.5-2.4
				C-151.6-10.8-152.5-11.7-154-11.7"/>
		</g>
		<g transform="matrix(4.16667,0,0,4.16667,1569.02,326.125)">
			<path class="st0" d="M-159.6-1.6v2.2c0,2.5-1.7,4.2-4.8,4.2c-3.1,0-4.8-1.7-4.8-4.4v-4.1c0-2.7,1.7-4.4,4.8-4.4
				c2.7,0,4,1.1,4.7,3c0.1,0.3,0,0.4-0.2,0.5l-0.5,0.2c-0.2,0.1-0.4,0-0.5-0.2c-0.5-1.5-1.4-2.3-3.5-2.3c-2.3,0-3.5,1.2-3.5,3.2v4
				c0,2,1.2,3.2,3.6,3.2c2.3,0,3.6-1.2,3.6-3v-1.3h-3.4c-0.3,0-0.4-0.1-0.4-0.4v-0.5c0-0.3,0.1-0.3,0.4-0.3h4.3
				C-159.7-2-159.6-1.9-159.6-1.6"/>
		</g>
		<g transform="matrix(4.16667,0,0,4.16667,655.282,458.862)">
			<path class="st0" d="M-61.6-15.8v2.3c0,2.7-1.8,4.5-5.2,4.5c-3.4,0-5.2-1.8-5.2-4.8v-4.5c0-3,1.8-4.8,5.2-4.8
				c2.9,0,4.4,1.1,5,3.2c0.1,0.3,0,0.4-0.2,0.5l-0.6,0.2c-0.3,0.1-0.4,0-0.5-0.2c-0.5-1.7-1.6-2.4-3.7-2.4c-2.5,0-3.8,1.3-3.8,3.5
				v4.5c0,2.2,1.3,3.5,3.8,3.5s3.9-1.3,3.9-3.3V-15h-3.7c-0.3,0-0.4-0.1-0.4-0.4v-0.5c0-0.3,0.1-0.4,0.4-0.4h4.6
				C-61.7-16.2-61.6-16.1-61.6-15.8"/>
		</g>
		<g transform="matrix(4.16667,0,0,4.16667,736.803,507.693)">
			<path class="st0" d="M-70.4-34v0.5c0,0.3-0.1,0.4-0.4,0.4h-6.7v4.7h5.8c0.3,0,0.4,0.1,0.4,0.4v0.5c0,0.3-0.1,0.4-0.4,0.4h-5.8
				v4.9h6.9c0.3,0,0.4,0.1,0.4,0.4v0.5c0,0.3-0.1,0.4-0.4,0.4h-7.9c-0.3,0-0.4-0.1-0.4-0.4V-34c0-0.3,0.1-0.4,0.4-0.4h7.7
				C-70.5-34.4-70.4-34.3-70.4-34"/>
		</g>
		<g transform="matrix(4.16667,0,0,4.16667,828.464,480.997)">
			<path class="st0" d="M-80.2-24.1c0,2.1-1.2,3.4-3.1,3.7c0.6,0.3,0.9,0.7,1.2,1.3L-80-15c0.1,0.2,0.1,0.4-0.2,0.4h-0.6
				c-0.5,0-0.6-0.1-0.7-0.3l-1.8-3.7c-0.6-1.2-1.2-1.6-2.7-1.6h-2.6v5.3c0,0.3-0.1,0.4-0.4,0.4h-0.6c-0.3,0-0.4-0.1-0.4-0.4v-12.7
				c0-0.3,0.1-0.4,0.4-0.4h5.4C-81.7-28-80.2-26.6-80.2-24.1 M-84.3-26.7h-4.2v5.2h4.2c1.7,0,2.7-0.9,2.7-2.6
				C-81.6-25.8-82.6-26.7-84.3-26.7"/>
		</g>
		<g transform="matrix(4.16667,0,0,4.16667,939.255,507.693)">
			<path class="st0" d="M-92.1-34v12.7c0,0.3-0.1,0.4-0.4,0.4H-93c-0.3,0-0.4-0.1-0.4-0.4V-29c0-1,0.1-2.1,0.2-3.4h-0.1
				c-0.5,1.1-0.9,2-1.5,3l-2.9,5.1c-0.1,0.2-0.2,0.3-0.4,0.3h-0.4c-0.2,0-0.3,0-0.5-0.3l-2.9-5.1c-0.6-0.9-0.9-1.8-1.4-2.9h-0.1
				c0.2,1.3,0.2,2.3,0.2,3.4v7.7c0,0.3-0.1,0.4-0.4,0.4h-0.5c-0.3,0-0.4-0.1-0.4-0.4v-12.7c0-0.3,0.1-0.4,0.4-0.4h0.5
				c0.3,0,0.4,0.1,0.5,0.3l4.7,8.3l4.7-8.3c0.2-0.3,0.2-0.3,0.5-0.3h0.6C-92.2-34.4-92.1-34.3-92.1-34"/>
		</g>
		<g transform="matrix(4.16667,0,0,4.16667,1038.05,408.753)">
			<path class="st0" d="M-102.7,2.8h-0.6c-0.5,0-0.6-0.1-0.7-0.3l-1.4-3.6h-5.9l-1.4,3.6c-0.1,0.3-0.2,0.3-0.7,0.3h-0.5
				c-0.3,0-0.3-0.1-0.2-0.4l5.1-12.8c0.1-0.3,0.2-0.3,0.5-0.3h0.6c0.3,0,0.4,0.1,0.5,0.3l5.1,12.9C-102.3,2.7-102.4,2.8-102.7,2.8
				 M-108.2-9.4L-108.2-9.4c-0.1,0.1-0.1,0.7-0.3,1.3l-2.3,5.8h5.2l-2.3-5.8C-108.2-8.8-108.2-9.4-108.2-9.4"/>
		</g>
		<g transform="matrix(4.16667,0,0,4.16667,1129.28,507.693)">
			<path class="st0" d="M-112.4-34v12.7c0,0.3-0.1,0.4-0.4,0.4h-0.6c-0.2,0-0.3,0-0.4-0.2l-6.1-8.7c-0.7-1-1.2-2.3-1.5-2.7h-0.1
				c0,0.5,0.2,2,0.2,3.4v7.9c0,0.3-0.1,0.4-0.4,0.4h-0.6c-0.3,0-0.4-0.1-0.4-0.4v-12.7c0-0.3,0.1-0.4,0.4-0.4h0.6
				c0.2,0,0.3,0.1,0.4,0.2l5.9,8.5c0.8,1.1,1.3,2.4,1.7,2.9h0.1c0-0.6-0.2-2-0.2-3.5v-7.7c0-0.3,0.1-0.4,0.4-0.4h0.6
				C-112.5-34.4-112.4-34.3-112.4-34"/>
		</g>
		<g transform="matrix(4.16667,0,0,4.16667,1224.8,507.693)">
			<path class="st0" d="M-122.7-34l-5,7.6v5.1c0,0.3-0.1,0.4-0.4,0.4h-0.6c-0.3,0-0.4-0.1-0.4-0.4v-5.1l-5-7.6
				c-0.1-0.2-0.1-0.4,0.2-0.4h0.8c0.4,0,0.6,0,0.7,0.3l4,6.2l4-6.2c0.2-0.3,0.3-0.3,0.7-0.3h0.7C-122.6-34.4-122.5-34.3-122.7-34"/>
		</g>
		<g transform="matrix(4.16667,0,0,4.16667,1239.65,472)">
			<path class="st0" d="M-124.3-17.6v0.1c0,0.6-0.2,0.7-0.7,0.7h-0.1c-0.6,0-0.8-0.2-0.8-0.7v-0.1c0-0.6,0.2-0.8,0.8-0.8h0.1
				C-124.4-18.4-124.3-18.2-124.3-17.6"/>
		</g>
		<g transform="matrix(4.16667,0,0,4.16667,1303.61,510.55)">
			<path class="st0" d="M-131.1-35.4c2.7,0,4.3,1.9,4.3,4.1c0,2.9-1.9,3.8-5,5c-1.4,0.5-2.9,1.1-2.9,2.6v0.7h7.4
				c0.3,0,0.4,0.1,0.4,0.4v0.5c0,0.3-0.1,0.4-0.4,0.4h-8.4c-0.3,0-0.4-0.1-0.4-0.4v-1.4c0-2.5,2-3.4,3.9-4.2c2-0.8,3.9-1.4,3.9-3.7
				c0-1.6-1.2-2.8-2.9-2.8c-1.8,0-2.9,0.8-3.5,2.3c-0.1,0.3-0.2,0.3-0.5,0.2l-0.6-0.2c-0.3-0.1-0.3-0.2-0.2-0.5
				C-135.2-34.3-133.7-35.4-131.1-35.4"/>
		</g>
		<g transform="matrix(4.16667,0,0,4.16667,1388.13,512.542)">
			<path class="st0" d="M-140.2-35.9c3.1,0,4.8,1.7,4.8,4.4v5.2c0,2.7-1.8,4.4-4.8,4.4c-3,0-4.8-1.7-4.8-4.4v-5.2
				C-145-34.2-143.3-35.9-140.2-35.9 M-140.2-34.6c-2.2,0-3.5,1.2-3.5,3.1v5.2c0,2,1.3,3.1,3.5,3.1c2.2,0,3.5-1.2,3.5-3.1v-5.2
				C-136.7-33.4-138-34.6-140.2-34.6"/>
		</g>
		<g transform="matrix(4.16667,0,0,4.16667,1477.22,510.55)">
			<path class="st0" d="M-149.7-35.4c2.7,0,4.3,1.9,4.3,4.1c0,2.9-1.9,3.8-5,5c-1.4,0.5-2.9,1.1-2.9,2.6v0.7h7.4
				c0.3,0,0.4,0.1,0.4,0.4v0.5c0,0.3-0.1,0.4-0.4,0.4h-8.4c-0.3,0-0.4-0.1-0.4-0.4v-1.4c0-2.5,2-3.4,3.9-4.2c2-0.8,3.9-1.4,3.9-3.7
				c0-1.6-1.2-2.8-2.9-2.8c-1.8,0-2.9,0.8-3.5,2.3c-0.1,0.3-0.2,0.3-0.5,0.2l-0.6-0.2c-0.3-0.1-0.3-0.2-0.2-0.5
				C-153.8-34.3-152.3-35.4-149.7-35.4"/>
		</g>
		<g transform="matrix(4.16667,0,0,4.16667,1567.88,507.693)">
			<path class="st0" d="M-159.4-34v12.7c0,0.3-0.1,0.4-0.4,0.4h-0.6c-0.3,0-0.4-0.1-0.4-0.4v-11.4l-4,2.2c-0.3,0.2-0.4,0.1-0.5-0.1
				l-0.3-0.5c-0.1-0.2-0.1-0.4,0.2-0.5l4.6-2.6c0.2-0.1,0.3-0.2,0.5-0.2h0.5C-159.5-34.4-159.4-34.3-159.4-34"/>
		</g>
	</g>
	<g>
		<path class="st0" d="M808.3,397.1h-1.6c-0.8,0-1,0.3-1,1v60.6c0,0.8,0.3,1,1,1h1.6c0.8,0,1-0.3,1-1v-37.1c3.6-1.8,8.6-3,14.5-3
			c9.1,0,13.1,4.7,13.1,13.1v27.1c0,0.8,0.3,1,1,1h1.7c0.7,0,0.9-0.3,0.9-1v-27.2c0-10.2-5-16.3-16.3-16.3c-6.3,0-11.4,1.4-14.9,3
			v-20C809.3,397.4,809.1,397.1,808.3,397.1 M783.6,406.3H782c-0.8,0-1,0.3-1,0.9v9.2h-9.1c-0.7,0-0.9,0.3-0.9,0.9v1.4
			c0,0.7,0.3,0.9,0.9,0.9h9.1v24.6c0,13.1,4.4,16.7,16.9,16.6c0.8,0,1-0.3,1-1v-1.4c0-0.8-0.3-1-1-1c-10.1,0-13.3-2.3-13.3-13.2
			v-24.5h13.5c0.8,0,1-0.3,1-0.9v-1.4c0-0.7-0.3-0.9-1-0.9h-13.5v-9.2C784.6,406.5,784.4,406.3,783.6,406.3 M725.8,412.2
			c-0.3,0.8-0.1,1,0.7,1.4l1.7,0.6c0.7,0.3,1,0.1,1.4-0.6c3.4-7.6,8.6-11.4,17.8-11.4c8.8,0,14.7,6.3,14.7,14.2
			c0,11.3-9.1,14.2-18.4,17.8c-9.2,3.6-18,7.2-18,18.4v6.1c0,0.8,0.3,1.1,1.1,1.1h38.1c0.8,0,1.1-0.3,1.1-1.1v-1.5
			c0-0.8-0.3-1-1.1-1h-35.1v-4.2c0-8.4,7.4-11.3,15.1-14.1c12.1-4.7,21.4-8.5,21.4-21.6c0-9.6-7.4-17.7-18.7-17.7
			C736.2,398.5,729.7,403.2,725.8,412.2 M712.2,399.7h-1.4c-0.8,0-1,0.1-1.5,0.4l-22.8,12.7c-0.6,0.3-0.8,0.8-0.4,1.4l0.8,1.4
			c0.4,0.8,0.8,0.8,1.5,0.4l20.9-11.6v54.2c0,0.8,0.3,1.1,1.1,1.1h1.8c0.8,0,1-0.3,1-1.1v-57.9C713.2,399.9,713,399.7,712.2,399.7
			 M646.8,406.3h-1.6c-0.8,0-1,0.3-1,0.9v9.2H635c-0.7,0-0.9,0.3-0.9,0.9v1.4c0,0.7,0.3,0.9,0.9,0.9h9.1v24.6
			c0,13.1,4.4,16.7,16.9,16.6c0.8,0,1-0.3,1-1v-1.4c0-0.8-0.3-1-1-1c-10.2,0-13.3-2.3-13.3-13.2v-24.5h13.5c0.8,0,1-0.3,1-0.9v-1.4
			c0-0.7-0.3-0.9-1-0.9h-13.5v-9.2C647.8,406.5,647.5,406.3,646.8,406.3 M596.4,427.3c0,10.7,8.3,11.6,17,12.4
			c7.6,0.8,13.3,1.9,13.3,9c0,5.7-4.1,9-13.4,9c-7.4,0-12.3-2.4-14.6-8.6c-0.3-0.8-0.6-0.8-1.3-0.6l-1.4,0.4
			c-0.7,0.3-0.8,0.7-0.6,1.4c3,7.6,9.1,10.7,18,10.7c11.5,0,16.8-4.7,16.8-12.4c0-9.5-7.3-11.2-16.1-12c-8-0.8-14.2-1.3-14.2-9.3
			c0-5.8,4.3-8.8,12.7-8.8c8.3,0,11.8,3,13.6,7.5c0.4,0.6,0.7,0.8,1.4,0.4l1.3-0.5c0.7-0.3,0.8-0.8,0.5-1.4
			c-2.4-5.7-7.2-9.3-16.9-9.3C601.8,415.2,596.4,419.7,596.4,427.3 M585.3,416.4h-1.7c-0.8,0-1,0.3-1,0.9v35.2
			c0,1.3-0.2,2.1-1.8,2.9c-2.8,1.1-7,2.2-12.7,2.2c-9.1,0-13.1-4.6-13.1-13.2v-27.1c0-0.7-0.3-0.9-1-0.9h-1.6c-0.8,0-1,0.3-1,0.9
			v27.2c0,10.2,5,16.3,16.4,16.3c7.4,0,12.1-1.4,15.3-2.7c2.5-1.1,3.1-2.1,3.1-4.7v-36.2C586.3,416.7,586,416.4,585.3,416.4
			 M534.3,420.5c1.9,0.8,2.1,1.1,2.1,2.8v30.6c-2,0.8-7.4,3.1-14.6,3.1c-9,0-13-4.7-13-13v-11.7c0-9.1,4.6-13.8,14.4-13.8
			C528,418.5,531.9,419.6,534.3,420.5 M505.2,432.3v11.8c0,10.2,5,16.2,16.2,16.2c7.2,0,12.9-2.1,15.1-3v5.8c0,9.1-4,14.8-14,14.8
			c-7.3,0-10.8-3.3-13.2-8c-0.4-0.7-0.8-0.8-1.5-0.4l-1.2,0.6c-0.8,0.3-0.8,0.8-0.4,1.6c2.8,5.5,7.4,9.6,16.4,9.6
			c12.6,0,17.5-7.2,17.5-18.3v-40.6c0-2.7-0.6-3.5-3.3-4.7c-3-1.3-7.8-2.5-13.9-2.5C510.8,415.2,505.2,421.2,505.2,432.3
			 M493.9,416.4h-1.7c-0.8,0-1,0.3-1,0.9v35.2c0,1.3-0.2,2.1-1.8,2.9c-2.8,1.1-7,2.2-12.7,2.2c-9.1,0-13.1-4.6-13.1-13.2v-27.1
			c0-0.7-0.3-0.9-1-0.9H461c-0.8,0-1,0.3-1,0.9v27.2c0,10.2,5,16.3,16.4,16.3c7.4,0,12.1-1.4,15.3-2.7c2.5-1.1,3.1-2.1,3.1-4.7
			v-36.2C494.8,416.7,494.6,416.4,493.9,416.4 M429.1,406.8l12,30h-25.8l12-30c0.6-1.7,0.7-3.2,0.7-3.6h0.3
			C428.4,403.6,428.5,405.1,429.1,406.8 M454,458.7l-23.4-58.5c-0.3-0.8-0.7-1-1.4-1h-1.7c-0.8,0-1.1,0.3-1.4,1l-23.4,58.5
			c-0.3,0.6-0.1,1,0.8,1h1.4c1.3,0,1.7-0.2,1.9-0.9l7.4-18.7h28.1l7.5,18.7c0.2,0.8,0.6,0.9,1.9,0.9h1.5
			C454.1,459.7,454.2,459.3,454,458.7 M380.3,435.6h-23.1c-0.8,0-1.1,0.3-1.1,1v1.4c0,0.8,0.3,1,1.1,1h23.1c0.8,0,1-0.3,1-1v-1.4
			C381.3,435.8,381.1,435.6,380.3,435.6 M319.1,406.3h-1.6c-0.8,0-1,0.3-1,0.9v9.2h-9.1c-0.7,0-0.9,0.3-0.9,0.9v1.4
			c0,0.7,0.3,0.9,0.9,0.9h9.1v24.6c0,13.1,4.4,16.7,16.9,16.6c0.8,0,1-0.3,1-1v-1.4c0-0.8-0.3-1-1-1c-10.2,0-13.3-2.3-13.3-13.2
			v-24.5h13.4c0.8,0,1-0.3,1-0.9v-1.4c0-0.7-0.3-0.9-1-0.9h-13.4v-9.2C320.1,406.5,319.8,406.3,319.1,406.3 M268.7,427.3
			c0,10.7,8.3,11.6,17,12.4c7.6,0.8,13.3,1.9,13.3,9c0,5.7-4.1,9-13.4,9c-7.4,0-12.3-2.4-14.6-8.6c-0.3-0.8-0.6-0.8-1.3-0.6
			l-1.4,0.4c-0.7,0.3-0.8,0.7-0.6,1.4c3,7.6,9.1,10.7,18,10.7c11.5,0,16.8-4.7,16.8-12.4c0-9.5-7.3-11.2-16.1-12
			c-8-0.8-14.2-1.3-14.2-9.3c0-5.8,4.3-8.8,12.7-8.8c8.3,0,11.8,3,13.6,7.5c0.4,0.6,0.7,0.8,1.4,0.4l1.3-0.5
			c0.7-0.3,0.8-0.8,0.5-1.4c-2.4-5.7-7.2-9.3-16.9-9.3C274.1,415.2,268.7,419.7,268.7,427.3 M255.5,399.7h-1.4c-0.8,0-1,0.1-1.5,0.4
			l-22.8,12.7c-0.6,0.3-0.8,0.8-0.4,1.4l0.8,1.4c0.4,0.8,0.8,0.8,1.5,0.4l20.9-11.6v54.2c0,0.8,0.3,1.1,1.1,1.1h1.8
			c0.8,0,1-0.3,1-1.1v-57.9C256.6,399.9,256.3,399.7,255.5,399.7 M220.7,415.2c0-10.5-6.1-16.7-18.1-16.7
			c-12.7,0-18.3,5.1-21.1,14.6c-0.3,0.8-0.1,1.2,0.7,1.4l1.6,0.5c0.8,0.3,1.1,0.2,1.4-0.6c2.5-8.5,6.8-12.3,17.3-12.3
			c9.6,0,14.4,4.7,14.4,13.3c0,6.2-3.5,11.8-11.3,11.8h-13.7c-0.8,0-1,0.3-1,1.1v1.4c0,0.8,0.3,1,1,1H206c8.2,0,12.5,5,12.5,12.7
			c0,8.6-4.8,13.9-16,13.9c-11.2,0-15.3-4.3-17.8-12.7c-0.3-0.8-0.6-0.9-1.4-0.7l-1.6,0.6c-0.8,0.3-0.9,0.6-0.7,1.4
			c2.8,9.6,8.4,15.1,21.5,15.1c13.8,0,20-6.9,20-17.5c0-7.2-3.2-12.7-9.9-14.7C218.3,426.5,220.7,421,220.7,415.2 M149.1,416.4h-1.7
			c-0.8,0-1,0.3-1,0.9v36.8c-2.8,1.1-7.6,2.9-14.5,2.9c-9.1,0-13.1-4.6-13.1-13.2v-26.5c0-0.7-0.3-0.9-1-0.9h-1.6
			c-0.8,0-1,0.3-1,0.9V444c0,10.2,5,16.3,16.4,16.3c7.3,0,11.8-1.7,14.8-2.8v5.5c0,9.1-4.1,14.8-14,14.8c-7.3,0-10.9-3.3-13.3-8
			c-0.4-0.7-0.8-0.8-1.6-0.4l-1.1,0.6c-0.8,0.3-0.9,0.8-0.4,1.6c2.8,5.5,7.5,9.6,16.5,9.6c12.7,0,17.6-7.2,17.6-18.3v-45.5
			C150.1,416.7,149.8,416.4,149.1,416.4 M103.3,458.7v-60.6c0-0.8-0.2-1-0.9-1h-1.7c-0.8,0-0.9,0.3-0.9,1v60.6c0,0.8,0.2,1,0.9,1
			h1.7C103.1,459.7,103.3,459.5,103.3,458.7 M86.6,416.4h-1.7c-0.8,0-1,0.3-1,0.9v35.2c0,1.3-0.2,2.1-1.8,2.9
			c-2.8,1.1-7,2.2-12.7,2.2c-9.1,0-13.1-4.6-13.1-13.2v-27.1c0-0.7-0.3-0.9-1-0.9h-1.6c-0.8,0-1,0.3-1,0.9v27.2
			c0,10.2,5,16.3,16.4,16.3c7.4,0,12.1-1.4,15.3-2.7c2.5-1.1,3.1-2.1,3.1-4.7v-36.2C87.5,416.7,87.3,416.4,86.6,416.4 M40.2,399.7
			h-1.9c-0.8,0-1,0.3-1,1v40.7c0,9.9-5.6,15.9-16.1,15.9c-9.6,0-14.2-5.2-15.9-14.3c-0.3-0.8-0.7-0.9-1.4-0.7l-1.7,0.6
			c-0.8,0.3-0.9,0.7-0.7,1.4c2,10.4,8,16.7,19.6,16.7c12.9,0,20-7.6,20-19.6v-40.7C41.2,399.9,40.9,399.7,40.2,399.7"/>
	</g>
</g>
</svg>
