<?xml version="1.0" encoding="UTF-8" standalone="no"?>
<!DOCTYPE svg PUBLIC "-//W3C//DTD SVG 1.1//EN" "http://www.w3.org/Graphics/SVG/1.1/DTD/svg11.dtd">
<svg width="100%" height="100%" viewBox="0 0 1157 854" version="1.1" xmlns="http://www.w3.org/2000/svg" xmlns:xlink="http://www.w3.org/1999/xlink" xml:space="preserve" xmlns:serif="http://www.serif.com/" style="fill-rule:evenodd;clip-rule:evenodd;stroke-miterlimit:10;">
    <g transform="matrix(1,0,0,1,1.76787e-05,-3.07657e-05)">
        <g>
            <g transform="matrix(1,0,0,1,-4.9252,-23.0672)">
                <path d="M676.574,163.847C602.464,161.008 531.88,134.604 464.48,105.716C397.08,76.828 330.318,44.823 257.983,29.516C211.459,19.671 158.255,18.278 120.768,45.807C84.694,72.298 73.038,118.027 66.771,160.458C62.056,192.382 59.284,225.98 72.203,255.867C81.172,276.615 97.098,294.057 108.111,313.93C146.432,383.085 119.346,468.36 77.818,535.883C58.338,567.556 35.742,597.773 20.71,631.491C5.678,665.208 -1.276,703.843 11.876,738.238C24.912,772.329 55.977,797.937 89.629,815.947C157.976,852.527 238.516,862.997 317.053,868.926C490.904,882.052 665.683,876.369 839.996,870.678C904.505,868.571 969.298,866.437 1032.76,855.428C1068,849.315 1104.38,839.612 1129.97,816.188C1162.45,786.451 1170.5,736.099 1148.73,698.813C1112.23,636.27 1011.29,620.735 985.778,553.616C971.733,516.67 986.157,475.517 1006.57,441.253C1050.35,367.748 1123.74,303.263 1127.61,219.246C1130.26,161.542 1094.98,103.753 1040.43,76.451C983.252,47.833 903.962,51.433 861.779,98.805C818.342,147.585 742.007,166.355 676.574,163.847Z" style="fill:rgb(248,113,113);fill-opacity:0.1;fill-rule:nonzero;"/>
            </g>
            <g transform="matrix(1,0,0,1,-4.9252,-23.0672)">
                <path d="M415.425,585.396C415.425,585.396 437.425,577.821 453.425,585.396C469.425,592.97 495.425,587.921 503.425,583.881C511.425,579.841 547.425,585.396 551.425,589.436C555.425,593.475 571.425,598.525 582.425,594.485C593.425,590.446 615.425,581.356 624.425,586.911" style="fill:rgb(33,150,243);fill-rule:nonzero;"/>
            </g>
            <g transform="matrix(1,0,0,1,-4.9252,-23.0672)">
                <path d="M415.425,585.396C415.425,585.396 437.425,577.821 453.425,585.396C469.425,592.97 495.425,587.921 503.425,583.881C511.425,579.841 547.425,585.396 551.425,589.436C555.425,593.475 571.425,598.525 582.425,594.485C593.425,590.446 615.425,581.356 624.425,586.911" style="fill-opacity:0.2;fill-rule:nonzero;"/>
            </g>
            <g transform="matrix(1,0,0,1,-4.9252,-23.0672)">
                <path d="M336.425,526.029C336.425,526.029 386.846,511.029 423.516,526.029C460.186,541.029 519.774,531.029 538.109,523.029C556.444,515.029 638.952,526.029 648.119,534.029C657.286,542.029 693.956,552.029 719.167,544.029C744.377,536.029 794.798,518.029 815.425,529.029" style="fill:rgb(33,150,243);fill-rule:nonzero;"/>
            </g>
            <g transform="matrix(1,0,0,1,-4.9252,-23.0672)">
                <path d="M336.425,526.029C336.425,526.029 386.846,511.029 423.516,526.029C460.186,541.029 519.774,531.029 538.109,523.029C556.444,515.029 638.952,526.029 648.119,534.029C657.286,542.029 693.956,552.029 719.167,544.029C744.377,536.029 794.798,518.029 815.425,529.029" style="fill-opacity:0.2;fill-rule:nonzero;"/>
            </g>
            <ellipse cx="331.454" cy="200.376" rx="48.046" ry="47.413" style="fill:url(#_Linear1);"/>
            <circle cx="331.454" cy="200.376" r="41.883" style="fill:rgb(255,152,0);"/>
            <rect x="128.5" y="448.962" width="879" height="17" style="fill:rgb(248,113,113);"/>
            <rect x="557" y="391.933" width="6" height="68" style="fill:rgb(248,113,113);"/>
            <rect x="225.075" y="204.933" width="6" height="255" style="fill:rgb(248,113,113);"/>
            <rect x="906.075" y="204.933" width="6" height="255" style="fill:rgb(248,113,113);"/>
            <g transform="matrix(1,0,0,1,-4.9252,-23.0672)">
                <path d="M913.925,229.529C562.925,705.529 231.925,229.529 231.925,229.529" style="fill:none;fill-rule:nonzero;stroke:rgb(248,113,113);stroke-width:2px;"/>
            </g>
            <path d="M532.53,414.752L532.53,448.962" style="fill:none;fill-rule:nonzero;stroke:rgb(248,113,113);stroke-width:1px;"/>
            <path d="M604.5,418.018L604.5,448.962" style="fill:none;fill-rule:nonzero;stroke:rgb(248,113,113);stroke-width:1px;"/>
            <path d="M459.851,395.073L459.851,448.962" style="fill:none;fill-rule:nonzero;stroke:rgb(248,113,113);stroke-width:1px;"/>
            <path d="M390.355,359.787L390.355,448.962" style="fill:none;fill-rule:nonzero;stroke:rgb(248,113,113);stroke-width:1px;"/>
            <path d="M319.138,306.462L319.138,448.962" style="fill:none;fill-rule:nonzero;stroke:rgb(248,113,113);stroke-width:1px;"/>
            <path d="M677.235,399.96L677.235,448.962" style="fill:none;fill-rule:nonzero;stroke:rgb(248,113,113);stroke-width:1px;"/>
            <path d="M751.553,362.462L751.553,448.462" style="fill:none;fill-rule:nonzero;stroke:rgb(248,113,113);stroke-width:1px;"/>
            <path d="M821.831,306.462L821.831,448.962" style="fill:none;fill-rule:nonzero;stroke:rgb(248,113,113);stroke-width:1px;"/>
            <path d="M281.484,270.612L281.484,448.962" style="fill:none;fill-rule:nonzero;stroke:rgb(248,113,113);stroke-width:1px;"/>
            <path d="M856.797,270.612L856.797,448.962" style="fill:none;fill-rule:nonzero;stroke:rgb(248,113,113);stroke-width:1px;"/>
            <path d="M355.345,335.821L355.345,448.462" style="fill:none;fill-rule:nonzero;stroke:rgb(248,113,113);stroke-width:1px;"/>
            <path d="M426.826,380.31L426.826,448.962" style="fill:none;fill-rule:nonzero;stroke:rgb(248,113,113);stroke-width:1px;"/>
            <path d="M490.301,405.462L490.301,448.462" style="fill:none;fill-rule:nonzero;stroke:rgb(248,113,113);stroke-width:1px;"/>
            <path d="M643.525,410.065L643.525,448.962" style="fill:none;fill-rule:nonzero;stroke:rgb(248,113,113);stroke-width:1px;"/>
            <path d="M713.248,384.459L713.248,448.962" style="fill:none;fill-rule:nonzero;stroke:rgb(248,113,113);stroke-width:1px;"/>
            <path d="M783.447,339.626L783.447,448.462" style="fill:none;fill-rule:nonzero;stroke:rgb(248,113,113);stroke-width:1px;"/>
            <g transform="matrix(1,0,0,1,-4.9252,-23.0672)">
                <path d="M335.425,622.396C335.425,622.396 344.478,614.821 351.062,622.396C357.645,629.97 368.344,624.921 371.636,620.881C374.928,616.841 389.741,622.396 391.387,626.436C393.033,630.475 399.617,635.525 404.143,631.485C408.669,627.446 417.722,618.356 421.425,623.911" style="fill:rgb(33,150,243);fill-rule:nonzero;"/>
            </g>
            <g transform="matrix(1,0,0,1,-4.9252,-23.0672)">
                <path d="M335.425,622.396C335.425,622.396 344.478,614.821 351.062,622.396C357.645,629.97 368.344,624.921 371.636,620.881C374.928,616.841 389.741,622.396 391.387,626.436C393.033,630.475 399.617,635.525 404.143,631.485C408.669,627.446 417.722,618.356 421.425,623.911" style="fill-opacity:0.2;fill-rule:nonzero;"/>
            </g>
            <g transform="matrix(1,0,0,1,-4.9252,-23.0672)">
                <path d="M175.425,549.396C175.425,549.396 184.478,541.821 191.062,549.396C197.645,556.97 208.344,551.921 211.636,547.881C214.928,543.841 229.741,549.396 231.387,553.436C233.033,557.475 239.617,562.525 244.143,558.485C248.669,554.446 257.722,545.356 261.425,550.911" style="fill:rgb(33,150,243);fill-rule:nonzero;"/>
            </g>
            <g transform="matrix(1,0,0,1,-4.9252,-23.0672)">
                <path d="M175.425,549.396C175.425,549.396 184.478,541.821 191.062,549.396C197.645,556.97 208.344,551.921 211.636,547.881C214.928,543.841 229.741,549.396 231.387,553.436C233.033,557.475 239.617,562.525 244.143,558.485C248.669,554.446 257.722,545.356 261.425,550.911" style="fill-opacity:0.2;fill-rule:nonzero;"/>
            </g>
            <g transform="matrix(1,0,0,1,-4.9252,-23.0672)">
                <path d="M81.425,636.396C81.425,636.396 90.478,628.821 97.062,636.396C103.645,643.97 114.344,638.921 117.636,634.881C120.928,630.841 135.741,636.396 137.387,640.436C139.033,644.475 145.617,649.525 150.143,645.485C154.669,641.446 163.722,632.356 167.425,637.911" style="fill:rgb(33,150,243);fill-rule:nonzero;"/>
            </g>
            <g transform="matrix(1,0,0,1,-4.9252,-23.0672)">
                <path d="M81.425,636.396C81.425,636.396 90.478,628.821 97.062,636.396C103.645,643.97 114.344,638.921 117.636,634.881C120.928,630.841 135.741,636.396 137.387,640.436C139.033,644.475 145.617,649.525 150.143,645.485C154.669,641.446 163.722,632.356 167.425,637.911" style="fill-opacity:0.2;fill-rule:nonzero;"/>
            </g>
            <g transform="matrix(1,0,0,1,-4.9252,-23.0672)">
                <path d="M807.425,562.396C807.425,562.396 816.478,554.821 823.062,562.396C829.645,569.97 840.344,564.921 843.636,560.881C846.928,556.841 861.741,562.396 863.387,566.436C865.033,570.475 871.617,575.525 876.143,571.485C880.669,567.446 889.722,558.356 893.425,563.911" style="fill:rgb(33,150,243);fill-rule:nonzero;"/>
            </g>
            <g transform="matrix(1,0,0,1,-4.9252,-23.0672)">
                <path d="M807.425,562.396C807.425,562.396 816.478,554.821 823.062,562.396C829.645,569.97 840.344,564.921 843.636,560.881C846.928,556.841 861.741,562.396 863.387,566.436C865.033,570.475 871.617,575.525 876.143,571.485C880.669,567.446 889.722,558.356 893.425,563.911" style="fill-opacity:0.2;fill-rule:nonzero;"/>
            </g>
            <g transform="matrix(1,0,0,1,-4.9252,-23.0672)">
                <path d="M952.425,691.396C952.425,691.396 961.478,683.821 968.062,691.396C974.645,698.97 985.344,693.921 988.636,689.881C991.928,685.841 1006.74,691.396 1008.39,695.436C1010.03,699.475 1016.62,704.525 1021.14,700.485C1025.67,696.446 1034.72,687.356 1038.42,692.911" style="fill:rgb(33,150,243);fill-rule:nonzero;"/>
            </g>
            <g transform="matrix(1,0,0,1,-4.9252,-23.0672)">
                <path d="M952.425,691.396C952.425,691.396 961.478,683.821 968.062,691.396C974.645,698.97 985.344,693.921 988.636,689.881C991.928,685.841 1006.74,691.396 1008.39,695.436C1010.03,699.475 1016.62,704.525 1021.14,700.485C1025.67,696.446 1034.72,687.356 1038.42,692.911" style="fill-opacity:0.2;fill-rule:nonzero;"/>
            </g>
            <g transform="matrix(1,0,0,1,-4.9252,-23.0672)">
                <path d="M230.425,698.396C230.425,698.396 261.688,690.821 284.425,698.396C307.162,705.97 344.109,700.921 355.478,696.881C366.846,692.841 418.004,698.396 423.688,702.436C429.373,706.475 452.109,711.525 467.741,707.485C483.373,703.446 514.636,694.356 527.425,699.911" style="fill:rgb(33,150,243);fill-rule:nonzero;"/>
            </g>
            <g transform="matrix(1,0,0,1,-4.9252,-23.0672)">
                <path d="M137.425,771.637C137.425,771.637 168.688,763.52 191.425,771.637C214.162,779.755 251.109,774.343 262.478,770.014C273.846,765.684 325.004,771.637 330.688,775.967C336.373,780.296 359.109,785.708 374.741,781.379C390.373,777.049 421.636,767.308 434.425,773.261" style="fill:rgb(33,150,243);fill-rule:nonzero;"/>
            </g>
            <g transform="matrix(1,0,0,1,-4.9252,-23.0672)">
                <path d="M475.425,785.396C475.425,785.396 488.583,777.821 498.152,785.396C507.722,792.97 523.272,787.921 528.057,783.881C532.841,779.841 554.373,785.396 556.765,789.436C559.157,793.475 568.727,798.525 575.306,794.485C581.885,790.446 595.042,781.356 600.425,786.911" style="fill:rgb(33,150,243);fill-rule:nonzero;"/>
            </g>
            <g transform="matrix(1,0,0,1,-4.9252,-23.0672)">
                <path d="M837.425,750.396C837.425,750.396 850.583,742.821 860.152,750.396C869.722,757.97 885.272,752.921 890.057,748.881C894.841,744.841 916.373,750.396 918.765,754.436C921.157,758.475 930.727,763.525 937.306,759.485C943.885,755.446 957.042,746.356 962.425,751.911" style="fill:rgb(33,150,243);fill-rule:nonzero;"/>
            </g>
            <g transform="matrix(1,0,0,1,-4.9252,-23.0672)">
                <path d="M600.425,691.396C600.425,691.396 613.583,683.821 623.152,691.396C632.722,698.97 648.272,693.921 653.057,689.881C657.841,685.841 679.373,691.396 681.765,695.436C684.157,699.475 693.727,704.525 700.306,700.485C706.885,696.446 720.042,687.356 725.425,692.911" style="fill:rgb(33,150,243);fill-rule:nonzero;"/>
            </g>
            <g transform="matrix(1,0,0,1,-4.9252,-23.0672)">
                <path d="M655.425,797.396C655.425,797.396 668.583,789.821 678.152,797.396C687.722,804.97 703.272,799.921 708.057,795.881C712.841,791.841 734.373,797.396 736.765,801.436C739.157,805.475 748.727,810.525 755.306,806.485C761.885,802.446 775.042,793.356 780.425,798.911" style="fill:rgb(33,150,243);fill-rule:nonzero;"/>
            </g>
            <g transform="matrix(1,0,0,1,-4.9252,-23.0672)">
                <path d="M758.425,643.396C758.425,643.396 775.057,635.821 787.152,643.396C799.248,650.97 818.904,645.921 824.951,641.881C830.999,637.841 858.215,643.396 861.239,647.436C864.262,651.475 876.358,656.525 884.674,652.485C892.99,648.446 909.621,639.356 916.425,644.911" style="fill:rgb(33,150,243);fill-rule:nonzero;"/>
            </g>
            <g transform="matrix(1,0,0,1,-4.9252,-23.0672)">
                <path d="M758.425,643.396C758.425,643.396 775.057,635.821 787.152,643.396C799.248,650.97 818.904,645.921 824.951,641.881C830.999,637.841 858.215,643.396 861.239,647.436C864.262,651.475 876.358,656.525 884.674,652.485C892.99,648.446 909.621,639.356 916.425,644.911" style="fill-opacity:0.2;fill-rule:nonzero;"/>
            </g>
            <path d="M718.518,431.473C718.518,430.837 718.002,430.321 717.367,430.321C716.731,430.321 716.215,430.837 716.215,431.473L716.215,443.564C716.215,444.199 716.731,444.715 717.367,444.715C718.002,444.715 718.518,444.199 718.518,443.564L718.518,431.473Z" style="fill:rgb(248,113,113);"/>
            <path d="M747.945,431.473C747.945,430.837 747.43,430.321 746.794,430.321C746.158,430.321 745.642,430.837 745.642,431.473L745.642,442.988C745.642,443.624 746.158,444.139 746.794,444.139C747.43,444.139 747.945,443.624 747.945,442.988L747.945,431.473Z" style="fill:rgb(248,113,113);"/>
            <path d="M751.806,431.117C751.806,429.912 750.827,428.933 749.621,428.933L714.603,428.933C713.398,428.933 712.419,429.912 712.419,431.117C712.419,432.323 713.398,433.301 714.603,433.301L749.621,433.301C750.827,433.301 751.806,432.323 751.806,431.117Z" style="fill:url(#_Linear2);"/>
            <path d="M751.854,435.66C751.854,434.455 750.875,433.476 749.67,433.476L714.652,433.476C713.446,433.476 712.468,434.455 712.468,435.66C712.468,436.866 713.446,437.845 714.652,437.845L749.67,437.845C750.875,437.845 751.854,436.866 751.854,435.66Z" style="fill:url(#_Linear3);"/>
            <path d="M751.903,440.204C751.903,438.998 750.924,438.02 749.718,438.02L714.7,438.02C713.495,438.02 712.516,438.998 712.516,440.204C712.516,441.409 713.495,442.388 714.7,442.388L749.718,442.388C750.924,442.388 751.903,441.409 751.903,440.204Z" style="fill:url(#_Linear4);"/>
            <path d="M751.4,430.897C751.4,429.944 750.626,429.17 749.673,429.17L714.552,429.17C713.599,429.17 712.825,429.944 712.825,430.897L712.825,430.897C712.825,431.851 713.599,432.624 714.552,432.624L749.673,432.624C750.626,432.624 751.4,431.851 751.4,430.897L751.4,430.897Z" style="fill:rgb(204,204,204);"/>
            <path d="M751.4,435.503C751.4,434.55 750.626,433.776 749.673,433.776L714.552,433.776C713.599,433.776 712.825,434.55 712.825,435.503L712.825,435.503C712.825,436.457 713.599,437.23 714.552,437.23L749.673,437.23C750.626,437.23 751.4,436.457 751.4,435.503L751.4,435.503Z" style="fill:rgb(204,204,204);"/>
            <path d="M751.4,440.109C751.4,439.156 750.626,438.382 749.673,438.382L714.552,438.382C713.599,438.382 712.825,439.156 712.825,440.109L712.825,440.109C712.825,441.063 713.599,441.836 714.552,441.836L749.673,441.836C750.626,441.836 751.4,441.063 751.4,440.109L751.4,440.109Z" style="fill:rgb(204,204,204);"/>
            <path d="M751.4,444.139C751.4,443.186 750.626,442.412 749.673,442.412L714.552,442.412C713.599,442.412 712.825,443.186 712.825,444.139L712.825,444.139C712.825,445.093 713.599,445.867 714.552,445.867L749.673,445.867C750.626,445.867 751.4,445.093 751.4,444.139L751.4,444.139Z" style="fill:rgb(248,113,113);"/>
            <circle cx="717.367" cy="430.897" r="0.576" style="fill:rgb(248,113,113);"/>
            <circle cx="717.367" cy="435.503" r="0.576" style="fill:rgb(248,113,113);"/>
            <circle cx="717.367" cy="440.109" r="0.576" style="fill:rgb(248,113,113);"/>
            <circle cx="746.794" cy="440.109" r="0.576" style="fill:rgb(248,113,113);"/>
            <circle cx="746.794" cy="435.503" r="0.576" style="fill:rgb(248,113,113);"/>
            <circle cx="746.794" cy="430.897" r="0.576" style="fill:rgb(248,113,113);"/>
            <path d="M717.643,446.165C717.643,445.682 717.252,445.291 716.769,445.291L716.769,445.291C716.287,445.291 715.896,445.682 715.896,446.165L715.896,453.629C715.896,454.111 716.287,454.503 716.769,454.503L716.769,454.503C717.252,454.503 717.643,454.111 717.643,453.629L717.643,446.165Z" style="fill:url(#_Linear5);"/>
            <path d="M748.223,446.252C748.223,445.77 747.832,445.378 747.35,445.378L747.35,445.378C746.867,445.378 746.476,445.77 746.476,446.252L746.476,453.717C746.476,454.199 746.867,454.59 747.35,454.59L747.35,454.59C747.832,454.59 748.223,454.199 748.223,453.717L748.223,446.252Z" style="fill:url(#_Linear6);"/>
            <path d="M717.367,445.867C717.367,445.549 717.109,445.291 716.791,445.291C716.473,445.291 716.215,445.549 716.215,445.867L716.215,453.927C716.215,454.245 716.473,454.503 716.791,454.503C717.109,454.503 717.367,454.245 717.367,453.927L717.367,445.867Z" style="fill:rgb(248,113,113);"/>
            <path d="M747.945,445.867C747.945,445.549 747.688,445.291 747.37,445.291C747.052,445.291 746.794,445.549 746.794,445.867L746.794,453.927C746.794,454.245 747.052,454.503 747.37,454.503C747.688,454.503 747.945,454.245 747.945,453.927L747.945,445.867Z" style="fill:rgb(248,113,113);"/>
            <path d="M430.518,431.473C430.518,430.837 430.002,430.321 429.367,430.321C428.731,430.321 428.215,430.837 428.215,431.473L428.215,443.564C428.215,444.199 428.731,444.715 429.367,444.715C430.002,444.715 430.518,444.199 430.518,443.564L430.518,431.473Z" style="fill:rgb(248,113,113);"/>
            <path d="M459.945,431.473C459.945,430.837 459.43,430.321 458.794,430.321C458.158,430.321 457.642,430.837 457.642,431.473L457.642,442.988C457.642,443.624 458.158,444.139 458.794,444.139C459.43,444.139 459.945,443.624 459.945,442.988L459.945,431.473Z" style="fill:rgb(248,113,113);"/>
            <path d="M463.806,431.117C463.806,429.912 462.827,428.933 461.621,428.933L426.603,428.933C425.398,428.933 424.419,429.912 424.419,431.117C424.419,432.323 425.398,433.301 426.603,433.301L461.621,433.301C462.827,433.301 463.806,432.323 463.806,431.117Z" style="fill:url(#_Linear7);"/>
            <path d="M463.854,435.66C463.854,434.455 462.875,433.476 461.67,433.476L426.652,433.476C425.446,433.476 424.468,434.455 424.468,435.66C424.468,436.866 425.446,437.845 426.652,437.845L461.67,437.845C462.875,437.845 463.854,436.866 463.854,435.66Z" style="fill:url(#_Linear8);"/>
            <path d="M463.903,440.204C463.903,438.998 462.924,438.02 461.718,438.02L426.7,438.02C425.495,438.02 424.516,438.998 424.516,440.204C424.516,441.409 425.495,442.388 426.7,442.388L461.718,442.388C462.924,442.388 463.903,441.409 463.903,440.204Z" style="fill:url(#_Linear9);"/>
            <path d="M463.4,430.897C463.4,429.944 462.626,429.17 461.673,429.17L426.552,429.17C425.599,429.17 424.825,429.944 424.825,430.897L424.825,430.897C424.825,431.851 425.599,432.624 426.552,432.624L461.673,432.624C462.626,432.624 463.4,431.851 463.4,430.897L463.4,430.897Z" style="fill:rgb(204,204,204);"/>
            <path d="M463.4,435.503C463.4,434.55 462.626,433.776 461.673,433.776L426.552,433.776C425.599,433.776 424.825,434.55 424.825,435.503L424.825,435.503C424.825,436.457 425.599,437.23 426.552,437.23L461.673,437.23C462.626,437.23 463.4,436.457 463.4,435.503L463.4,435.503Z" style="fill:rgb(204,204,204);"/>
            <path d="M463.4,440.109C463.4,439.156 462.626,438.382 461.673,438.382L426.552,438.382C425.599,438.382 424.825,439.156 424.825,440.109L424.825,440.109C424.825,441.063 425.599,441.836 426.552,441.836L461.673,441.836C462.626,441.836 463.4,441.063 463.4,440.109L463.4,440.109Z" style="fill:rgb(204,204,204);"/>
            <path d="M463.4,444.139C463.4,443.186 462.626,442.412 461.673,442.412L426.552,442.412C425.599,442.412 424.825,443.186 424.825,444.139L424.825,444.139C424.825,445.093 425.599,445.867 426.552,445.867L461.673,445.867C462.626,445.867 463.4,445.093 463.4,444.139L463.4,444.139Z" style="fill:rgb(248,113,113);"/>
            <circle cx="429.367" cy="430.897" r="0.576" style="fill:rgb(248,113,113);"/>
            <circle cx="429.367" cy="435.503" r="0.576" style="fill:rgb(248,113,113);"/>
            <circle cx="429.367" cy="440.109" r="0.576" style="fill:rgb(248,113,113);"/>
            <circle cx="458.794" cy="440.109" r="0.576" style="fill:rgb(248,113,113);"/>
            <circle cx="458.794" cy="435.503" r="0.576" style="fill:rgb(248,113,113);"/>
            <circle cx="458.794" cy="430.897" r="0.576" style="fill:rgb(248,113,113);"/>
            <path d="M429.643,446.165C429.643,445.682 429.252,445.291 428.769,445.291L428.769,445.291C428.287,445.291 427.896,445.682 427.896,446.165L427.896,453.629C427.896,454.111 428.287,454.503 428.769,454.503L428.769,454.503C429.252,454.503 429.643,454.111 429.643,453.629L429.643,446.165Z" style="fill:url(#_Linear10);"/>
            <path d="M460.223,446.252C460.223,445.77 459.832,445.378 459.35,445.378L459.35,445.378C458.867,445.378 458.476,445.77 458.476,446.252L458.476,453.717C458.476,454.199 458.867,454.59 459.35,454.59L459.35,454.59C459.832,454.59 460.223,454.199 460.223,453.717L460.223,446.252Z" style="fill:url(#_Linear11);"/>
            <path d="M429.367,445.867C429.367,445.549 429.109,445.291 428.791,445.291C428.473,445.291 428.215,445.549 428.215,445.867L428.215,453.927C428.215,454.245 428.473,454.503 428.791,454.503C429.109,454.503 429.367,454.245 429.367,453.927L429.367,445.867Z" style="fill:rgb(248,113,113);"/>
            <path d="M459.945,445.867C459.945,445.549 459.688,445.291 459.37,445.291C459.052,445.291 458.794,445.549 458.794,445.867L458.794,453.927C458.794,454.245 459.052,454.503 459.37,454.503C459.688,454.503 459.945,454.245 459.945,453.927L459.945,445.867Z" style="fill:rgb(248,113,113);"/>
            <path d="M286.518,431.473C286.518,430.837 286.002,430.321 285.367,430.321C284.731,430.321 284.215,430.837 284.215,431.473L284.215,443.564C284.215,444.199 284.731,444.715 285.367,444.715C286.002,444.715 286.518,444.199 286.518,443.564L286.518,431.473Z" style="fill:rgb(248,113,113);"/>
            <path d="M315.945,431.473C315.945,430.837 315.43,430.321 314.794,430.321C314.158,430.321 313.642,430.837 313.642,431.473L313.642,442.988C313.642,443.624 314.158,444.139 314.794,444.139C315.43,444.139 315.945,443.624 315.945,442.988L315.945,431.473Z" style="fill:rgb(248,113,113);"/>
            <path d="M319.806,431.117C319.806,429.912 318.827,428.933 317.621,428.933L282.603,428.933C281.398,428.933 280.419,429.912 280.419,431.117C280.419,432.323 281.398,433.301 282.603,433.301L317.621,433.301C318.827,433.301 319.806,432.323 319.806,431.117Z" style="fill:url(#_Linear12);"/>
            <path d="M319.854,435.66C319.854,434.455 318.875,433.476 317.67,433.476L282.652,433.476C281.446,433.476 280.468,434.455 280.468,435.66C280.468,436.866 281.446,437.845 282.652,437.845L317.67,437.845C318.875,437.845 319.854,436.866 319.854,435.66Z" style="fill:url(#_Linear13);"/>
            <path d="M319.903,440.204C319.903,438.998 318.924,438.02 317.718,438.02L282.7,438.02C281.495,438.02 280.516,438.998 280.516,440.204C280.516,441.409 281.495,442.388 282.7,442.388L317.718,442.388C318.924,442.388 319.903,441.409 319.903,440.204Z" style="fill:url(#_Linear14);"/>
            <path d="M319.4,430.897C319.4,429.944 318.626,429.17 317.673,429.17L282.552,429.17C281.599,429.17 280.825,429.944 280.825,430.897L280.825,430.897C280.825,431.851 281.599,432.624 282.552,432.624L317.673,432.624C318.626,432.624 319.4,431.851 319.4,430.897L319.4,430.897Z" style="fill:rgb(204,204,204);"/>
            <path d="M319.4,435.503C319.4,434.55 318.626,433.776 317.673,433.776L282.552,433.776C281.599,433.776 280.825,434.55 280.825,435.503L280.825,435.503C280.825,436.457 281.599,437.23 282.552,437.23L317.673,437.23C318.626,437.23 319.4,436.457 319.4,435.503L319.4,435.503Z" style="fill:rgb(204,204,204);"/>
            <path d="M319.4,440.109C319.4,439.156 318.626,438.382 317.673,438.382L282.552,438.382C281.599,438.382 280.825,439.156 280.825,440.109L280.825,440.109C280.825,441.063 281.599,441.836 282.552,441.836L317.673,441.836C318.626,441.836 319.4,441.063 319.4,440.109L319.4,440.109Z" style="fill:rgb(204,204,204);"/>
            <path d="M319.4,444.139C319.4,443.186 318.626,442.412 317.673,442.412L282.552,442.412C281.599,442.412 280.825,443.186 280.825,444.139L280.825,444.139C280.825,445.093 281.599,445.867 282.552,445.867L317.673,445.867C318.626,445.867 319.4,445.093 319.4,444.139L319.4,444.139Z" style="fill:rgb(248,113,113);"/>
            <circle cx="285.367" cy="430.897" r="0.576" style="fill:rgb(248,113,113);"/>
            <circle cx="285.367" cy="435.503" r="0.576" style="fill:rgb(248,113,113);"/>
            <circle cx="285.367" cy="440.109" r="0.576" style="fill:rgb(248,113,113);"/>
            <circle cx="314.794" cy="440.109" r="0.576" style="fill:rgb(248,113,113);"/>
            <circle cx="314.794" cy="435.503" r="0.576" style="fill:rgb(248,113,113);"/>
            <circle cx="314.794" cy="430.897" r="0.576" style="fill:rgb(248,113,113);"/>
            <path d="M285.643,446.165C285.643,445.682 285.252,445.291 284.769,445.291L284.769,445.291C284.287,445.291 283.896,445.682 283.896,446.165L283.896,453.629C283.896,454.111 284.287,454.503 284.769,454.503L284.769,454.503C285.252,454.503 285.643,454.111 285.643,453.629L285.643,446.165Z" style="fill:url(#_Linear15);"/>
            <path d="M316.223,446.252C316.223,445.77 315.832,445.378 315.35,445.378L315.35,445.378C314.867,445.378 314.476,445.77 314.476,446.252L314.476,453.717C314.476,454.199 314.867,454.59 315.35,454.59L315.35,454.59C315.832,454.59 316.223,454.199 316.223,453.717L316.223,446.252Z" style="fill:url(#_Linear16);"/>
            <path d="M285.367,445.867C285.367,445.549 285.109,445.291 284.791,445.291C284.473,445.291 284.215,445.549 284.215,445.867L284.215,453.927C284.215,454.245 284.473,454.503 284.791,454.503C285.109,454.503 285.367,454.245 285.367,453.927L285.367,445.867Z" style="fill:rgb(248,113,113);"/>
            <path d="M315.945,445.867C315.945,445.549 315.688,445.291 315.37,445.291C315.052,445.291 314.794,445.549 314.794,445.867L314.794,453.927C314.794,454.245 315.052,454.503 315.37,454.503C315.688,454.503 315.945,454.245 315.945,453.927L315.945,445.867Z" style="fill:rgb(248,113,113);"/>
            <g transform="matrix(1,0,0,1,-4.9252,-23.0672)">
                <path d="M565.425,209L561.874,209C561.908,208.835 561.925,208.667 561.925,208.499C561.925,207.128 560.797,206 559.426,206C559.426,206 559.426,206 559.425,206L481.425,206C480.054,206 478.925,207.129 478.925,208.5C478.925,209.871 480.054,211 481.425,211L484.976,211C484.942,211.165 484.925,211.333 484.925,211.501C484.925,212.872 486.053,214 487.424,214C487.424,214 487.425,214 487.425,214L474.425,214C473.054,214 471.925,215.129 471.925,216.5C471.925,217.871 473.054,219 474.425,219L552.425,219C553.797,219 554.925,217.871 554.925,216.5C554.925,215.129 553.797,214 552.425,214L565.425,214C566.797,214 567.925,212.871 567.925,211.5C567.925,210.129 566.797,209 565.425,209Z" style="fill:rgb(248,113,113);fill-opacity:0.1;fill-rule:nonzero;"/>
            </g>
            <g transform="matrix(1,0,0,1,-4.9252,-23.0672)">
                <path d="M962.425,169L958.874,169C958.908,168.835 958.925,168.667 958.925,168.499C958.925,167.128 957.797,166 956.426,166C956.426,166 956.426,166 956.425,166L878.425,166C877.054,166 875.925,167.129 875.925,168.5C875.925,169.871 877.054,171 878.425,171L881.976,171C881.942,171.165 881.925,171.333 881.925,171.501C881.925,172.872 883.053,174 884.424,174C884.424,174 884.425,174 884.425,174L871.425,174C870.054,174 868.925,175.129 868.925,176.5C868.925,177.871 870.054,179 871.425,179L949.425,179C950.797,179 951.925,177.871 951.925,176.5C951.925,175.129 950.797,174 949.425,174L962.425,174C963.797,174 964.925,172.871 964.925,171.5C964.925,170.129 963.797,169 962.425,169Z" style="fill:rgb(248,113,113);fill-opacity:0.1;fill-rule:nonzero;"/>
            </g>
            <g transform="matrix(1,0,0,1,-4.9252,-23.0672)">
                <path d="M782.425,290L778.874,290C778.908,289.835 778.925,289.667 778.925,289.499C778.925,288.128 777.797,287 776.426,287C776.426,287 776.426,287 776.425,287L698.425,287C697.054,287 695.925,288.129 695.925,289.5C695.925,290.871 697.054,292 698.425,292L701.976,292C701.942,292.165 701.925,292.333 701.925,292.501C701.925,293.872 703.053,295 704.424,295C704.424,295 704.425,295 704.425,295L691.425,295C690.054,295 688.925,296.129 688.925,297.5C688.925,298.871 690.054,300 691.425,300L769.425,300C770.797,300 771.925,298.871 771.925,297.5C771.925,296.129 770.797,295 769.425,295L782.425,295C783.797,295 784.925,293.871 784.925,292.5C784.925,291.129 783.797,290 782.425,290Z" style="fill:rgb(248,113,113);fill-opacity:0.1;fill-rule:nonzero;"/>
            </g>
        </g>
    </g>
    <defs>
        <linearGradient id="_Linear1" x1="0" y1="0" x2="1" y2="0" gradientUnits="userSpaceOnUse" gradientTransform="matrix(5.80647e-15,-94.8268,94.8268,5.80647e-15,331.454,247.789)"><stop offset="0" style="stop-color:rgb(128,128,128);stop-opacity:0.25"/><stop offset="0.54" style="stop-color:rgb(128,128,128);stop-opacity:0.12"/><stop offset="1" style="stop-color:rgb(128,128,128);stop-opacity:0.1"/></linearGradient>
        <linearGradient id="_Linear2" x1="0" y1="0" x2="1" y2="0" gradientUnits="userSpaceOnUse" gradientTransform="matrix(1.16861e-15,-19.0848,19.0848,1.16861e-15,29547.8,2321.86)"><stop offset="0" style="stop-color:rgb(128,128,128);stop-opacity:0.25"/><stop offset="0.54" style="stop-color:rgb(128,128,128);stop-opacity:0.12"/><stop offset="1" style="stop-color:rgb(128,128,128);stop-opacity:0.1"/></linearGradient>
        <linearGradient id="_Linear3" x1="0" y1="0" x2="1" y2="0" gradientUnits="userSpaceOnUse" gradientTransform="matrix(1.16861e-15,-19.0848,19.0848,1.16861e-15,29549.7,2346.25)"><stop offset="0" style="stop-color:rgb(128,128,128);stop-opacity:0.25"/><stop offset="0.54" style="stop-color:rgb(128,128,128);stop-opacity:0.12"/><stop offset="1" style="stop-color:rgb(128,128,128);stop-opacity:0.1"/></linearGradient>
        <linearGradient id="_Linear4" x1="0" y1="0" x2="1" y2="0" gradientUnits="userSpaceOnUse" gradientTransform="matrix(1.16861e-15,-19.0848,19.0848,1.16861e-15,29551.7,2370.65)"><stop offset="0" style="stop-color:rgb(128,128,128);stop-opacity:0.25"/><stop offset="0.54" style="stop-color:rgb(128,128,128);stop-opacity:0.12"/><stop offset="1" style="stop-color:rgb(128,128,128);stop-opacity:0.1"/></linearGradient>
        <linearGradient id="_Linear5" x1="0" y1="0" x2="1" y2="0" gradientUnits="userSpaceOnUse" gradientTransform="matrix(5.19625e-15,-84.8611,84.8611,5.19625e-15,1968.41,4632.18)"><stop offset="0" style="stop-color:rgb(128,128,128);stop-opacity:0.25"/><stop offset="0.54" style="stop-color:rgb(128,128,128);stop-opacity:0.12"/><stop offset="1" style="stop-color:rgb(128,128,128);stop-opacity:0.1"/></linearGradient>
        <linearGradient id="_Linear6" x1="0" y1="0" x2="1" y2="0" gradientUnits="userSpaceOnUse" gradientTransform="matrix(5.19625e-15,-84.8612,84.8612,5.19625e-15,2052.43,4633.07)"><stop offset="0" style="stop-color:rgb(128,128,128);stop-opacity:0.25"/><stop offset="0.54" style="stop-color:rgb(128,128,128);stop-opacity:0.12"/><stop offset="1" style="stop-color:rgb(128,128,128);stop-opacity:0.1"/></linearGradient>
        <linearGradient id="_Linear7" x1="0" y1="0" x2="1" y2="0" gradientUnits="userSpaceOnUse" gradientTransform="matrix(1.16861e-15,-19.0848,19.0848,1.16861e-15,17916.4,2321.86)"><stop offset="0" style="stop-color:rgb(128,128,128);stop-opacity:0.25"/><stop offset="0.54" style="stop-color:rgb(128,128,128);stop-opacity:0.12"/><stop offset="1" style="stop-color:rgb(128,128,128);stop-opacity:0.1"/></linearGradient>
        <linearGradient id="_Linear8" x1="0" y1="0" x2="1" y2="0" gradientUnits="userSpaceOnUse" gradientTransform="matrix(1.16861e-15,-19.0848,19.0848,1.16861e-15,17918.4,2346.25)"><stop offset="0" style="stop-color:rgb(128,128,128);stop-opacity:0.25"/><stop offset="0.54" style="stop-color:rgb(128,128,128);stop-opacity:0.12"/><stop offset="1" style="stop-color:rgb(128,128,128);stop-opacity:0.1"/></linearGradient>
        <linearGradient id="_Linear9" x1="0" y1="0" x2="1" y2="0" gradientUnits="userSpaceOnUse" gradientTransform="matrix(1.16861e-15,-19.0848,19.0848,1.16861e-15,17920.4,2370.65)"><stop offset="0" style="stop-color:rgb(128,128,128);stop-opacity:0.25"/><stop offset="0.54" style="stop-color:rgb(128,128,128);stop-opacity:0.12"/><stop offset="1" style="stop-color:rgb(128,128,128);stop-opacity:0.1"/></linearGradient>
        <linearGradient id="_Linear10" x1="0" y1="0" x2="1" y2="0" gradientUnits="userSpaceOnUse" gradientTransform="matrix(5.19625e-15,-84.8611,84.8611,5.19625e-15,1177.15,4632.18)"><stop offset="0" style="stop-color:rgb(128,128,128);stop-opacity:0.25"/><stop offset="0.54" style="stop-color:rgb(128,128,128);stop-opacity:0.12"/><stop offset="1" style="stop-color:rgb(128,128,128);stop-opacity:0.1"/></linearGradient>
        <linearGradient id="_Linear11" x1="0" y1="0" x2="1" y2="0" gradientUnits="userSpaceOnUse" gradientTransform="matrix(5.19625e-15,-84.8612,84.8612,5.19625e-15,1261.17,4633.07)"><stop offset="0" style="stop-color:rgb(128,128,128);stop-opacity:0.25"/><stop offset="0.54" style="stop-color:rgb(128,128,128);stop-opacity:0.12"/><stop offset="1" style="stop-color:rgb(128,128,128);stop-opacity:0.1"/></linearGradient>
        <linearGradient id="_Linear12" x1="0" y1="0" x2="1" y2="0" gradientUnits="userSpaceOnUse" gradientTransform="matrix(1.16861e-15,-19.0848,19.0848,1.16861e-15,12100.8,2321.86)"><stop offset="0" style="stop-color:rgb(128,128,128);stop-opacity:0.25"/><stop offset="0.54" style="stop-color:rgb(128,128,128);stop-opacity:0.12"/><stop offset="1" style="stop-color:rgb(128,128,128);stop-opacity:0.1"/></linearGradient>
        <linearGradient id="_Linear13" x1="0" y1="0" x2="1" y2="0" gradientUnits="userSpaceOnUse" gradientTransform="matrix(1.16861e-15,-19.0848,19.0848,1.16861e-15,12102.8,2346.25)"><stop offset="0" style="stop-color:rgb(128,128,128);stop-opacity:0.25"/><stop offset="0.54" style="stop-color:rgb(128,128,128);stop-opacity:0.12"/><stop offset="1" style="stop-color:rgb(128,128,128);stop-opacity:0.1"/></linearGradient>
        <linearGradient id="_Linear14" x1="0" y1="0" x2="1" y2="0" gradientUnits="userSpaceOnUse" gradientTransform="matrix(1.16861e-15,-19.0848,19.0848,1.16861e-15,12104.7,2370.65)"><stop offset="0" style="stop-color:rgb(128,128,128);stop-opacity:0.25"/><stop offset="0.54" style="stop-color:rgb(128,128,128);stop-opacity:0.12"/><stop offset="1" style="stop-color:rgb(128,128,128);stop-opacity:0.1"/></linearGradient>
        <linearGradient id="_Linear15" x1="0" y1="0" x2="1" y2="0" gradientUnits="userSpaceOnUse" gradientTransform="matrix(5.19625e-15,-84.8611,84.8611,5.19625e-15,781.516,4632.18)"><stop offset="0" style="stop-color:rgb(128,128,128);stop-opacity:0.25"/><stop offset="0.54" style="stop-color:rgb(128,128,128);stop-opacity:0.12"/><stop offset="1" style="stop-color:rgb(128,128,128);stop-opacity:0.1"/></linearGradient>
        <linearGradient id="_Linear16" x1="0" y1="0" x2="1" y2="0" gradientUnits="userSpaceOnUse" gradientTransform="matrix(5.19625e-15,-84.8612,84.8612,5.19625e-15,865.534,4633.07)"><stop offset="0" style="stop-color:rgb(128,128,128);stop-opacity:0.25"/><stop offset="0.54" style="stop-color:rgb(128,128,128);stop-opacity:0.12"/><stop offset="1" style="stop-color:rgb(128,128,128);stop-opacity:0.1"/></linearGradient>
    </defs>
</svg>
